G04 #@! TF.FileFunction,Soldermask,Top*
%FSLAX46Y46*%
G04 Gerber Fmt 4.6, Leading zero omitted, Abs format (unit mm)*
G04 Created by KiCad (PCBNEW (2015-10-25 BZR 6279, Git c721c21)-product) date Mon 02 Nov 2015 02:23:49 PM PST*
%MOMM*%
G01*
G04 APERTURE LIST*
%ADD10C,0.100000*%
%ADD11O,2.700000X2.000000*%
%ADD12R,1.650000X1.900000*%
%ADD13R,1.700000X1.900000*%
%ADD14R,3.650000X2.550000*%
%ADD15R,1.350000X2.550000*%
%ADD16R,2.000200X3.000960*%
%ADD17R,1.900000X1.650000*%
%ADD18C,4.718000*%
%ADD19R,1.598880X1.598880*%
%ADD20C,1.184860*%
%ADD21C,1.388060*%
%ADD22C,1.385520*%
%ADD23C,2.772360*%
%ADD24C,2.769820*%
%ADD25R,1.900000X1.700000*%
%ADD26C,2.899360*%
%ADD27R,1.797000X1.797000*%
%ADD28C,1.797000*%
%ADD29C,3.194000*%
%ADD30C,1.901140*%
%ADD31C,2.279600*%
%ADD32C,2.076400*%
%ADD33R,2.076400X2.076400*%
%ADD34C,1.700000*%
%ADD35C,2.400000*%
%ADD36O,2.645360X1.901140*%
%ADD37R,8.223200X10.890200*%
G04 APERTURE END LIST*
D10*
D11*
X75300000Y-70400000D03*
X75300000Y-67860000D03*
X75300000Y-65320000D03*
X75300000Y-62780000D03*
X75300000Y-60240000D03*
X75300000Y-57700000D03*
X75300000Y-55160000D03*
X75300000Y-52620000D03*
X75300000Y-50080000D03*
X75300000Y-47540000D03*
X75300000Y-45000000D03*
X75300000Y-42460000D03*
X75300000Y-39920000D03*
X75300000Y-37380000D03*
X67680000Y-37380000D03*
X67680000Y-39920000D03*
X67680000Y-42460000D03*
X67680000Y-45000000D03*
X67680000Y-47540000D03*
X67680000Y-50080000D03*
X67680000Y-52620000D03*
X67680000Y-55160000D03*
X67680000Y-57700000D03*
X67680000Y-60240000D03*
X67680000Y-62780000D03*
X67680000Y-65320000D03*
X67680000Y-67860000D03*
X67680000Y-70400000D03*
D12*
X85750000Y-49750000D03*
X85750000Y-52250000D03*
D13*
X45700000Y-67150000D03*
X45700000Y-69850000D03*
D14*
X87250000Y-70100000D03*
D15*
X84950000Y-75900000D03*
X87250000Y-75900000D03*
X89550000Y-75900000D03*
D12*
X65000000Y-52500000D03*
X65000000Y-55000000D03*
X85750000Y-55750000D03*
X85750000Y-58250000D03*
D16*
X93250000Y-74800860D03*
X93250000Y-71199140D03*
X80250000Y-70800860D03*
X80250000Y-67199140D03*
D12*
X63500000Y-49250000D03*
X63500000Y-46750000D03*
D17*
X50500000Y-40250000D03*
X48000000Y-40250000D03*
X48000000Y-47250000D03*
X50500000Y-47250000D03*
X50500000Y-43750000D03*
X48000000Y-43750000D03*
D12*
X63500000Y-63750000D03*
X63500000Y-61250000D03*
D17*
X50500000Y-54250000D03*
X48000000Y-54250000D03*
X48000000Y-61250000D03*
X50500000Y-61250000D03*
X50500000Y-57750000D03*
X48000000Y-57750000D03*
D18*
X101500000Y-75500000D03*
X101500000Y-69500000D03*
X106200000Y-72500000D03*
D19*
X59500000Y-69799020D03*
X59500000Y-67700980D03*
D20*
X82135000Y-44290000D03*
X80865000Y-44290000D03*
X82135000Y-43020000D03*
X80865000Y-43020000D03*
X80865000Y-39210000D03*
X82135000Y-39210000D03*
X80865000Y-40480000D03*
X82135000Y-40480000D03*
X80865000Y-41750000D03*
X82135000Y-41750000D03*
D21*
X81500000Y-37940000D03*
D22*
X82516000Y-45560000D03*
X80484000Y-45560000D03*
D23*
X84040000Y-37940000D03*
D24*
X84040000Y-43655000D03*
X78960000Y-38067000D03*
X78960000Y-43655000D03*
D13*
X78000000Y-63850000D03*
X78000000Y-61150000D03*
X63000000Y-67400000D03*
X63000000Y-70100000D03*
D25*
X50600000Y-50750000D03*
X47900000Y-50750000D03*
X50600000Y-64750000D03*
X47900000Y-64750000D03*
D26*
X58998740Y-73200000D03*
X53997480Y-73200000D03*
X64000000Y-73200000D03*
D27*
X109750000Y-71960000D03*
D28*
X109750000Y-74500000D03*
X109750000Y-77040000D03*
D29*
X114800000Y-75680000D03*
X114800000Y-70680000D03*
X114800000Y-60520000D03*
X114800000Y-65520000D03*
D30*
X80750000Y-51559060D03*
X80750000Y-56440940D03*
D26*
X45898740Y-73200000D03*
X40897480Y-73200000D03*
X50900000Y-73200000D03*
D31*
X36848800Y-66239400D03*
X43351200Y-66239400D03*
X36848800Y-70760600D03*
X43351200Y-70760600D03*
D29*
X114800000Y-53480000D03*
X114800000Y-48480000D03*
X114800000Y-38320000D03*
X114800000Y-43320000D03*
D32*
X66880000Y-76970000D03*
X66880000Y-74430000D03*
X69420000Y-74430000D03*
X69420000Y-76970000D03*
X71960000Y-76970000D03*
X71960000Y-74430000D03*
X74500000Y-74430000D03*
X74500000Y-76970000D03*
X77040000Y-76970000D03*
X77040000Y-74430000D03*
X79580000Y-74430000D03*
X79580000Y-76970000D03*
X82120000Y-76970000D03*
D33*
X82120000Y-74430000D03*
D11*
X60850000Y-63300000D03*
X60850000Y-60760000D03*
X60850000Y-58220000D03*
X60850000Y-55680000D03*
X53230000Y-55680000D03*
X53230000Y-58220000D03*
X53230000Y-60760000D03*
X53230000Y-63300000D03*
X60850000Y-49300000D03*
X60850000Y-46760000D03*
X60850000Y-44220000D03*
X60850000Y-41680000D03*
X53230000Y-41680000D03*
X53230000Y-44220000D03*
X53230000Y-46760000D03*
X53230000Y-49300000D03*
D34*
X44000000Y-58800000D03*
X36500000Y-63800000D03*
X39000000Y-63800000D03*
X36500000Y-53800000D03*
X39000000Y-53800000D03*
D35*
X44000000Y-56300000D03*
X44000000Y-53800000D03*
X44000000Y-61300000D03*
X44000000Y-63800000D03*
X39000000Y-58800000D03*
D34*
X44000000Y-46300000D03*
X36500000Y-51300000D03*
X39000000Y-51300000D03*
X36500000Y-41300000D03*
X39000000Y-41300000D03*
D35*
X44000000Y-43800000D03*
X44000000Y-41300000D03*
X44000000Y-48800000D03*
X44000000Y-51300000D03*
X39000000Y-46300000D03*
D36*
X107008000Y-40750000D03*
X107008000Y-38210000D03*
X107008000Y-43290000D03*
X107008000Y-51750000D03*
X107008000Y-49210000D03*
X107008000Y-54290000D03*
X109758000Y-51750000D03*
X109758000Y-54290000D03*
X109758000Y-49210000D03*
D37*
X93050000Y-51750000D03*
D36*
X109758000Y-62750000D03*
X109758000Y-65290000D03*
X109758000Y-60210000D03*
D37*
X93050000Y-62750000D03*
D36*
X109758000Y-40750000D03*
X109758000Y-43290000D03*
X109758000Y-38210000D03*
D37*
X93050000Y-40750000D03*
D36*
X107008000Y-62750000D03*
X107008000Y-60210000D03*
X107008000Y-65290000D03*
M02*
