M48
INCH,TZ
T1C0.016
T2C0.031
T3C0.032
T4C0.032
T5C0.039
T6C0.039
T7C0.039
T8C0.040
T9C0.047
T10C0.047
T11C0.053
T12C0.070
T13C0.093
T14C0.093
T15C0.118
%
G90
G05
T1
X22910Y-25980
X24427Y-27057
X24996Y-15027
X25422Y-20069
X25775Y-23685
X28358Y-17358
X28743Y-17403
X29033Y-28445
X30496Y-20168
X30500Y-26007
X30845Y-28435
X30998Y-20860
X31201Y-22397
X31425Y-25716
X31455Y-16325
X31850Y-18352
X31979Y-25554
X32136Y-23500
X32721Y-16286
X32783Y-15846
X32866Y-27410
X33176Y-18810
X33945Y-29575
X38954Y-25773
X40059Y-15256
X40210Y-24697
X40453Y-25000
X40650Y-20669
X40748Y-24016
X43012Y-25705
X43602Y-18701
T2
X20957Y-16409
X20957Y-17409
X20957Y-18409
X20957Y-19409
X20957Y-21921
X20957Y-22921
X20957Y-23921
X20957Y-24921
X23957Y-16409
X23957Y-17409
X23957Y-18409
X23957Y-19409
X23957Y-21921
X23957Y-22921
X23957Y-23921
X23957Y-24921
X26646Y-14717
X26646Y-15717
X26646Y-16717
X26646Y-17717
X26646Y-18717
X26646Y-19717
X26646Y-20717
X26646Y-21717
X26646Y-22717
X26646Y-23717
X26646Y-24717
X26646Y-25717
X26646Y-26717
X26646Y-27717
X29646Y-14717
X29646Y-15717
X29646Y-16717
X29646Y-17717
X29646Y-18717
X29646Y-19717
X29646Y-20717
X29646Y-21717
X29646Y-22717
X29646Y-23717
X29646Y-24717
X29646Y-25717
X29646Y-26717
X29646Y-27717
T3
X31791Y-20299
X31791Y-22221
T4
X43209Y-28331
X43209Y-29331
X43209Y-30331
T5
X31687Y-17937
X32487Y-17937
T6
X32087Y-14937
T7
X41929Y-15043
X41929Y-16043
X41929Y-17043
X41929Y-19374
X41929Y-20374
X41929Y-21374
X41929Y-23705
X41929Y-24705
X41929Y-25705
X43012Y-15043
X43012Y-16043
X43012Y-17043
X43012Y-19374
X43012Y-20374
X43012Y-21374
X43012Y-23705
X43012Y-24705
X43012Y-25705
T8
X14507Y-26079
X14507Y-27859
X17067Y-26079
X17067Y-27859
X26331Y-29303
X26331Y-30303
X27331Y-29303
X27331Y-30303
X28331Y-29303
X28331Y-30303
X29331Y-29303
X29331Y-30303
X30331Y-29303
X30331Y-30303
X31331Y-29303
X31331Y-30303
X32331Y-29303
X32331Y-30303
T9
X16101Y-28819
X18070Y-28819
X20039Y-28819
X21259Y-28819
X23228Y-28819
X25197Y-28819
T10
X14370Y-16260
X14370Y-20197
X14370Y-21181
X14370Y-25118
X15354Y-16260
X15354Y-20197
X15354Y-21181
X15354Y-25118
X17323Y-18228
X17323Y-23150
T11
X15354Y-18228
X15354Y-23150
X17323Y-16260
X17323Y-17244
X17323Y-19213
X17323Y-20197
X17323Y-21181
X17323Y-22165
X17323Y-24134
X17323Y-25118
T12
X45197Y-15087
X45197Y-17055
X45197Y-19087
X45197Y-21055
X45197Y-23827
X45197Y-25795
X45197Y-27827
X45197Y-29795
T13
X31087Y-14987
X31087Y-17187
X33087Y-17187
T14
X33087Y-14937
T15
X39961Y-27362
X39961Y-29724
X41811Y-28543
T0
M30
