G04 #@! TF.FileFunction,Copper,L2,Bot,Signal*
%FSLAX46Y46*%
G04 Gerber Fmt 4.6, Leading zero omitted, Abs format (unit mm)*
G04 Created by KiCad (PCBNEW (2015-10-25 BZR 6279, Git c721c21)-product) date Mon 02 Nov 2015 02:23:49 PM PST*
%MOMM*%
G01*
G04 APERTURE LIST*
%ADD10C,0.100000*%
%ADD11O,2.300000X1.600000*%
%ADD12C,4.318000*%
%ADD13C,2.499360*%
%ADD14R,1.397000X1.397000*%
%ADD15C,1.397000*%
%ADD16C,2.794000*%
%ADD17C,1.501140*%
%ADD18C,1.879600*%
%ADD19C,1.676400*%
%ADD20R,1.676400X1.676400*%
%ADD21C,1.300000*%
%ADD22C,2.000000*%
%ADD23O,2.245360X1.501140*%
%ADD24R,7.823200X10.490200*%
%ADD25R,1.800000X1.100000*%
%ADD26C,0.600000*%
%ADD27C,0.250000*%
%ADD28C,1.500000*%
%ADD29C,0.254000*%
G04 APERTURE END LIST*
D10*
D11*
X75300000Y-70400000D03*
X75300000Y-67860000D03*
X75300000Y-65320000D03*
X75300000Y-62780000D03*
X75300000Y-60240000D03*
X75300000Y-57700000D03*
X75300000Y-55160000D03*
X75300000Y-52620000D03*
X75300000Y-50080000D03*
X75300000Y-47540000D03*
X75300000Y-45000000D03*
X75300000Y-42460000D03*
X75300000Y-39920000D03*
X75300000Y-37380000D03*
X67680000Y-37380000D03*
X67680000Y-39920000D03*
X67680000Y-42460000D03*
X67680000Y-45000000D03*
X67680000Y-47540000D03*
X67680000Y-50080000D03*
X67680000Y-52620000D03*
X67680000Y-55160000D03*
X67680000Y-57700000D03*
X67680000Y-60240000D03*
X67680000Y-62780000D03*
X67680000Y-65320000D03*
X67680000Y-67860000D03*
X67680000Y-70400000D03*
D12*
X101500000Y-75500000D03*
X101500000Y-69500000D03*
X106200000Y-72500000D03*
D13*
X58998740Y-73200000D03*
X53997480Y-73200000D03*
X64000000Y-73200000D03*
D14*
X109750000Y-71960000D03*
D15*
X109750000Y-74500000D03*
X109750000Y-77040000D03*
D16*
X114800000Y-75680000D03*
X114800000Y-70680000D03*
X114800000Y-60520000D03*
X114800000Y-65520000D03*
D17*
X80750000Y-51559060D03*
X80750000Y-56440940D03*
D13*
X45898740Y-73200000D03*
X40897480Y-73200000D03*
X50900000Y-73200000D03*
D18*
X36848800Y-66239400D03*
X43351200Y-66239400D03*
X36848800Y-70760600D03*
X43351200Y-70760600D03*
D16*
X114800000Y-53480000D03*
X114800000Y-48480000D03*
X114800000Y-38320000D03*
X114800000Y-43320000D03*
D19*
X66880000Y-76970000D03*
X66880000Y-74430000D03*
X69420000Y-74430000D03*
X69420000Y-76970000D03*
X71960000Y-76970000D03*
X71960000Y-74430000D03*
X74500000Y-74430000D03*
X74500000Y-76970000D03*
X77040000Y-76970000D03*
X77040000Y-74430000D03*
X79580000Y-74430000D03*
X79580000Y-76970000D03*
X82120000Y-76970000D03*
D20*
X82120000Y-74430000D03*
D11*
X60850000Y-63300000D03*
X60850000Y-60760000D03*
X60850000Y-58220000D03*
X60850000Y-55680000D03*
X53230000Y-55680000D03*
X53230000Y-58220000D03*
X53230000Y-60760000D03*
X53230000Y-63300000D03*
X60850000Y-49300000D03*
X60850000Y-46760000D03*
X60850000Y-44220000D03*
X60850000Y-41680000D03*
X53230000Y-41680000D03*
X53230000Y-44220000D03*
X53230000Y-46760000D03*
X53230000Y-49300000D03*
D21*
X44000000Y-58800000D03*
X36500000Y-63800000D03*
X39000000Y-63800000D03*
X36500000Y-53800000D03*
X39000000Y-53800000D03*
D22*
X44000000Y-56300000D03*
X44000000Y-53800000D03*
X44000000Y-61300000D03*
X44000000Y-63800000D03*
X39000000Y-58800000D03*
D21*
X44000000Y-46300000D03*
X36500000Y-51300000D03*
X39000000Y-51300000D03*
X36500000Y-41300000D03*
X39000000Y-41300000D03*
D22*
X44000000Y-43800000D03*
X44000000Y-41300000D03*
X44000000Y-48800000D03*
X44000000Y-51300000D03*
X39000000Y-46300000D03*
D23*
X107008000Y-40750000D03*
X107008000Y-38210000D03*
X107008000Y-43290000D03*
D24*
X90300000Y-40750000D03*
D23*
X107008000Y-51750000D03*
X107008000Y-49210000D03*
X107008000Y-54290000D03*
D24*
X90300000Y-51750000D03*
D23*
X109758000Y-51750000D03*
X109758000Y-54290000D03*
X109758000Y-49210000D03*
X109758000Y-62750000D03*
X109758000Y-65290000D03*
X109758000Y-60210000D03*
X109758000Y-40750000D03*
X109758000Y-43290000D03*
X109758000Y-38210000D03*
X107008000Y-62750000D03*
X107008000Y-60210000D03*
X107008000Y-65290000D03*
D24*
X90300000Y-62750000D03*
D25*
X55600000Y-66400000D03*
X49400000Y-66400000D03*
X55600000Y-70100000D03*
X49400000Y-70100000D03*
D26*
X77460400Y-51227600D03*
X72029400Y-44089000D03*
X84266200Y-47776300D03*
X58191400Y-65990000D03*
X86219500Y-75120800D03*
X62043400Y-68725500D03*
X64571200Y-50974800D03*
X78735000Y-52983600D03*
X80899700Y-46614100D03*
X77469600Y-66057900D03*
X79895800Y-41465500D03*
X78345800Y-72225400D03*
X73744700Y-72249100D03*
X101750000Y-38750000D03*
X103250000Y-52500000D03*
X103500000Y-61000000D03*
X110750000Y-47500000D03*
X98942400Y-65463100D03*
X81227500Y-64908300D03*
X81626100Y-59689900D03*
X102750000Y-63500000D03*
X109250000Y-65290000D03*
X83479400Y-69621400D03*
X102134000Y-62731100D03*
X79820300Y-65319800D03*
X79250300Y-56888600D03*
X73007700Y-44202400D03*
X65467300Y-60160600D03*
X63488700Y-38168700D03*
X83269300Y-40248000D03*
X83110900Y-41366600D03*
D27*
X53997480Y-73200000D02*
X53950000Y-73200000D01*
X53950000Y-73200000D02*
X50850000Y-70100000D01*
X50850000Y-70100000D02*
X49400000Y-70100000D01*
X60850000Y-60760000D02*
X60850000Y-61322700D01*
D28*
X106500000Y-54290000D02*
X106790000Y-54290000D01*
X106790000Y-54290000D02*
X112000000Y-59500000D01*
X112000000Y-56250000D02*
X112000000Y-59500000D01*
X112000000Y-59500000D02*
X112000000Y-61500000D01*
X109250000Y-60210000D02*
X110710000Y-60210000D01*
X110710000Y-60210000D02*
X112000000Y-61500000D01*
X108710000Y-67500000D02*
X106500000Y-65290000D01*
X111000000Y-67500000D02*
X108710000Y-67500000D01*
X112000000Y-66500000D02*
X111000000Y-67500000D01*
X112000000Y-61500000D02*
X112000000Y-66500000D01*
X109250000Y-49210000D02*
X110210000Y-49210000D01*
X110210000Y-49210000D02*
X112000000Y-51000000D01*
X112000000Y-51000000D02*
X112000000Y-56250000D01*
X106500000Y-43290000D02*
X106500000Y-45500000D01*
X109250000Y-48250000D02*
X109250000Y-49210000D01*
X106500000Y-45500000D02*
X109250000Y-48250000D01*
X109250000Y-38210000D02*
X109250000Y-37500000D01*
X109250000Y-37500000D02*
X107500000Y-35750000D01*
X107500000Y-35750000D02*
X104750000Y-35750000D01*
X104750000Y-35750000D02*
X103750000Y-36750000D01*
X103750000Y-36750000D02*
X103750000Y-42000000D01*
X103750000Y-42000000D02*
X105040000Y-43290000D01*
X105040000Y-43290000D02*
X106500000Y-43290000D01*
D27*
X99930000Y-74180000D02*
X101500000Y-75500000D01*
X53397400Y-72322100D02*
X53546500Y-72322100D01*
X53997500Y-72773100D02*
X53997500Y-73200000D01*
X53546500Y-72322100D02*
X53997500Y-72773100D01*
X53546500Y-72322100D02*
X53674700Y-72193900D01*
X94658800Y-64750000D02*
X94658800Y-64091200D01*
X107960000Y-53000000D02*
X109250000Y-54290000D01*
X105750000Y-53000000D02*
X107960000Y-53000000D01*
X94658800Y-64091200D02*
X105750000Y-53000000D01*
X76973300Y-40786700D02*
X75300000Y-42460000D01*
X80195200Y-40786700D02*
X76973300Y-40786700D01*
X81552800Y-42144300D02*
X80195200Y-40786700D01*
X84719700Y-42144300D02*
X81552800Y-42144300D01*
X85889700Y-43314300D02*
X84719700Y-42144300D01*
X85889700Y-68017600D02*
X85889700Y-43314300D01*
X86192600Y-68320500D02*
X85889700Y-68017600D01*
X94355900Y-68320500D02*
X86192600Y-68320500D01*
X94658800Y-68017600D02*
X94355900Y-68320500D01*
X94658800Y-64729800D02*
X94658800Y-64750000D01*
X94658800Y-64750000D02*
X94658800Y-68017600D01*
X72029400Y-48794300D02*
X72029400Y-44089000D01*
X74462700Y-51227600D02*
X72029400Y-48794300D01*
X77460400Y-51227600D02*
X74462700Y-51227600D01*
X84266200Y-67040600D02*
X84266200Y-47776300D01*
X86019300Y-68793700D02*
X84266200Y-67040600D01*
X94718300Y-68793700D02*
X86019300Y-68793700D01*
X103302000Y-60210000D02*
X94718300Y-68793700D01*
X106500000Y-60210000D02*
X103302000Y-60210000D01*
D28*
X114800000Y-60520000D02*
X114820000Y-60520000D01*
D27*
X55600000Y-66400000D02*
X49400000Y-66400000D01*
X56010000Y-65990000D02*
X58191400Y-65990000D01*
X56010000Y-65990000D02*
X55600000Y-66400000D01*
X55784300Y-66215700D02*
X55600000Y-66400000D01*
X75300000Y-57700000D02*
X75300000Y-58262700D01*
X75300000Y-58262700D02*
X74737400Y-58825300D01*
X73814300Y-59748400D02*
X74737400Y-58825300D01*
X73814300Y-71434300D02*
X73814300Y-59748400D01*
X75676900Y-73296900D02*
X73814300Y-71434300D01*
X75676900Y-77513200D02*
X75676900Y-73296900D01*
X75025500Y-78164600D02*
X75676900Y-77513200D01*
X73962100Y-78164600D02*
X75025500Y-78164600D01*
X73230000Y-77432500D02*
X73962100Y-78164600D01*
X73230000Y-76565600D02*
X73230000Y-77432500D01*
X72432000Y-75767600D02*
X73230000Y-76565600D01*
X71259300Y-75767600D02*
X72432000Y-75767600D01*
X70056900Y-76970000D02*
X71259300Y-75767600D01*
X69420000Y-76970000D02*
X70056900Y-76970000D01*
X75300000Y-39920000D02*
X75300000Y-39934100D01*
X75300000Y-39934100D02*
X74188800Y-41045300D01*
X74188800Y-41045300D02*
X71404100Y-43830000D01*
X71404100Y-43830000D02*
X71404100Y-45766600D01*
X71404100Y-45766600D02*
X68360700Y-48810000D01*
X68360700Y-48810000D02*
X66956900Y-48810000D01*
X66956900Y-48810000D02*
X66197000Y-49569900D01*
X66197000Y-49569900D02*
X66197000Y-55640200D01*
X66197000Y-55640200D02*
X66986800Y-56430000D01*
X66986800Y-56430000D02*
X68351700Y-56430000D01*
X68351700Y-56430000D02*
X69205200Y-57283500D01*
X69205200Y-57283500D02*
X69205200Y-65775500D01*
X69205200Y-65775500D02*
X68390700Y-66590000D01*
X68390700Y-66590000D02*
X67004000Y-66590000D01*
X67004000Y-66590000D02*
X66178900Y-67415100D01*
X66178900Y-67415100D02*
X66178900Y-73728900D01*
X66178900Y-73728900D02*
X66880000Y-74430000D01*
X42078500Y-68500000D02*
X42078500Y-69487900D01*
X42078500Y-69487900D02*
X43351200Y-70760600D01*
X70088800Y-37380000D02*
X75300000Y-37380000D01*
X68674200Y-38794600D02*
X70088800Y-37380000D01*
X44609700Y-38794600D02*
X68674200Y-38794600D01*
X42078500Y-41325800D02*
X44609700Y-38794600D01*
X42078500Y-68500000D02*
X42078500Y-41325800D01*
X43351200Y-70760600D02*
X42078500Y-70760600D01*
X42078500Y-70760600D02*
X36848800Y-70760600D01*
D28*
X114800000Y-48480000D02*
X114280000Y-48480000D01*
X114800000Y-75680000D02*
X114800000Y-75500000D01*
X114800000Y-75500000D02*
X111800000Y-72500000D01*
X104700000Y-64550000D02*
X106500000Y-62750000D01*
X104700000Y-66500000D02*
X104700000Y-64550000D01*
X107500000Y-69300000D02*
X104700000Y-66500000D01*
X110100000Y-69300000D02*
X107500000Y-69300000D01*
X111800000Y-71000000D02*
X110100000Y-69300000D01*
X111800000Y-72500000D02*
X111800000Y-71000000D01*
X114800000Y-75680000D02*
X114800000Y-75550000D01*
X114800000Y-75680000D02*
X114800000Y-75550000D01*
D27*
X79580000Y-74430000D02*
X80743600Y-75593600D01*
X80743600Y-75593600D02*
X85746700Y-75593600D01*
X85746700Y-75593600D02*
X86219500Y-75120800D01*
X75300000Y-55160000D02*
X75300000Y-54034700D01*
X67680000Y-52620000D02*
X67680000Y-53745300D01*
X67680000Y-53745300D02*
X75010600Y-53745300D01*
X75010600Y-53745300D02*
X75300000Y-54034700D01*
X67680000Y-50080000D02*
X67680000Y-52620000D01*
X60850000Y-49300000D02*
X60850000Y-50425300D01*
X62405000Y-74795000D02*
X57373000Y-74795000D01*
X64000000Y-73200000D02*
X62405000Y-74795000D01*
X52495000Y-74795000D02*
X50900000Y-73200000D01*
X57373000Y-74795000D02*
X52495000Y-74795000D01*
X57373000Y-72052100D02*
X57373000Y-74795000D01*
X60850000Y-68575100D02*
X57373000Y-72052100D01*
X60850000Y-63300000D02*
X60850000Y-68575100D01*
X62325400Y-61824600D02*
X60850000Y-63300000D01*
X62325400Y-51900700D02*
X62325400Y-61824600D01*
X60850000Y-50425300D02*
X62325400Y-51900700D01*
X64571200Y-66197700D02*
X64571200Y-50974800D01*
X62043400Y-68725500D02*
X64571200Y-66197700D01*
X78735000Y-54425900D02*
X78735000Y-52983600D01*
X80750000Y-56440900D02*
X78735000Y-54425900D01*
X76775300Y-47584400D02*
X76775300Y-47540000D01*
X80750000Y-51559100D02*
X76775300Y-47584400D01*
X75300000Y-47540000D02*
X76775300Y-47540000D01*
X75862600Y-67297400D02*
X75862600Y-66734700D01*
X82286100Y-48000500D02*
X80899700Y-46614100D01*
X82286100Y-60311200D02*
X82286100Y-48000500D01*
X75862600Y-66734700D02*
X82286100Y-60311200D01*
X75862600Y-67297400D02*
X75300000Y-67860000D01*
X77040000Y-70162700D02*
X77040000Y-69600000D01*
X77040000Y-69600000D02*
X75300000Y-67860000D01*
X77040000Y-74430000D02*
X77040000Y-70162700D01*
X77720500Y-66308800D02*
X77469600Y-66057900D01*
X77720500Y-73251100D02*
X77720500Y-66308800D01*
X78205600Y-73736200D02*
X77720500Y-73251100D01*
X78205600Y-75804400D02*
X78205600Y-73736200D01*
X77040000Y-76970000D02*
X78205600Y-75804400D01*
X81326600Y-42896300D02*
X79895800Y-41465500D01*
X81326600Y-46156500D02*
X81326600Y-42896300D01*
X82743500Y-47573400D02*
X81326600Y-46156500D01*
X82743500Y-60784000D02*
X82743500Y-47573400D01*
X77469600Y-66057900D02*
X82743500Y-60784000D01*
X103500000Y-63750000D02*
X102500000Y-64750000D01*
X76823200Y-58716800D02*
X75300000Y-60240000D01*
X76823200Y-57240700D02*
X76823200Y-58716800D01*
X76154000Y-56571500D02*
X76823200Y-57240700D01*
X74441100Y-56571500D02*
X76154000Y-56571500D01*
X73362300Y-57650300D02*
X74441100Y-56571500D01*
X73362300Y-71866700D02*
X73362300Y-57650300D01*
X73744700Y-72249100D02*
X73362300Y-71866700D01*
X95000000Y-72225400D02*
X78345800Y-72225400D01*
X95024600Y-72225400D02*
X95000000Y-72225400D01*
X95024600Y-72225400D02*
X102500000Y-64750000D01*
X103500000Y-63750000D02*
X103500000Y-61000000D01*
X101750000Y-51000000D02*
X101750000Y-38750000D01*
X103250000Y-52500000D02*
X101750000Y-51000000D01*
X106500000Y-38210000D02*
X107410000Y-38210000D01*
X109250000Y-46500000D02*
X110750000Y-47500000D01*
X109250000Y-46500000D02*
X109250000Y-46250000D01*
X109250000Y-43290000D02*
X109250000Y-46250000D01*
X109250000Y-46250000D02*
X109250000Y-46299400D01*
X85563300Y-69244100D02*
X81227500Y-64908300D01*
X95161400Y-69244100D02*
X85563300Y-69244100D01*
X98942400Y-65463100D02*
X95161400Y-69244100D01*
X81835700Y-50060400D02*
X76775300Y-45000000D01*
X81835700Y-59480300D02*
X81835700Y-50060400D01*
X81626100Y-59689900D02*
X81835700Y-59480300D01*
X75300000Y-45000000D02*
X76775300Y-45000000D01*
X102225000Y-64025000D02*
X102725000Y-63525000D01*
X102725000Y-63525000D02*
X102750000Y-63500000D01*
X84108000Y-70250000D02*
X96000000Y-70250000D01*
X96000000Y-70250000D02*
X102225000Y-64025000D01*
X102225000Y-64025000D02*
X102250000Y-64000000D01*
X84076700Y-70218700D02*
X84054000Y-70196000D01*
X84054000Y-70196000D02*
X83479400Y-69621400D01*
X80062200Y-65319800D02*
X79820300Y-65319800D01*
X84488900Y-69746500D02*
X80062200Y-65319800D01*
X95543400Y-69746500D02*
X84488900Y-69746500D01*
X102134000Y-63155900D02*
X95543400Y-69746500D01*
X102134000Y-62731100D02*
X102134000Y-63155900D01*
X73007700Y-47229600D02*
X73007700Y-44202400D01*
X74588100Y-48810000D02*
X73007700Y-47229600D01*
X75972400Y-48810000D02*
X74588100Y-48810000D01*
X78085700Y-50923300D02*
X75972400Y-48810000D01*
X78085700Y-55724000D02*
X78085700Y-50923300D01*
X79250300Y-56888600D02*
X78085700Y-55724000D01*
X58998700Y-73200000D02*
X65467300Y-66731400D01*
X65467300Y-66731400D02*
X65467300Y-60160600D01*
X67680000Y-67860000D02*
X67930000Y-67860000D01*
X67930000Y-67860000D02*
X74500000Y-74430000D01*
X74500000Y-74430000D02*
X69155300Y-69085300D01*
X69603100Y-70400000D02*
X67680000Y-70400000D01*
X73230000Y-74026900D02*
X69603100Y-70400000D01*
X73230000Y-75700000D02*
X73230000Y-74026900D01*
X74500000Y-76970000D02*
X73230000Y-75700000D01*
D28*
X101500000Y-69500000D02*
X103200000Y-69500000D01*
X103200000Y-69500000D02*
X106200000Y-72500000D01*
D27*
X47698900Y-72772600D02*
X47698900Y-75448900D01*
X71960000Y-76970000D02*
X70765400Y-78164600D01*
X70765400Y-78164600D02*
X52947800Y-78164600D01*
X47698900Y-72772600D02*
X45174200Y-70247900D01*
X45174200Y-70247900D02*
X45174200Y-64974200D01*
X45174200Y-64974200D02*
X44000000Y-63800000D01*
X50414600Y-78164600D02*
X52947800Y-78164600D01*
X47698900Y-75448900D02*
X50414600Y-78164600D01*
X42670900Y-62470900D02*
X44000000Y-63800000D01*
X42670900Y-52629100D02*
X42670900Y-62470900D01*
X44000000Y-51300000D02*
X42670900Y-52629100D01*
X47122300Y-56922300D02*
X47122300Y-71372300D01*
X44000000Y-53800000D02*
X47122300Y-56922300D01*
X70694749Y-75695251D02*
X71960000Y-74430000D01*
X50195251Y-75695251D02*
X70694749Y-75695251D01*
X48250000Y-73750000D02*
X50195251Y-75695251D01*
X48250000Y-72500000D02*
X48250000Y-73750000D01*
X47122300Y-71372300D02*
X48250000Y-72500000D01*
X45338100Y-52461900D02*
X44000000Y-53800000D01*
X45338100Y-42638100D02*
X45338100Y-52461900D01*
X44000000Y-41300000D02*
X45338100Y-42638100D01*
X80680600Y-37556700D02*
X79310500Y-36186600D01*
X83269300Y-40248000D02*
X82841400Y-39820100D01*
X82841400Y-39820100D02*
X82166100Y-39820100D01*
X82166100Y-39820100D02*
X80680600Y-38334600D01*
X80680600Y-38334600D02*
X80680600Y-37556700D01*
X67680000Y-45000000D02*
X66554700Y-43874700D01*
X65485300Y-42805300D02*
X60850000Y-42805300D01*
X65485300Y-42805300D02*
X66554700Y-43874700D01*
X79310500Y-36186600D02*
X65470800Y-36186600D01*
X65470800Y-36186600D02*
X63488700Y-38168700D01*
X60850000Y-41680000D02*
X60850000Y-42805300D01*
X60309500Y-42805300D02*
X60850000Y-42805300D01*
X59361700Y-43753100D02*
X60309500Y-42805300D01*
X59361700Y-53066400D02*
X59361700Y-43753100D01*
X60850000Y-54554700D02*
X59361700Y-53066400D01*
X60850000Y-55680000D02*
X60850000Y-54554700D01*
X53230000Y-60760000D02*
X53230000Y-60176800D01*
X53230000Y-60176800D02*
X51754000Y-58700800D01*
X53230000Y-46760000D02*
X53230000Y-47322700D01*
X53230000Y-47322700D02*
X51754000Y-48798700D01*
X67680000Y-47540000D02*
X67680000Y-46977300D01*
X67680000Y-46977300D02*
X68242600Y-46414700D01*
X82014800Y-40270500D02*
X83110900Y-41366600D01*
X78157700Y-40270500D02*
X82014800Y-40270500D01*
X76680000Y-38792800D02*
X78157700Y-40270500D01*
X74431200Y-38792800D02*
X76680000Y-38792800D01*
X69895200Y-43328800D02*
X74431200Y-38792800D01*
X69895200Y-44762100D02*
X69895200Y-43328800D01*
X68242600Y-46414700D02*
X69895200Y-44762100D01*
X51754000Y-48798700D02*
X52667400Y-47885300D01*
X51754000Y-58700800D02*
X51754000Y-48798700D01*
X52687900Y-59634700D02*
X51754000Y-58700800D01*
X67680000Y-65320000D02*
X67680000Y-64757300D01*
X67680000Y-64757300D02*
X66132800Y-63210100D01*
X60850000Y-44220000D02*
X60850000Y-44788308D01*
X60850000Y-44788308D02*
X65642100Y-49580408D01*
X66132800Y-63210100D02*
X67117400Y-64194700D01*
X66132800Y-58865500D02*
X66132800Y-63210100D01*
X65642100Y-58374800D02*
X66132800Y-58865500D01*
X65642100Y-49574800D02*
X65642100Y-49580408D01*
X65642100Y-49580408D02*
X65642100Y-58374800D01*
X61412600Y-45345300D02*
X65642100Y-49574800D01*
D29*
G36*
X45271955Y-71420457D02*
X45021350Y-71521709D01*
X44712078Y-71724091D01*
X44448006Y-71982689D01*
X44239191Y-72287655D01*
X44093588Y-72627372D01*
X44016743Y-72988900D01*
X44011583Y-73358469D01*
X44078304Y-73722002D01*
X44214364Y-74065652D01*
X44414582Y-74376329D01*
X44671331Y-74642200D01*
X44974832Y-74853139D01*
X45313524Y-75001110D01*
X45674507Y-75080477D01*
X46044030Y-75088218D01*
X46408020Y-75024036D01*
X46752611Y-74890378D01*
X46938900Y-74772156D01*
X46938900Y-75448900D01*
X46945751Y-75518777D01*
X46951869Y-75588703D01*
X46952984Y-75592541D01*
X46953374Y-75596518D01*
X46973664Y-75663721D01*
X46993251Y-75731140D01*
X46995090Y-75734688D01*
X46996245Y-75738513D01*
X47029199Y-75800491D01*
X47061510Y-75862825D01*
X47064003Y-75865948D01*
X47065880Y-75869478D01*
X47110255Y-75923887D01*
X47154048Y-75978746D01*
X47159531Y-75984306D01*
X47159626Y-75984422D01*
X47159734Y-75984511D01*
X47161499Y-75986301D01*
X48965198Y-77790000D01*
X39586920Y-77790000D01*
X39774383Y-77437433D01*
X39913150Y-76977817D01*
X39960000Y-76500000D01*
X39959041Y-76431313D01*
X39898867Y-75954991D01*
X39747322Y-75499428D01*
X39510176Y-75081977D01*
X39196464Y-74718537D01*
X38933872Y-74513377D01*
X39763709Y-74513377D01*
X39889584Y-74803315D01*
X40221742Y-74969139D01*
X40579867Y-75066975D01*
X40950199Y-75093065D01*
X41318505Y-75046405D01*
X41670631Y-74928789D01*
X41905376Y-74803315D01*
X42031251Y-74513377D01*
X40897480Y-73379605D01*
X39763709Y-74513377D01*
X38933872Y-74513377D01*
X38818134Y-74422953D01*
X38389596Y-74206483D01*
X37927175Y-74077373D01*
X37448482Y-74040540D01*
X36971751Y-74097386D01*
X36515141Y-74245748D01*
X36210000Y-74416286D01*
X36210000Y-73252719D01*
X39004415Y-73252719D01*
X39051075Y-73621025D01*
X39168691Y-73973151D01*
X39294165Y-74207896D01*
X39584103Y-74333771D01*
X40717875Y-73200000D01*
X39584103Y-72066229D01*
X39294165Y-72192104D01*
X39128341Y-72524262D01*
X39030505Y-72882387D01*
X39004415Y-73252719D01*
X36210000Y-73252719D01*
X36210000Y-72200122D01*
X36359805Y-72265571D01*
X36661435Y-72331888D01*
X36970202Y-72338356D01*
X37274344Y-72284728D01*
X37562278Y-72173046D01*
X37823035Y-72007564D01*
X38046684Y-71794586D01*
X38224706Y-71542223D01*
X38234333Y-71520600D01*
X40031929Y-71520600D01*
X39889584Y-71596685D01*
X39763709Y-71886623D01*
X40897480Y-73020395D01*
X40911622Y-73006252D01*
X41091228Y-73185858D01*
X41077085Y-73200000D01*
X42210857Y-74333771D01*
X42500795Y-74207896D01*
X42666619Y-73875738D01*
X42764455Y-73517613D01*
X42790545Y-73147281D01*
X42743885Y-72778975D01*
X42626269Y-72426849D01*
X42500795Y-72192104D01*
X42210858Y-72066230D01*
X42318632Y-71958456D01*
X42325602Y-71965673D01*
X42579201Y-72141929D01*
X42862205Y-72265571D01*
X43163835Y-72331888D01*
X43472602Y-72338356D01*
X43776744Y-72284728D01*
X44064678Y-72173046D01*
X44325435Y-72007564D01*
X44549084Y-71794586D01*
X44727106Y-71542223D01*
X44852720Y-71260089D01*
X44900645Y-71049147D01*
X45271955Y-71420457D01*
X45271955Y-71420457D01*
G37*
X45271955Y-71420457D02*
X45021350Y-71521709D01*
X44712078Y-71724091D01*
X44448006Y-71982689D01*
X44239191Y-72287655D01*
X44093588Y-72627372D01*
X44016743Y-72988900D01*
X44011583Y-73358469D01*
X44078304Y-73722002D01*
X44214364Y-74065652D01*
X44414582Y-74376329D01*
X44671331Y-74642200D01*
X44974832Y-74853139D01*
X45313524Y-75001110D01*
X45674507Y-75080477D01*
X46044030Y-75088218D01*
X46408020Y-75024036D01*
X46752611Y-74890378D01*
X46938900Y-74772156D01*
X46938900Y-75448900D01*
X46945751Y-75518777D01*
X46951869Y-75588703D01*
X46952984Y-75592541D01*
X46953374Y-75596518D01*
X46973664Y-75663721D01*
X46993251Y-75731140D01*
X46995090Y-75734688D01*
X46996245Y-75738513D01*
X47029199Y-75800491D01*
X47061510Y-75862825D01*
X47064003Y-75865948D01*
X47065880Y-75869478D01*
X47110255Y-75923887D01*
X47154048Y-75978746D01*
X47159531Y-75984306D01*
X47159626Y-75984422D01*
X47159734Y-75984511D01*
X47161499Y-75986301D01*
X48965198Y-77790000D01*
X39586920Y-77790000D01*
X39774383Y-77437433D01*
X39913150Y-76977817D01*
X39960000Y-76500000D01*
X39959041Y-76431313D01*
X39898867Y-75954991D01*
X39747322Y-75499428D01*
X39510176Y-75081977D01*
X39196464Y-74718537D01*
X38933872Y-74513377D01*
X39763709Y-74513377D01*
X39889584Y-74803315D01*
X40221742Y-74969139D01*
X40579867Y-75066975D01*
X40950199Y-75093065D01*
X41318505Y-75046405D01*
X41670631Y-74928789D01*
X41905376Y-74803315D01*
X42031251Y-74513377D01*
X40897480Y-73379605D01*
X39763709Y-74513377D01*
X38933872Y-74513377D01*
X38818134Y-74422953D01*
X38389596Y-74206483D01*
X37927175Y-74077373D01*
X37448482Y-74040540D01*
X36971751Y-74097386D01*
X36515141Y-74245748D01*
X36210000Y-74416286D01*
X36210000Y-73252719D01*
X39004415Y-73252719D01*
X39051075Y-73621025D01*
X39168691Y-73973151D01*
X39294165Y-74207896D01*
X39584103Y-74333771D01*
X40717875Y-73200000D01*
X39584103Y-72066229D01*
X39294165Y-72192104D01*
X39128341Y-72524262D01*
X39030505Y-72882387D01*
X39004415Y-73252719D01*
X36210000Y-73252719D01*
X36210000Y-72200122D01*
X36359805Y-72265571D01*
X36661435Y-72331888D01*
X36970202Y-72338356D01*
X37274344Y-72284728D01*
X37562278Y-72173046D01*
X37823035Y-72007564D01*
X38046684Y-71794586D01*
X38224706Y-71542223D01*
X38234333Y-71520600D01*
X40031929Y-71520600D01*
X39889584Y-71596685D01*
X39763709Y-71886623D01*
X40897480Y-73020395D01*
X40911622Y-73006252D01*
X41091228Y-73185858D01*
X41077085Y-73200000D01*
X42210857Y-74333771D01*
X42500795Y-74207896D01*
X42666619Y-73875738D01*
X42764455Y-73517613D01*
X42790545Y-73147281D01*
X42743885Y-72778975D01*
X42626269Y-72426849D01*
X42500795Y-72192104D01*
X42210858Y-72066230D01*
X42318632Y-71958456D01*
X42325602Y-71965673D01*
X42579201Y-72141929D01*
X42862205Y-72265571D01*
X43163835Y-72331888D01*
X43472602Y-72338356D01*
X43776744Y-72284728D01*
X44064678Y-72173046D01*
X44325435Y-72007564D01*
X44549084Y-71794586D01*
X44727106Y-71542223D01*
X44852720Y-71260089D01*
X44900645Y-71049147D01*
X45271955Y-71420457D01*
G36*
X119712750Y-36094414D02*
X119580414Y-36555923D01*
X119540240Y-37034347D01*
X119593757Y-37511463D01*
X119738927Y-37969097D01*
X119970221Y-38389819D01*
X120278828Y-38757603D01*
X120652994Y-39058440D01*
X121078468Y-39280872D01*
X121539042Y-39416427D01*
X122017174Y-39459940D01*
X122494652Y-39409755D01*
X122953288Y-39267783D01*
X123290000Y-39085724D01*
X123290000Y-74388932D01*
X122896021Y-74189919D01*
X122430260Y-74059876D01*
X121948110Y-74022776D01*
X121467936Y-74080034D01*
X121008028Y-74229467D01*
X120585905Y-74465384D01*
X120217644Y-74778798D01*
X119917272Y-75157773D01*
X119696231Y-75587873D01*
X119562939Y-76052716D01*
X119522475Y-76534595D01*
X119576378Y-77015157D01*
X119722597Y-77476096D01*
X119895167Y-77790000D01*
X110852904Y-77790000D01*
X110915081Y-77701858D01*
X111021448Y-77462955D01*
X111079386Y-77207941D01*
X111083557Y-76909244D01*
X111032762Y-76652711D01*
X110933107Y-76410931D01*
X110788388Y-76193111D01*
X110604118Y-76007549D01*
X110387314Y-75861313D01*
X110166892Y-75768657D01*
X110354154Y-75696022D01*
X110574957Y-75555897D01*
X110764337Y-75375552D01*
X110915081Y-75161858D01*
X111021448Y-74922955D01*
X111079386Y-74667941D01*
X111083557Y-74369244D01*
X111032762Y-74112711D01*
X110933107Y-73870931D01*
X110788388Y-73653111D01*
X110604118Y-73467549D01*
X110387314Y-73321313D01*
X110328457Y-73296572D01*
X110448500Y-73296572D01*
X110549621Y-73288508D01*
X110642715Y-73259679D01*
X110642986Y-73260018D01*
X110646404Y-73266447D01*
X110727255Y-73365580D01*
X110807079Y-73465573D01*
X110817079Y-73475714D01*
X110817245Y-73475918D01*
X110817434Y-73476074D01*
X110820657Y-73479343D01*
X112774893Y-75433579D01*
X112770893Y-75452399D01*
X112765329Y-75850856D01*
X112837265Y-76242805D01*
X112983961Y-76613317D01*
X113199830Y-76948279D01*
X113476648Y-77234933D01*
X113803873Y-77462360D01*
X114169039Y-77621898D01*
X114558239Y-77707469D01*
X114956647Y-77715814D01*
X115349089Y-77646616D01*
X115720616Y-77502510D01*
X116057077Y-77288986D01*
X116345657Y-77014175D01*
X116575363Y-76688546D01*
X116737445Y-76324502D01*
X116825732Y-75935909D01*
X116832087Y-75480752D01*
X116754686Y-75089846D01*
X116602831Y-74721418D01*
X116382306Y-74389502D01*
X116101513Y-74106741D01*
X115771145Y-73883905D01*
X115403786Y-73729482D01*
X115013430Y-73649353D01*
X114907298Y-73648612D01*
X113532294Y-72273608D01*
X113803873Y-72462360D01*
X114169039Y-72621898D01*
X114558239Y-72707469D01*
X114956647Y-72715814D01*
X115349089Y-72646616D01*
X115720616Y-72502510D01*
X116057077Y-72288986D01*
X116345657Y-72014175D01*
X116575363Y-71688546D01*
X116737445Y-71324502D01*
X116825732Y-70935909D01*
X116832087Y-70480752D01*
X116754686Y-70089846D01*
X116602831Y-69721418D01*
X116382306Y-69389502D01*
X116101513Y-69106741D01*
X115771145Y-68883905D01*
X115403786Y-68729482D01*
X115013430Y-68649353D01*
X114614943Y-68646571D01*
X114223506Y-68721242D01*
X113854027Y-68870521D01*
X113520580Y-69088723D01*
X113235866Y-69367536D01*
X113010729Y-69696340D01*
X112853745Y-70062611D01*
X112845686Y-70100525D01*
X112792921Y-70034427D01*
X112782921Y-70024286D01*
X112782755Y-70024082D01*
X112782566Y-70023926D01*
X112779343Y-70020657D01*
X111079343Y-68320657D01*
X110980475Y-68239446D01*
X110882479Y-68157218D01*
X110876099Y-68153711D01*
X110870469Y-68149086D01*
X110757694Y-68088617D01*
X110645610Y-68026998D01*
X110638668Y-68024796D01*
X110632249Y-68021354D01*
X110509900Y-67983948D01*
X110387958Y-67945266D01*
X110380720Y-67944454D01*
X110373756Y-67942325D01*
X110246513Y-67929400D01*
X110119338Y-67915135D01*
X110105096Y-67915036D01*
X110104834Y-67915009D01*
X110104590Y-67915032D01*
X110100000Y-67915000D01*
X108073686Y-67915000D01*
X106834256Y-66675570D01*
X106881000Y-66675570D01*
X106881000Y-65417000D01*
X106861000Y-65417000D01*
X106861000Y-65163000D01*
X106881000Y-65163000D01*
X106881000Y-65143000D01*
X107135000Y-65143000D01*
X107135000Y-65163000D01*
X107155000Y-65163000D01*
X107155000Y-65417000D01*
X107135000Y-65417000D01*
X107135000Y-66675570D01*
X107507110Y-66675570D01*
X107774981Y-66624170D01*
X108027677Y-66521499D01*
X108255488Y-66371502D01*
X108379317Y-66249338D01*
X108387433Y-66259433D01*
X108594584Y-66433253D01*
X108831551Y-66563526D01*
X109089309Y-66645292D01*
X109358039Y-66675435D01*
X109377385Y-66675570D01*
X110138615Y-66675570D01*
X110407740Y-66649182D01*
X110666615Y-66571023D01*
X110905378Y-66444071D01*
X111114935Y-66273160D01*
X111287305Y-66064801D01*
X111415921Y-65826930D01*
X111458042Y-65690856D01*
X112765329Y-65690856D01*
X112837265Y-66082805D01*
X112983961Y-66453317D01*
X113199830Y-66788279D01*
X113476648Y-67074933D01*
X113803873Y-67302360D01*
X114169039Y-67461898D01*
X114558239Y-67547469D01*
X114956647Y-67555814D01*
X115349089Y-67486616D01*
X115720616Y-67342510D01*
X116057077Y-67128986D01*
X116345657Y-66854175D01*
X116575363Y-66528546D01*
X116737445Y-66164502D01*
X116825732Y-65775909D01*
X116832087Y-65320752D01*
X116754686Y-64929846D01*
X116602831Y-64561418D01*
X116382306Y-64229502D01*
X116101513Y-63946741D01*
X115771145Y-63723905D01*
X115403786Y-63569482D01*
X115013430Y-63489353D01*
X114614943Y-63486571D01*
X114223506Y-63561242D01*
X113854027Y-63710521D01*
X113520580Y-63928723D01*
X113235866Y-64207536D01*
X113010729Y-64536340D01*
X112853745Y-64902611D01*
X112770893Y-65292399D01*
X112765329Y-65690856D01*
X111458042Y-65690856D01*
X111495885Y-65568608D01*
X111524151Y-65299673D01*
X111499643Y-65030370D01*
X111423293Y-64770956D01*
X111298011Y-64531313D01*
X111128567Y-64320567D01*
X110921416Y-64146747D01*
X110689134Y-64019050D01*
X110905378Y-63904071D01*
X111114935Y-63733160D01*
X111287305Y-63524801D01*
X111415921Y-63286930D01*
X111495885Y-63028608D01*
X111524151Y-62759673D01*
X111499643Y-62490370D01*
X111423293Y-62230956D01*
X111298011Y-61991313D01*
X111128567Y-61780567D01*
X110921416Y-61606747D01*
X110687486Y-61478144D01*
X110777677Y-61441499D01*
X111005488Y-61291502D01*
X111199658Y-61099943D01*
X111352726Y-60874185D01*
X111430121Y-60690856D01*
X112765329Y-60690856D01*
X112837265Y-61082805D01*
X112983961Y-61453317D01*
X113199830Y-61788279D01*
X113476648Y-62074933D01*
X113803873Y-62302360D01*
X114169039Y-62461898D01*
X114558239Y-62547469D01*
X114956647Y-62555814D01*
X115349089Y-62486616D01*
X115720616Y-62342510D01*
X116057077Y-62128986D01*
X116345657Y-61854175D01*
X116575363Y-61528546D01*
X116737445Y-61164502D01*
X116825732Y-60775909D01*
X116832087Y-60320752D01*
X116754686Y-59929846D01*
X116602831Y-59561418D01*
X116382306Y-59229502D01*
X116101513Y-58946741D01*
X115771145Y-58723905D01*
X115403786Y-58569482D01*
X115013430Y-58489353D01*
X114614943Y-58486571D01*
X114223506Y-58561242D01*
X113854027Y-58710521D01*
X113520580Y-58928723D01*
X113235866Y-59207536D01*
X113010729Y-59536340D01*
X112853745Y-59902611D01*
X112770893Y-60292399D01*
X112765329Y-60690856D01*
X111430121Y-60690856D01*
X111458810Y-60622902D01*
X111472993Y-60551275D01*
X111350339Y-60337000D01*
X109885000Y-60337000D01*
X109885000Y-60357000D01*
X109631000Y-60357000D01*
X109631000Y-60337000D01*
X109611000Y-60337000D01*
X109611000Y-60083000D01*
X109631000Y-60083000D01*
X109631000Y-58824430D01*
X109885000Y-58824430D01*
X109885000Y-60083000D01*
X111350339Y-60083000D01*
X111472993Y-59868725D01*
X111458810Y-59797098D01*
X111352726Y-59545815D01*
X111199658Y-59320057D01*
X111005488Y-59128498D01*
X110777677Y-58978501D01*
X110524981Y-58875830D01*
X110257110Y-58824430D01*
X109885000Y-58824430D01*
X109631000Y-58824430D01*
X109258890Y-58824430D01*
X108991019Y-58875830D01*
X108738323Y-58978501D01*
X108510512Y-59128498D01*
X108386683Y-59250662D01*
X108378567Y-59240567D01*
X108171416Y-59066747D01*
X107934449Y-58936474D01*
X107676691Y-58854708D01*
X107407961Y-58824565D01*
X107388615Y-58824430D01*
X106627385Y-58824430D01*
X106358260Y-58850818D01*
X106099385Y-58928977D01*
X105860622Y-59055929D01*
X105651065Y-59226840D01*
X105478695Y-59435199D01*
X105470692Y-59450000D01*
X103302000Y-59450000D01*
X103232119Y-59456852D01*
X103162197Y-59462969D01*
X103158359Y-59464084D01*
X103154382Y-59464474D01*
X103087179Y-59484764D01*
X103019760Y-59504351D01*
X103016212Y-59506190D01*
X103012387Y-59507345D01*
X102950409Y-59540299D01*
X102888075Y-59572610D01*
X102884952Y-59575103D01*
X102881422Y-59576980D01*
X102827013Y-59621355D01*
X102772154Y-59665148D01*
X102766594Y-59670631D01*
X102766478Y-59670726D01*
X102766389Y-59670834D01*
X102764599Y-59672599D01*
X95418800Y-67018398D01*
X95418800Y-64406002D01*
X105407800Y-54417002D01*
X105415660Y-54417002D01*
X105293007Y-54631275D01*
X105307190Y-54702902D01*
X105413274Y-54954185D01*
X105566342Y-55179943D01*
X105760512Y-55371502D01*
X105988323Y-55521499D01*
X106241019Y-55624170D01*
X106508890Y-55675570D01*
X106881000Y-55675570D01*
X106881000Y-54417000D01*
X106861000Y-54417000D01*
X106861000Y-54163000D01*
X106881000Y-54163000D01*
X106881000Y-54143000D01*
X107135000Y-54143000D01*
X107135000Y-54163000D01*
X107155000Y-54163000D01*
X107155000Y-54417000D01*
X107135000Y-54417000D01*
X107135000Y-55675570D01*
X107507110Y-55675570D01*
X107774981Y-55624170D01*
X108027677Y-55521499D01*
X108255488Y-55371502D01*
X108379317Y-55249338D01*
X108387433Y-55259433D01*
X108594584Y-55433253D01*
X108831551Y-55563526D01*
X109089309Y-55645292D01*
X109358039Y-55675435D01*
X109377385Y-55675570D01*
X110138615Y-55675570D01*
X110407740Y-55649182D01*
X110666615Y-55571023D01*
X110905378Y-55444071D01*
X111114935Y-55273160D01*
X111287305Y-55064801D01*
X111415921Y-54826930D01*
X111495885Y-54568608D01*
X111524151Y-54299673D01*
X111499643Y-54030370D01*
X111423293Y-53770956D01*
X111360507Y-53650856D01*
X112765329Y-53650856D01*
X112837265Y-54042805D01*
X112983961Y-54413317D01*
X113199830Y-54748279D01*
X113476648Y-55034933D01*
X113803873Y-55262360D01*
X114169039Y-55421898D01*
X114558239Y-55507469D01*
X114956647Y-55515814D01*
X115349089Y-55446616D01*
X115720616Y-55302510D01*
X116057077Y-55088986D01*
X116345657Y-54814175D01*
X116575363Y-54488546D01*
X116737445Y-54124502D01*
X116825732Y-53735909D01*
X116832087Y-53280752D01*
X116754686Y-52889846D01*
X116602831Y-52521418D01*
X116382306Y-52189502D01*
X116101513Y-51906741D01*
X115771145Y-51683905D01*
X115403786Y-51529482D01*
X115013430Y-51449353D01*
X114614943Y-51446571D01*
X114223506Y-51521242D01*
X113854027Y-51670521D01*
X113520580Y-51888723D01*
X113235866Y-52167536D01*
X113010729Y-52496340D01*
X112853745Y-52862611D01*
X112770893Y-53252399D01*
X112765329Y-53650856D01*
X111360507Y-53650856D01*
X111298011Y-53531313D01*
X111128567Y-53320567D01*
X110921416Y-53146747D01*
X110689134Y-53019050D01*
X110905378Y-52904071D01*
X111114935Y-52733160D01*
X111287305Y-52524801D01*
X111415921Y-52286930D01*
X111495885Y-52028608D01*
X111524151Y-51759673D01*
X111499643Y-51490370D01*
X111423293Y-51230956D01*
X111298011Y-50991313D01*
X111128567Y-50780567D01*
X110921416Y-50606747D01*
X110687486Y-50478144D01*
X110777677Y-50441499D01*
X111005488Y-50291502D01*
X111199658Y-50099943D01*
X111352726Y-49874185D01*
X111458810Y-49622902D01*
X111472993Y-49551275D01*
X111350339Y-49337000D01*
X109885000Y-49337000D01*
X109885000Y-49357000D01*
X109631000Y-49357000D01*
X109631000Y-49337000D01*
X109611000Y-49337000D01*
X109611000Y-49083000D01*
X109631000Y-49083000D01*
X109631000Y-47824430D01*
X109258890Y-47824430D01*
X108991019Y-47875830D01*
X108738323Y-47978501D01*
X108510512Y-48128498D01*
X108386683Y-48250662D01*
X108378567Y-48240567D01*
X108171416Y-48066747D01*
X107934449Y-47936474D01*
X107676691Y-47854708D01*
X107407961Y-47824565D01*
X107388615Y-47824430D01*
X106627385Y-47824430D01*
X106358260Y-47850818D01*
X106099385Y-47928977D01*
X105860622Y-48055929D01*
X105651065Y-48226840D01*
X105478695Y-48435199D01*
X105350079Y-48673070D01*
X105270115Y-48931392D01*
X105241849Y-49200327D01*
X105266357Y-49469630D01*
X105342707Y-49729044D01*
X105467989Y-49968687D01*
X105637433Y-50179433D01*
X105844584Y-50353253D01*
X106076866Y-50480950D01*
X105860622Y-50595929D01*
X105651065Y-50766840D01*
X105478695Y-50975199D01*
X105350079Y-51213070D01*
X105270115Y-51471392D01*
X105241849Y-51740327D01*
X105266357Y-52009630D01*
X105342707Y-52269044D01*
X105379779Y-52339956D01*
X105336074Y-52362611D01*
X105332953Y-52365103D01*
X105329422Y-52366980D01*
X105275007Y-52411359D01*
X105220154Y-52455148D01*
X105214594Y-52460631D01*
X105214478Y-52460726D01*
X105214389Y-52460834D01*
X105212599Y-52462599D01*
X94849672Y-62825526D01*
X94849672Y-57504900D01*
X94841608Y-57403779D01*
X94792216Y-57244284D01*
X94824410Y-57172863D01*
X94849672Y-56995100D01*
X94849672Y-46504900D01*
X94841608Y-46403779D01*
X94792216Y-46244284D01*
X94824410Y-46172863D01*
X94849672Y-45995100D01*
X94849672Y-38828617D01*
X100813771Y-38828617D01*
X100846872Y-39008968D01*
X100914372Y-39179454D01*
X100990000Y-39296806D01*
X100990000Y-51000000D01*
X100996851Y-51069877D01*
X101002969Y-51139803D01*
X101004084Y-51143641D01*
X101004474Y-51147618D01*
X101024764Y-51214821D01*
X101044351Y-51282240D01*
X101046190Y-51285788D01*
X101047345Y-51289613D01*
X101080299Y-51351591D01*
X101112610Y-51413925D01*
X101115103Y-51417048D01*
X101116980Y-51420578D01*
X101161355Y-51474987D01*
X101205148Y-51529846D01*
X101210631Y-51535406D01*
X101210726Y-51535522D01*
X101210834Y-51535611D01*
X101212599Y-51537401D01*
X102327249Y-52652051D01*
X102346872Y-52758968D01*
X102414372Y-52929454D01*
X102513701Y-53083583D01*
X102641076Y-53215484D01*
X102791644Y-53320131D01*
X102959671Y-53393540D01*
X103138757Y-53432915D01*
X103322079Y-53436755D01*
X103502657Y-53404914D01*
X103673610Y-53338606D01*
X103828429Y-53240355D01*
X103961215Y-53113904D01*
X104066911Y-52964070D01*
X104141492Y-52796560D01*
X104182116Y-52617754D01*
X104185040Y-52408319D01*
X104149425Y-52228448D01*
X104079550Y-52058920D01*
X103978079Y-51906193D01*
X103848875Y-51776084D01*
X103696860Y-51673549D01*
X103527825Y-51602493D01*
X103401329Y-51576527D01*
X102510000Y-50685198D01*
X102510000Y-43631275D01*
X105293007Y-43631275D01*
X105307190Y-43702902D01*
X105413274Y-43954185D01*
X105566342Y-44179943D01*
X105760512Y-44371502D01*
X105988323Y-44521499D01*
X106241019Y-44624170D01*
X106508890Y-44675570D01*
X106881000Y-44675570D01*
X106881000Y-43417000D01*
X105415661Y-43417000D01*
X105293007Y-43631275D01*
X102510000Y-43631275D01*
X102510000Y-39294747D01*
X102566911Y-39214070D01*
X102641492Y-39046560D01*
X102682116Y-38867754D01*
X102685040Y-38658319D01*
X102649425Y-38478448D01*
X102579550Y-38308920D01*
X102507402Y-38200327D01*
X105241849Y-38200327D01*
X105266357Y-38469630D01*
X105342707Y-38729044D01*
X105467989Y-38968687D01*
X105637433Y-39179433D01*
X105844584Y-39353253D01*
X106076866Y-39480950D01*
X105860622Y-39595929D01*
X105651065Y-39766840D01*
X105478695Y-39975199D01*
X105350079Y-40213070D01*
X105270115Y-40471392D01*
X105241849Y-40740327D01*
X105266357Y-41009630D01*
X105342707Y-41269044D01*
X105467989Y-41508687D01*
X105637433Y-41719433D01*
X105844584Y-41893253D01*
X106078514Y-42021856D01*
X105988323Y-42058501D01*
X105760512Y-42208498D01*
X105566342Y-42400057D01*
X105413274Y-42625815D01*
X105307190Y-42877098D01*
X105293007Y-42948725D01*
X105415661Y-43163000D01*
X106881000Y-43163000D01*
X106881000Y-43143000D01*
X107135000Y-43143000D01*
X107135000Y-43163000D01*
X107155000Y-43163000D01*
X107155000Y-43417000D01*
X107135000Y-43417000D01*
X107135000Y-44675570D01*
X107507110Y-44675570D01*
X107774981Y-44624170D01*
X108027677Y-44521499D01*
X108255488Y-44371502D01*
X108379317Y-44249338D01*
X108387433Y-44259433D01*
X108490000Y-44345497D01*
X108490000Y-46500000D01*
X108496925Y-46570623D01*
X108503239Y-46641236D01*
X108504155Y-46644367D01*
X108504474Y-46647618D01*
X108524984Y-46715551D01*
X108544894Y-46783593D01*
X108546401Y-46786487D01*
X108547345Y-46789613D01*
X108580653Y-46852257D01*
X108613406Y-46915148D01*
X108615447Y-46917694D01*
X108616980Y-46920578D01*
X108661836Y-46975577D01*
X108706166Y-47030890D01*
X108708662Y-47032991D01*
X108710726Y-47035522D01*
X108765407Y-47080758D01*
X108819640Y-47126411D01*
X108824867Y-47129948D01*
X108825013Y-47130069D01*
X108825175Y-47130156D01*
X108828428Y-47132358D01*
X109875033Y-47830095D01*
X109885000Y-47855269D01*
X109885000Y-49083000D01*
X111350339Y-49083000D01*
X111472993Y-48868725D01*
X111458810Y-48797098D01*
X111397072Y-48650856D01*
X112765329Y-48650856D01*
X112837265Y-49042805D01*
X112983961Y-49413317D01*
X113199830Y-49748279D01*
X113476648Y-50034933D01*
X113803873Y-50262360D01*
X114169039Y-50421898D01*
X114558239Y-50507469D01*
X114956647Y-50515814D01*
X115349089Y-50446616D01*
X115720616Y-50302510D01*
X116057077Y-50088986D01*
X116345657Y-49814175D01*
X116575363Y-49488546D01*
X116737445Y-49124502D01*
X116825732Y-48735909D01*
X116832087Y-48280752D01*
X116754686Y-47889846D01*
X116602831Y-47521418D01*
X116382306Y-47189502D01*
X116101513Y-46906741D01*
X115771145Y-46683905D01*
X115403786Y-46529482D01*
X115013430Y-46449353D01*
X114614943Y-46446571D01*
X114223506Y-46521242D01*
X113854027Y-46670521D01*
X113520580Y-46888723D01*
X113235866Y-47167536D01*
X113010729Y-47496340D01*
X112853745Y-47862611D01*
X112770893Y-48252399D01*
X112765329Y-48650856D01*
X111397072Y-48650856D01*
X111352726Y-48545815D01*
X111200615Y-48321468D01*
X111328429Y-48240355D01*
X111461215Y-48113904D01*
X111566911Y-47964070D01*
X111641492Y-47796560D01*
X111682116Y-47617754D01*
X111685040Y-47408319D01*
X111649425Y-47228448D01*
X111579550Y-47058920D01*
X111478079Y-46906193D01*
X111348875Y-46776084D01*
X111196860Y-46673549D01*
X111027825Y-46602493D01*
X110848207Y-46565623D01*
X110717171Y-46564708D01*
X110010000Y-46093261D01*
X110010000Y-44675570D01*
X110138615Y-44675570D01*
X110407740Y-44649182D01*
X110666615Y-44571023D01*
X110905378Y-44444071D01*
X111114935Y-44273160D01*
X111287305Y-44064801D01*
X111415921Y-43826930D01*
X111495885Y-43568608D01*
X111504057Y-43490856D01*
X112765329Y-43490856D01*
X112837265Y-43882805D01*
X112983961Y-44253317D01*
X113199830Y-44588279D01*
X113476648Y-44874933D01*
X113803873Y-45102360D01*
X114169039Y-45261898D01*
X114558239Y-45347469D01*
X114956647Y-45355814D01*
X115349089Y-45286616D01*
X115720616Y-45142510D01*
X116057077Y-44928986D01*
X116345657Y-44654175D01*
X116575363Y-44328546D01*
X116737445Y-43964502D01*
X116825732Y-43575909D01*
X116832087Y-43120752D01*
X116754686Y-42729846D01*
X116602831Y-42361418D01*
X116382306Y-42029502D01*
X116101513Y-41746741D01*
X115771145Y-41523905D01*
X115403786Y-41369482D01*
X115013430Y-41289353D01*
X114614943Y-41286571D01*
X114223506Y-41361242D01*
X113854027Y-41510521D01*
X113520580Y-41728723D01*
X113235866Y-42007536D01*
X113010729Y-42336340D01*
X112853745Y-42702611D01*
X112770893Y-43092399D01*
X112765329Y-43490856D01*
X111504057Y-43490856D01*
X111524151Y-43299673D01*
X111499643Y-43030370D01*
X111423293Y-42770956D01*
X111298011Y-42531313D01*
X111128567Y-42320567D01*
X110921416Y-42146747D01*
X110689134Y-42019050D01*
X110905378Y-41904071D01*
X111114935Y-41733160D01*
X111287305Y-41524801D01*
X111415921Y-41286930D01*
X111495885Y-41028608D01*
X111524151Y-40759673D01*
X111499643Y-40490370D01*
X111423293Y-40230956D01*
X111298011Y-39991313D01*
X111128567Y-39780567D01*
X110921416Y-39606747D01*
X110687486Y-39478144D01*
X110777677Y-39441499D01*
X111005488Y-39291502D01*
X111199658Y-39099943D01*
X111352726Y-38874185D01*
X111458810Y-38622902D01*
X111472993Y-38551275D01*
X111438409Y-38490856D01*
X112765329Y-38490856D01*
X112837265Y-38882805D01*
X112983961Y-39253317D01*
X113199830Y-39588279D01*
X113476648Y-39874933D01*
X113803873Y-40102360D01*
X114169039Y-40261898D01*
X114558239Y-40347469D01*
X114956647Y-40355814D01*
X115349089Y-40286616D01*
X115720616Y-40142510D01*
X116057077Y-39928986D01*
X116345657Y-39654175D01*
X116575363Y-39328546D01*
X116737445Y-38964502D01*
X116825732Y-38575909D01*
X116832087Y-38120752D01*
X116754686Y-37729846D01*
X116602831Y-37361418D01*
X116382306Y-37029502D01*
X116101513Y-36746741D01*
X115771145Y-36523905D01*
X115403786Y-36369482D01*
X115013430Y-36289353D01*
X114614943Y-36286571D01*
X114223506Y-36361242D01*
X113854027Y-36510521D01*
X113520580Y-36728723D01*
X113235866Y-37007536D01*
X113010729Y-37336340D01*
X112853745Y-37702611D01*
X112770893Y-38092399D01*
X112765329Y-38490856D01*
X111438409Y-38490856D01*
X111350339Y-38337000D01*
X109885000Y-38337000D01*
X109885000Y-38357000D01*
X109631000Y-38357000D01*
X109631000Y-38337000D01*
X109611000Y-38337000D01*
X109611000Y-38083000D01*
X109631000Y-38083000D01*
X109631000Y-36824430D01*
X109885000Y-36824430D01*
X109885000Y-38083000D01*
X111350339Y-38083000D01*
X111472993Y-37868725D01*
X111458810Y-37797098D01*
X111352726Y-37545815D01*
X111199658Y-37320057D01*
X111005488Y-37128498D01*
X110777677Y-36978501D01*
X110524981Y-36875830D01*
X110257110Y-36824430D01*
X109885000Y-36824430D01*
X109631000Y-36824430D01*
X109258890Y-36824430D01*
X108991019Y-36875830D01*
X108738323Y-36978501D01*
X108510512Y-37128498D01*
X108386683Y-37250662D01*
X108378567Y-37240567D01*
X108171416Y-37066747D01*
X107934449Y-36936474D01*
X107676691Y-36854708D01*
X107407961Y-36824565D01*
X107388615Y-36824430D01*
X106627385Y-36824430D01*
X106358260Y-36850818D01*
X106099385Y-36928977D01*
X105860622Y-37055929D01*
X105651065Y-37226840D01*
X105478695Y-37435199D01*
X105350079Y-37673070D01*
X105270115Y-37931392D01*
X105241849Y-38200327D01*
X102507402Y-38200327D01*
X102478079Y-38156193D01*
X102348875Y-38026084D01*
X102196860Y-37923549D01*
X102027825Y-37852493D01*
X101848207Y-37815623D01*
X101664849Y-37814343D01*
X101484733Y-37848701D01*
X101314722Y-37917390D01*
X101161291Y-38017793D01*
X101030283Y-38146086D01*
X100926689Y-38297381D01*
X100854454Y-38465916D01*
X100816331Y-38645272D01*
X100813771Y-38828617D01*
X94849672Y-38828617D01*
X94849672Y-35710000D01*
X119910312Y-35710000D01*
X119712750Y-36094414D01*
X119712750Y-36094414D01*
G37*
X119712750Y-36094414D02*
X119580414Y-36555923D01*
X119540240Y-37034347D01*
X119593757Y-37511463D01*
X119738927Y-37969097D01*
X119970221Y-38389819D01*
X120278828Y-38757603D01*
X120652994Y-39058440D01*
X121078468Y-39280872D01*
X121539042Y-39416427D01*
X122017174Y-39459940D01*
X122494652Y-39409755D01*
X122953288Y-39267783D01*
X123290000Y-39085724D01*
X123290000Y-74388932D01*
X122896021Y-74189919D01*
X122430260Y-74059876D01*
X121948110Y-74022776D01*
X121467936Y-74080034D01*
X121008028Y-74229467D01*
X120585905Y-74465384D01*
X120217644Y-74778798D01*
X119917272Y-75157773D01*
X119696231Y-75587873D01*
X119562939Y-76052716D01*
X119522475Y-76534595D01*
X119576378Y-77015157D01*
X119722597Y-77476096D01*
X119895167Y-77790000D01*
X110852904Y-77790000D01*
X110915081Y-77701858D01*
X111021448Y-77462955D01*
X111079386Y-77207941D01*
X111083557Y-76909244D01*
X111032762Y-76652711D01*
X110933107Y-76410931D01*
X110788388Y-76193111D01*
X110604118Y-76007549D01*
X110387314Y-75861313D01*
X110166892Y-75768657D01*
X110354154Y-75696022D01*
X110574957Y-75555897D01*
X110764337Y-75375552D01*
X110915081Y-75161858D01*
X111021448Y-74922955D01*
X111079386Y-74667941D01*
X111083557Y-74369244D01*
X111032762Y-74112711D01*
X110933107Y-73870931D01*
X110788388Y-73653111D01*
X110604118Y-73467549D01*
X110387314Y-73321313D01*
X110328457Y-73296572D01*
X110448500Y-73296572D01*
X110549621Y-73288508D01*
X110642715Y-73259679D01*
X110642986Y-73260018D01*
X110646404Y-73266447D01*
X110727255Y-73365580D01*
X110807079Y-73465573D01*
X110817079Y-73475714D01*
X110817245Y-73475918D01*
X110817434Y-73476074D01*
X110820657Y-73479343D01*
X112774893Y-75433579D01*
X112770893Y-75452399D01*
X112765329Y-75850856D01*
X112837265Y-76242805D01*
X112983961Y-76613317D01*
X113199830Y-76948279D01*
X113476648Y-77234933D01*
X113803873Y-77462360D01*
X114169039Y-77621898D01*
X114558239Y-77707469D01*
X114956647Y-77715814D01*
X115349089Y-77646616D01*
X115720616Y-77502510D01*
X116057077Y-77288986D01*
X116345657Y-77014175D01*
X116575363Y-76688546D01*
X116737445Y-76324502D01*
X116825732Y-75935909D01*
X116832087Y-75480752D01*
X116754686Y-75089846D01*
X116602831Y-74721418D01*
X116382306Y-74389502D01*
X116101513Y-74106741D01*
X115771145Y-73883905D01*
X115403786Y-73729482D01*
X115013430Y-73649353D01*
X114907298Y-73648612D01*
X113532294Y-72273608D01*
X113803873Y-72462360D01*
X114169039Y-72621898D01*
X114558239Y-72707469D01*
X114956647Y-72715814D01*
X115349089Y-72646616D01*
X115720616Y-72502510D01*
X116057077Y-72288986D01*
X116345657Y-72014175D01*
X116575363Y-71688546D01*
X116737445Y-71324502D01*
X116825732Y-70935909D01*
X116832087Y-70480752D01*
X116754686Y-70089846D01*
X116602831Y-69721418D01*
X116382306Y-69389502D01*
X116101513Y-69106741D01*
X115771145Y-68883905D01*
X115403786Y-68729482D01*
X115013430Y-68649353D01*
X114614943Y-68646571D01*
X114223506Y-68721242D01*
X113854027Y-68870521D01*
X113520580Y-69088723D01*
X113235866Y-69367536D01*
X113010729Y-69696340D01*
X112853745Y-70062611D01*
X112845686Y-70100525D01*
X112792921Y-70034427D01*
X112782921Y-70024286D01*
X112782755Y-70024082D01*
X112782566Y-70023926D01*
X112779343Y-70020657D01*
X111079343Y-68320657D01*
X110980475Y-68239446D01*
X110882479Y-68157218D01*
X110876099Y-68153711D01*
X110870469Y-68149086D01*
X110757694Y-68088617D01*
X110645610Y-68026998D01*
X110638668Y-68024796D01*
X110632249Y-68021354D01*
X110509900Y-67983948D01*
X110387958Y-67945266D01*
X110380720Y-67944454D01*
X110373756Y-67942325D01*
X110246513Y-67929400D01*
X110119338Y-67915135D01*
X110105096Y-67915036D01*
X110104834Y-67915009D01*
X110104590Y-67915032D01*
X110100000Y-67915000D01*
X108073686Y-67915000D01*
X106834256Y-66675570D01*
X106881000Y-66675570D01*
X106881000Y-65417000D01*
X106861000Y-65417000D01*
X106861000Y-65163000D01*
X106881000Y-65163000D01*
X106881000Y-65143000D01*
X107135000Y-65143000D01*
X107135000Y-65163000D01*
X107155000Y-65163000D01*
X107155000Y-65417000D01*
X107135000Y-65417000D01*
X107135000Y-66675570D01*
X107507110Y-66675570D01*
X107774981Y-66624170D01*
X108027677Y-66521499D01*
X108255488Y-66371502D01*
X108379317Y-66249338D01*
X108387433Y-66259433D01*
X108594584Y-66433253D01*
X108831551Y-66563526D01*
X109089309Y-66645292D01*
X109358039Y-66675435D01*
X109377385Y-66675570D01*
X110138615Y-66675570D01*
X110407740Y-66649182D01*
X110666615Y-66571023D01*
X110905378Y-66444071D01*
X111114935Y-66273160D01*
X111287305Y-66064801D01*
X111415921Y-65826930D01*
X111458042Y-65690856D01*
X112765329Y-65690856D01*
X112837265Y-66082805D01*
X112983961Y-66453317D01*
X113199830Y-66788279D01*
X113476648Y-67074933D01*
X113803873Y-67302360D01*
X114169039Y-67461898D01*
X114558239Y-67547469D01*
X114956647Y-67555814D01*
X115349089Y-67486616D01*
X115720616Y-67342510D01*
X116057077Y-67128986D01*
X116345657Y-66854175D01*
X116575363Y-66528546D01*
X116737445Y-66164502D01*
X116825732Y-65775909D01*
X116832087Y-65320752D01*
X116754686Y-64929846D01*
X116602831Y-64561418D01*
X116382306Y-64229502D01*
X116101513Y-63946741D01*
X115771145Y-63723905D01*
X115403786Y-63569482D01*
X115013430Y-63489353D01*
X114614943Y-63486571D01*
X114223506Y-63561242D01*
X113854027Y-63710521D01*
X113520580Y-63928723D01*
X113235866Y-64207536D01*
X113010729Y-64536340D01*
X112853745Y-64902611D01*
X112770893Y-65292399D01*
X112765329Y-65690856D01*
X111458042Y-65690856D01*
X111495885Y-65568608D01*
X111524151Y-65299673D01*
X111499643Y-65030370D01*
X111423293Y-64770956D01*
X111298011Y-64531313D01*
X111128567Y-64320567D01*
X110921416Y-64146747D01*
X110689134Y-64019050D01*
X110905378Y-63904071D01*
X111114935Y-63733160D01*
X111287305Y-63524801D01*
X111415921Y-63286930D01*
X111495885Y-63028608D01*
X111524151Y-62759673D01*
X111499643Y-62490370D01*
X111423293Y-62230956D01*
X111298011Y-61991313D01*
X111128567Y-61780567D01*
X110921416Y-61606747D01*
X110687486Y-61478144D01*
X110777677Y-61441499D01*
X111005488Y-61291502D01*
X111199658Y-61099943D01*
X111352726Y-60874185D01*
X111430121Y-60690856D01*
X112765329Y-60690856D01*
X112837265Y-61082805D01*
X112983961Y-61453317D01*
X113199830Y-61788279D01*
X113476648Y-62074933D01*
X113803873Y-62302360D01*
X114169039Y-62461898D01*
X114558239Y-62547469D01*
X114956647Y-62555814D01*
X115349089Y-62486616D01*
X115720616Y-62342510D01*
X116057077Y-62128986D01*
X116345657Y-61854175D01*
X116575363Y-61528546D01*
X116737445Y-61164502D01*
X116825732Y-60775909D01*
X116832087Y-60320752D01*
X116754686Y-59929846D01*
X116602831Y-59561418D01*
X116382306Y-59229502D01*
X116101513Y-58946741D01*
X115771145Y-58723905D01*
X115403786Y-58569482D01*
X115013430Y-58489353D01*
X114614943Y-58486571D01*
X114223506Y-58561242D01*
X113854027Y-58710521D01*
X113520580Y-58928723D01*
X113235866Y-59207536D01*
X113010729Y-59536340D01*
X112853745Y-59902611D01*
X112770893Y-60292399D01*
X112765329Y-60690856D01*
X111430121Y-60690856D01*
X111458810Y-60622902D01*
X111472993Y-60551275D01*
X111350339Y-60337000D01*
X109885000Y-60337000D01*
X109885000Y-60357000D01*
X109631000Y-60357000D01*
X109631000Y-60337000D01*
X109611000Y-60337000D01*
X109611000Y-60083000D01*
X109631000Y-60083000D01*
X109631000Y-58824430D01*
X109885000Y-58824430D01*
X109885000Y-60083000D01*
X111350339Y-60083000D01*
X111472993Y-59868725D01*
X111458810Y-59797098D01*
X111352726Y-59545815D01*
X111199658Y-59320057D01*
X111005488Y-59128498D01*
X110777677Y-58978501D01*
X110524981Y-58875830D01*
X110257110Y-58824430D01*
X109885000Y-58824430D01*
X109631000Y-58824430D01*
X109258890Y-58824430D01*
X108991019Y-58875830D01*
X108738323Y-58978501D01*
X108510512Y-59128498D01*
X108386683Y-59250662D01*
X108378567Y-59240567D01*
X108171416Y-59066747D01*
X107934449Y-58936474D01*
X107676691Y-58854708D01*
X107407961Y-58824565D01*
X107388615Y-58824430D01*
X106627385Y-58824430D01*
X106358260Y-58850818D01*
X106099385Y-58928977D01*
X105860622Y-59055929D01*
X105651065Y-59226840D01*
X105478695Y-59435199D01*
X105470692Y-59450000D01*
X103302000Y-59450000D01*
X103232119Y-59456852D01*
X103162197Y-59462969D01*
X103158359Y-59464084D01*
X103154382Y-59464474D01*
X103087179Y-59484764D01*
X103019760Y-59504351D01*
X103016212Y-59506190D01*
X103012387Y-59507345D01*
X102950409Y-59540299D01*
X102888075Y-59572610D01*
X102884952Y-59575103D01*
X102881422Y-59576980D01*
X102827013Y-59621355D01*
X102772154Y-59665148D01*
X102766594Y-59670631D01*
X102766478Y-59670726D01*
X102766389Y-59670834D01*
X102764599Y-59672599D01*
X95418800Y-67018398D01*
X95418800Y-64406002D01*
X105407800Y-54417002D01*
X105415660Y-54417002D01*
X105293007Y-54631275D01*
X105307190Y-54702902D01*
X105413274Y-54954185D01*
X105566342Y-55179943D01*
X105760512Y-55371502D01*
X105988323Y-55521499D01*
X106241019Y-55624170D01*
X106508890Y-55675570D01*
X106881000Y-55675570D01*
X106881000Y-54417000D01*
X106861000Y-54417000D01*
X106861000Y-54163000D01*
X106881000Y-54163000D01*
X106881000Y-54143000D01*
X107135000Y-54143000D01*
X107135000Y-54163000D01*
X107155000Y-54163000D01*
X107155000Y-54417000D01*
X107135000Y-54417000D01*
X107135000Y-55675570D01*
X107507110Y-55675570D01*
X107774981Y-55624170D01*
X108027677Y-55521499D01*
X108255488Y-55371502D01*
X108379317Y-55249338D01*
X108387433Y-55259433D01*
X108594584Y-55433253D01*
X108831551Y-55563526D01*
X109089309Y-55645292D01*
X109358039Y-55675435D01*
X109377385Y-55675570D01*
X110138615Y-55675570D01*
X110407740Y-55649182D01*
X110666615Y-55571023D01*
X110905378Y-55444071D01*
X111114935Y-55273160D01*
X111287305Y-55064801D01*
X111415921Y-54826930D01*
X111495885Y-54568608D01*
X111524151Y-54299673D01*
X111499643Y-54030370D01*
X111423293Y-53770956D01*
X111360507Y-53650856D01*
X112765329Y-53650856D01*
X112837265Y-54042805D01*
X112983961Y-54413317D01*
X113199830Y-54748279D01*
X113476648Y-55034933D01*
X113803873Y-55262360D01*
X114169039Y-55421898D01*
X114558239Y-55507469D01*
X114956647Y-55515814D01*
X115349089Y-55446616D01*
X115720616Y-55302510D01*
X116057077Y-55088986D01*
X116345657Y-54814175D01*
X116575363Y-54488546D01*
X116737445Y-54124502D01*
X116825732Y-53735909D01*
X116832087Y-53280752D01*
X116754686Y-52889846D01*
X116602831Y-52521418D01*
X116382306Y-52189502D01*
X116101513Y-51906741D01*
X115771145Y-51683905D01*
X115403786Y-51529482D01*
X115013430Y-51449353D01*
X114614943Y-51446571D01*
X114223506Y-51521242D01*
X113854027Y-51670521D01*
X113520580Y-51888723D01*
X113235866Y-52167536D01*
X113010729Y-52496340D01*
X112853745Y-52862611D01*
X112770893Y-53252399D01*
X112765329Y-53650856D01*
X111360507Y-53650856D01*
X111298011Y-53531313D01*
X111128567Y-53320567D01*
X110921416Y-53146747D01*
X110689134Y-53019050D01*
X110905378Y-52904071D01*
X111114935Y-52733160D01*
X111287305Y-52524801D01*
X111415921Y-52286930D01*
X111495885Y-52028608D01*
X111524151Y-51759673D01*
X111499643Y-51490370D01*
X111423293Y-51230956D01*
X111298011Y-50991313D01*
X111128567Y-50780567D01*
X110921416Y-50606747D01*
X110687486Y-50478144D01*
X110777677Y-50441499D01*
X111005488Y-50291502D01*
X111199658Y-50099943D01*
X111352726Y-49874185D01*
X111458810Y-49622902D01*
X111472993Y-49551275D01*
X111350339Y-49337000D01*
X109885000Y-49337000D01*
X109885000Y-49357000D01*
X109631000Y-49357000D01*
X109631000Y-49337000D01*
X109611000Y-49337000D01*
X109611000Y-49083000D01*
X109631000Y-49083000D01*
X109631000Y-47824430D01*
X109258890Y-47824430D01*
X108991019Y-47875830D01*
X108738323Y-47978501D01*
X108510512Y-48128498D01*
X108386683Y-48250662D01*
X108378567Y-48240567D01*
X108171416Y-48066747D01*
X107934449Y-47936474D01*
X107676691Y-47854708D01*
X107407961Y-47824565D01*
X107388615Y-47824430D01*
X106627385Y-47824430D01*
X106358260Y-47850818D01*
X106099385Y-47928977D01*
X105860622Y-48055929D01*
X105651065Y-48226840D01*
X105478695Y-48435199D01*
X105350079Y-48673070D01*
X105270115Y-48931392D01*
X105241849Y-49200327D01*
X105266357Y-49469630D01*
X105342707Y-49729044D01*
X105467989Y-49968687D01*
X105637433Y-50179433D01*
X105844584Y-50353253D01*
X106076866Y-50480950D01*
X105860622Y-50595929D01*
X105651065Y-50766840D01*
X105478695Y-50975199D01*
X105350079Y-51213070D01*
X105270115Y-51471392D01*
X105241849Y-51740327D01*
X105266357Y-52009630D01*
X105342707Y-52269044D01*
X105379779Y-52339956D01*
X105336074Y-52362611D01*
X105332953Y-52365103D01*
X105329422Y-52366980D01*
X105275007Y-52411359D01*
X105220154Y-52455148D01*
X105214594Y-52460631D01*
X105214478Y-52460726D01*
X105214389Y-52460834D01*
X105212599Y-52462599D01*
X94849672Y-62825526D01*
X94849672Y-57504900D01*
X94841608Y-57403779D01*
X94792216Y-57244284D01*
X94824410Y-57172863D01*
X94849672Y-56995100D01*
X94849672Y-46504900D01*
X94841608Y-46403779D01*
X94792216Y-46244284D01*
X94824410Y-46172863D01*
X94849672Y-45995100D01*
X94849672Y-38828617D01*
X100813771Y-38828617D01*
X100846872Y-39008968D01*
X100914372Y-39179454D01*
X100990000Y-39296806D01*
X100990000Y-51000000D01*
X100996851Y-51069877D01*
X101002969Y-51139803D01*
X101004084Y-51143641D01*
X101004474Y-51147618D01*
X101024764Y-51214821D01*
X101044351Y-51282240D01*
X101046190Y-51285788D01*
X101047345Y-51289613D01*
X101080299Y-51351591D01*
X101112610Y-51413925D01*
X101115103Y-51417048D01*
X101116980Y-51420578D01*
X101161355Y-51474987D01*
X101205148Y-51529846D01*
X101210631Y-51535406D01*
X101210726Y-51535522D01*
X101210834Y-51535611D01*
X101212599Y-51537401D01*
X102327249Y-52652051D01*
X102346872Y-52758968D01*
X102414372Y-52929454D01*
X102513701Y-53083583D01*
X102641076Y-53215484D01*
X102791644Y-53320131D01*
X102959671Y-53393540D01*
X103138757Y-53432915D01*
X103322079Y-53436755D01*
X103502657Y-53404914D01*
X103673610Y-53338606D01*
X103828429Y-53240355D01*
X103961215Y-53113904D01*
X104066911Y-52964070D01*
X104141492Y-52796560D01*
X104182116Y-52617754D01*
X104185040Y-52408319D01*
X104149425Y-52228448D01*
X104079550Y-52058920D01*
X103978079Y-51906193D01*
X103848875Y-51776084D01*
X103696860Y-51673549D01*
X103527825Y-51602493D01*
X103401329Y-51576527D01*
X102510000Y-50685198D01*
X102510000Y-43631275D01*
X105293007Y-43631275D01*
X105307190Y-43702902D01*
X105413274Y-43954185D01*
X105566342Y-44179943D01*
X105760512Y-44371502D01*
X105988323Y-44521499D01*
X106241019Y-44624170D01*
X106508890Y-44675570D01*
X106881000Y-44675570D01*
X106881000Y-43417000D01*
X105415661Y-43417000D01*
X105293007Y-43631275D01*
X102510000Y-43631275D01*
X102510000Y-39294747D01*
X102566911Y-39214070D01*
X102641492Y-39046560D01*
X102682116Y-38867754D01*
X102685040Y-38658319D01*
X102649425Y-38478448D01*
X102579550Y-38308920D01*
X102507402Y-38200327D01*
X105241849Y-38200327D01*
X105266357Y-38469630D01*
X105342707Y-38729044D01*
X105467989Y-38968687D01*
X105637433Y-39179433D01*
X105844584Y-39353253D01*
X106076866Y-39480950D01*
X105860622Y-39595929D01*
X105651065Y-39766840D01*
X105478695Y-39975199D01*
X105350079Y-40213070D01*
X105270115Y-40471392D01*
X105241849Y-40740327D01*
X105266357Y-41009630D01*
X105342707Y-41269044D01*
X105467989Y-41508687D01*
X105637433Y-41719433D01*
X105844584Y-41893253D01*
X106078514Y-42021856D01*
X105988323Y-42058501D01*
X105760512Y-42208498D01*
X105566342Y-42400057D01*
X105413274Y-42625815D01*
X105307190Y-42877098D01*
X105293007Y-42948725D01*
X105415661Y-43163000D01*
X106881000Y-43163000D01*
X106881000Y-43143000D01*
X107135000Y-43143000D01*
X107135000Y-43163000D01*
X107155000Y-43163000D01*
X107155000Y-43417000D01*
X107135000Y-43417000D01*
X107135000Y-44675570D01*
X107507110Y-44675570D01*
X107774981Y-44624170D01*
X108027677Y-44521499D01*
X108255488Y-44371502D01*
X108379317Y-44249338D01*
X108387433Y-44259433D01*
X108490000Y-44345497D01*
X108490000Y-46500000D01*
X108496925Y-46570623D01*
X108503239Y-46641236D01*
X108504155Y-46644367D01*
X108504474Y-46647618D01*
X108524984Y-46715551D01*
X108544894Y-46783593D01*
X108546401Y-46786487D01*
X108547345Y-46789613D01*
X108580653Y-46852257D01*
X108613406Y-46915148D01*
X108615447Y-46917694D01*
X108616980Y-46920578D01*
X108661836Y-46975577D01*
X108706166Y-47030890D01*
X108708662Y-47032991D01*
X108710726Y-47035522D01*
X108765407Y-47080758D01*
X108819640Y-47126411D01*
X108824867Y-47129948D01*
X108825013Y-47130069D01*
X108825175Y-47130156D01*
X108828428Y-47132358D01*
X109875033Y-47830095D01*
X109885000Y-47855269D01*
X109885000Y-49083000D01*
X111350339Y-49083000D01*
X111472993Y-48868725D01*
X111458810Y-48797098D01*
X111397072Y-48650856D01*
X112765329Y-48650856D01*
X112837265Y-49042805D01*
X112983961Y-49413317D01*
X113199830Y-49748279D01*
X113476648Y-50034933D01*
X113803873Y-50262360D01*
X114169039Y-50421898D01*
X114558239Y-50507469D01*
X114956647Y-50515814D01*
X115349089Y-50446616D01*
X115720616Y-50302510D01*
X116057077Y-50088986D01*
X116345657Y-49814175D01*
X116575363Y-49488546D01*
X116737445Y-49124502D01*
X116825732Y-48735909D01*
X116832087Y-48280752D01*
X116754686Y-47889846D01*
X116602831Y-47521418D01*
X116382306Y-47189502D01*
X116101513Y-46906741D01*
X115771145Y-46683905D01*
X115403786Y-46529482D01*
X115013430Y-46449353D01*
X114614943Y-46446571D01*
X114223506Y-46521242D01*
X113854027Y-46670521D01*
X113520580Y-46888723D01*
X113235866Y-47167536D01*
X113010729Y-47496340D01*
X112853745Y-47862611D01*
X112770893Y-48252399D01*
X112765329Y-48650856D01*
X111397072Y-48650856D01*
X111352726Y-48545815D01*
X111200615Y-48321468D01*
X111328429Y-48240355D01*
X111461215Y-48113904D01*
X111566911Y-47964070D01*
X111641492Y-47796560D01*
X111682116Y-47617754D01*
X111685040Y-47408319D01*
X111649425Y-47228448D01*
X111579550Y-47058920D01*
X111478079Y-46906193D01*
X111348875Y-46776084D01*
X111196860Y-46673549D01*
X111027825Y-46602493D01*
X110848207Y-46565623D01*
X110717171Y-46564708D01*
X110010000Y-46093261D01*
X110010000Y-44675570D01*
X110138615Y-44675570D01*
X110407740Y-44649182D01*
X110666615Y-44571023D01*
X110905378Y-44444071D01*
X111114935Y-44273160D01*
X111287305Y-44064801D01*
X111415921Y-43826930D01*
X111495885Y-43568608D01*
X111504057Y-43490856D01*
X112765329Y-43490856D01*
X112837265Y-43882805D01*
X112983961Y-44253317D01*
X113199830Y-44588279D01*
X113476648Y-44874933D01*
X113803873Y-45102360D01*
X114169039Y-45261898D01*
X114558239Y-45347469D01*
X114956647Y-45355814D01*
X115349089Y-45286616D01*
X115720616Y-45142510D01*
X116057077Y-44928986D01*
X116345657Y-44654175D01*
X116575363Y-44328546D01*
X116737445Y-43964502D01*
X116825732Y-43575909D01*
X116832087Y-43120752D01*
X116754686Y-42729846D01*
X116602831Y-42361418D01*
X116382306Y-42029502D01*
X116101513Y-41746741D01*
X115771145Y-41523905D01*
X115403786Y-41369482D01*
X115013430Y-41289353D01*
X114614943Y-41286571D01*
X114223506Y-41361242D01*
X113854027Y-41510521D01*
X113520580Y-41728723D01*
X113235866Y-42007536D01*
X113010729Y-42336340D01*
X112853745Y-42702611D01*
X112770893Y-43092399D01*
X112765329Y-43490856D01*
X111504057Y-43490856D01*
X111524151Y-43299673D01*
X111499643Y-43030370D01*
X111423293Y-42770956D01*
X111298011Y-42531313D01*
X111128567Y-42320567D01*
X110921416Y-42146747D01*
X110689134Y-42019050D01*
X110905378Y-41904071D01*
X111114935Y-41733160D01*
X111287305Y-41524801D01*
X111415921Y-41286930D01*
X111495885Y-41028608D01*
X111524151Y-40759673D01*
X111499643Y-40490370D01*
X111423293Y-40230956D01*
X111298011Y-39991313D01*
X111128567Y-39780567D01*
X110921416Y-39606747D01*
X110687486Y-39478144D01*
X110777677Y-39441499D01*
X111005488Y-39291502D01*
X111199658Y-39099943D01*
X111352726Y-38874185D01*
X111458810Y-38622902D01*
X111472993Y-38551275D01*
X111438409Y-38490856D01*
X112765329Y-38490856D01*
X112837265Y-38882805D01*
X112983961Y-39253317D01*
X113199830Y-39588279D01*
X113476648Y-39874933D01*
X113803873Y-40102360D01*
X114169039Y-40261898D01*
X114558239Y-40347469D01*
X114956647Y-40355814D01*
X115349089Y-40286616D01*
X115720616Y-40142510D01*
X116057077Y-39928986D01*
X116345657Y-39654175D01*
X116575363Y-39328546D01*
X116737445Y-38964502D01*
X116825732Y-38575909D01*
X116832087Y-38120752D01*
X116754686Y-37729846D01*
X116602831Y-37361418D01*
X116382306Y-37029502D01*
X116101513Y-36746741D01*
X115771145Y-36523905D01*
X115403786Y-36369482D01*
X115013430Y-36289353D01*
X114614943Y-36286571D01*
X114223506Y-36361242D01*
X113854027Y-36510521D01*
X113520580Y-36728723D01*
X113235866Y-37007536D01*
X113010729Y-37336340D01*
X112853745Y-37702611D01*
X112770893Y-38092399D01*
X112765329Y-38490856D01*
X111438409Y-38490856D01*
X111350339Y-38337000D01*
X109885000Y-38337000D01*
X109885000Y-38357000D01*
X109631000Y-38357000D01*
X109631000Y-38337000D01*
X109611000Y-38337000D01*
X109611000Y-38083000D01*
X109631000Y-38083000D01*
X109631000Y-36824430D01*
X109885000Y-36824430D01*
X109885000Y-38083000D01*
X111350339Y-38083000D01*
X111472993Y-37868725D01*
X111458810Y-37797098D01*
X111352726Y-37545815D01*
X111199658Y-37320057D01*
X111005488Y-37128498D01*
X110777677Y-36978501D01*
X110524981Y-36875830D01*
X110257110Y-36824430D01*
X109885000Y-36824430D01*
X109631000Y-36824430D01*
X109258890Y-36824430D01*
X108991019Y-36875830D01*
X108738323Y-36978501D01*
X108510512Y-37128498D01*
X108386683Y-37250662D01*
X108378567Y-37240567D01*
X108171416Y-37066747D01*
X107934449Y-36936474D01*
X107676691Y-36854708D01*
X107407961Y-36824565D01*
X107388615Y-36824430D01*
X106627385Y-36824430D01*
X106358260Y-36850818D01*
X106099385Y-36928977D01*
X105860622Y-37055929D01*
X105651065Y-37226840D01*
X105478695Y-37435199D01*
X105350079Y-37673070D01*
X105270115Y-37931392D01*
X105241849Y-38200327D01*
X102507402Y-38200327D01*
X102478079Y-38156193D01*
X102348875Y-38026084D01*
X102196860Y-37923549D01*
X102027825Y-37852493D01*
X101848207Y-37815623D01*
X101664849Y-37814343D01*
X101484733Y-37848701D01*
X101314722Y-37917390D01*
X101161291Y-38017793D01*
X101030283Y-38146086D01*
X100926689Y-38297381D01*
X100854454Y-38465916D01*
X100816331Y-38645272D01*
X100813771Y-38828617D01*
X94849672Y-38828617D01*
X94849672Y-35710000D01*
X119910312Y-35710000D01*
X119712750Y-36094414D01*
G36*
X98702327Y-69734927D02*
X98801240Y-70273857D01*
X99002947Y-70783311D01*
X99299766Y-71243884D01*
X99680391Y-71638033D01*
X100130325Y-71950745D01*
X100632429Y-72170109D01*
X101167579Y-72287770D01*
X101715390Y-72299245D01*
X102254998Y-72204097D01*
X102765847Y-72005952D01*
X103228481Y-71712355D01*
X103343827Y-71602513D01*
X103500849Y-71759535D01*
X103409978Y-72187049D01*
X103402327Y-72734927D01*
X103501240Y-73273857D01*
X103702947Y-73783311D01*
X103793068Y-73923151D01*
X103460611Y-73718994D01*
X101679605Y-75500000D01*
X103460611Y-77281006D01*
X103843655Y-77045784D01*
X104100189Y-76558858D01*
X104256801Y-76031240D01*
X104307469Y-75483207D01*
X104250248Y-74935819D01*
X104087337Y-74410113D01*
X103992262Y-74232240D01*
X103999766Y-74243884D01*
X104380391Y-74638033D01*
X104830325Y-74950745D01*
X105332429Y-75170109D01*
X105867579Y-75287770D01*
X106415390Y-75299245D01*
X106954998Y-75204097D01*
X107465847Y-75005952D01*
X107928481Y-74712355D01*
X108325278Y-74334491D01*
X108463470Y-74138591D01*
X108418399Y-74350637D01*
X108414747Y-74612124D01*
X108461955Y-74869341D01*
X108558225Y-75112489D01*
X108699888Y-75332308D01*
X108881550Y-75520425D01*
X109096291Y-75669674D01*
X109329554Y-75771584D01*
X109129206Y-75852530D01*
X108910381Y-75995725D01*
X108723537Y-76178695D01*
X108575791Y-76394473D01*
X108472770Y-76634839D01*
X108418399Y-76890637D01*
X108414747Y-77152124D01*
X108461955Y-77409341D01*
X108558225Y-77652489D01*
X108646844Y-77790000D01*
X103078733Y-77790000D01*
X103281006Y-77460611D01*
X101500000Y-75679605D01*
X99718994Y-77460611D01*
X99921267Y-77790000D01*
X83344494Y-77790000D01*
X83407138Y-77701196D01*
X83524648Y-77437264D01*
X83588655Y-77155534D01*
X83593263Y-76825545D01*
X83537147Y-76542138D01*
X83459437Y-76353600D01*
X85746700Y-76353600D01*
X85816577Y-76346749D01*
X85886503Y-76340631D01*
X85890341Y-76339516D01*
X85894318Y-76339126D01*
X85961521Y-76318836D01*
X86028940Y-76299249D01*
X86032488Y-76297410D01*
X86036313Y-76296255D01*
X86098291Y-76263301D01*
X86160625Y-76230990D01*
X86163748Y-76228497D01*
X86167278Y-76226620D01*
X86221687Y-76182245D01*
X86276546Y-76138452D01*
X86282106Y-76132969D01*
X86282222Y-76132874D01*
X86282311Y-76132766D01*
X86284101Y-76131001D01*
X86371669Y-76043433D01*
X86472157Y-76025714D01*
X86643110Y-75959406D01*
X86797929Y-75861155D01*
X86930715Y-75734704D01*
X87036411Y-75584870D01*
X87066721Y-75516793D01*
X98692531Y-75516793D01*
X98749752Y-76064181D01*
X98912663Y-76589887D01*
X99156345Y-77045784D01*
X99539389Y-77281006D01*
X101320395Y-75500000D01*
X99539389Y-73718994D01*
X99156345Y-73954216D01*
X98899811Y-74441142D01*
X98743199Y-74968760D01*
X98692531Y-75516793D01*
X87066721Y-75516793D01*
X87110992Y-75417360D01*
X87151616Y-75238554D01*
X87154540Y-75029119D01*
X87118925Y-74849248D01*
X87049050Y-74679720D01*
X86947579Y-74526993D01*
X86818375Y-74396884D01*
X86666360Y-74294349D01*
X86497325Y-74223293D01*
X86317707Y-74186423D01*
X86134349Y-74185143D01*
X85954233Y-74219501D01*
X85784222Y-74288190D01*
X85630791Y-74388593D01*
X85499783Y-74516886D01*
X85396189Y-74668181D01*
X85325290Y-74833600D01*
X83593200Y-74833600D01*
X83593200Y-74715750D01*
X83434450Y-74557000D01*
X82247000Y-74557000D01*
X82247000Y-74577000D01*
X81993000Y-74577000D01*
X81993000Y-74557000D01*
X81973000Y-74557000D01*
X81973000Y-74303000D01*
X81993000Y-74303000D01*
X81993000Y-74283000D01*
X82247000Y-74283000D01*
X82247000Y-74303000D01*
X83434450Y-74303000D01*
X83593200Y-74144250D01*
X83593200Y-73539389D01*
X99718994Y-73539389D01*
X101500000Y-75320395D01*
X103281006Y-73539389D01*
X103045784Y-73156345D01*
X102558858Y-72899811D01*
X102031240Y-72743199D01*
X101483207Y-72692531D01*
X100935819Y-72749752D01*
X100410113Y-72912663D01*
X99954216Y-73156345D01*
X99718994Y-73539389D01*
X83593200Y-73539389D01*
X83593200Y-73529258D01*
X83568797Y-73406577D01*
X83520930Y-73291015D01*
X83451437Y-73187011D01*
X83362989Y-73098563D01*
X83258985Y-73029070D01*
X83153556Y-72985400D01*
X95024600Y-72985400D01*
X95094477Y-72978549D01*
X95164403Y-72972431D01*
X95168241Y-72971316D01*
X95172218Y-72970926D01*
X95239421Y-72950636D01*
X95306840Y-72931049D01*
X95310388Y-72929210D01*
X95314213Y-72928055D01*
X95376191Y-72895101D01*
X95438525Y-72862790D01*
X95441648Y-72860297D01*
X95445178Y-72858420D01*
X95499587Y-72814045D01*
X95554446Y-72770252D01*
X95560006Y-72764769D01*
X95560122Y-72764674D01*
X95560211Y-72764566D01*
X95562001Y-72762801D01*
X98703920Y-69620882D01*
X98702327Y-69734927D01*
X98702327Y-69734927D01*
G37*
X98702327Y-69734927D02*
X98801240Y-70273857D01*
X99002947Y-70783311D01*
X99299766Y-71243884D01*
X99680391Y-71638033D01*
X100130325Y-71950745D01*
X100632429Y-72170109D01*
X101167579Y-72287770D01*
X101715390Y-72299245D01*
X102254998Y-72204097D01*
X102765847Y-72005952D01*
X103228481Y-71712355D01*
X103343827Y-71602513D01*
X103500849Y-71759535D01*
X103409978Y-72187049D01*
X103402327Y-72734927D01*
X103501240Y-73273857D01*
X103702947Y-73783311D01*
X103793068Y-73923151D01*
X103460611Y-73718994D01*
X101679605Y-75500000D01*
X103460611Y-77281006D01*
X103843655Y-77045784D01*
X104100189Y-76558858D01*
X104256801Y-76031240D01*
X104307469Y-75483207D01*
X104250248Y-74935819D01*
X104087337Y-74410113D01*
X103992262Y-74232240D01*
X103999766Y-74243884D01*
X104380391Y-74638033D01*
X104830325Y-74950745D01*
X105332429Y-75170109D01*
X105867579Y-75287770D01*
X106415390Y-75299245D01*
X106954998Y-75204097D01*
X107465847Y-75005952D01*
X107928481Y-74712355D01*
X108325278Y-74334491D01*
X108463470Y-74138591D01*
X108418399Y-74350637D01*
X108414747Y-74612124D01*
X108461955Y-74869341D01*
X108558225Y-75112489D01*
X108699888Y-75332308D01*
X108881550Y-75520425D01*
X109096291Y-75669674D01*
X109329554Y-75771584D01*
X109129206Y-75852530D01*
X108910381Y-75995725D01*
X108723537Y-76178695D01*
X108575791Y-76394473D01*
X108472770Y-76634839D01*
X108418399Y-76890637D01*
X108414747Y-77152124D01*
X108461955Y-77409341D01*
X108558225Y-77652489D01*
X108646844Y-77790000D01*
X103078733Y-77790000D01*
X103281006Y-77460611D01*
X101500000Y-75679605D01*
X99718994Y-77460611D01*
X99921267Y-77790000D01*
X83344494Y-77790000D01*
X83407138Y-77701196D01*
X83524648Y-77437264D01*
X83588655Y-77155534D01*
X83593263Y-76825545D01*
X83537147Y-76542138D01*
X83459437Y-76353600D01*
X85746700Y-76353600D01*
X85816577Y-76346749D01*
X85886503Y-76340631D01*
X85890341Y-76339516D01*
X85894318Y-76339126D01*
X85961521Y-76318836D01*
X86028940Y-76299249D01*
X86032488Y-76297410D01*
X86036313Y-76296255D01*
X86098291Y-76263301D01*
X86160625Y-76230990D01*
X86163748Y-76228497D01*
X86167278Y-76226620D01*
X86221687Y-76182245D01*
X86276546Y-76138452D01*
X86282106Y-76132969D01*
X86282222Y-76132874D01*
X86282311Y-76132766D01*
X86284101Y-76131001D01*
X86371669Y-76043433D01*
X86472157Y-76025714D01*
X86643110Y-75959406D01*
X86797929Y-75861155D01*
X86930715Y-75734704D01*
X87036411Y-75584870D01*
X87066721Y-75516793D01*
X98692531Y-75516793D01*
X98749752Y-76064181D01*
X98912663Y-76589887D01*
X99156345Y-77045784D01*
X99539389Y-77281006D01*
X101320395Y-75500000D01*
X99539389Y-73718994D01*
X99156345Y-73954216D01*
X98899811Y-74441142D01*
X98743199Y-74968760D01*
X98692531Y-75516793D01*
X87066721Y-75516793D01*
X87110992Y-75417360D01*
X87151616Y-75238554D01*
X87154540Y-75029119D01*
X87118925Y-74849248D01*
X87049050Y-74679720D01*
X86947579Y-74526993D01*
X86818375Y-74396884D01*
X86666360Y-74294349D01*
X86497325Y-74223293D01*
X86317707Y-74186423D01*
X86134349Y-74185143D01*
X85954233Y-74219501D01*
X85784222Y-74288190D01*
X85630791Y-74388593D01*
X85499783Y-74516886D01*
X85396189Y-74668181D01*
X85325290Y-74833600D01*
X83593200Y-74833600D01*
X83593200Y-74715750D01*
X83434450Y-74557000D01*
X82247000Y-74557000D01*
X82247000Y-74577000D01*
X81993000Y-74577000D01*
X81993000Y-74557000D01*
X81973000Y-74557000D01*
X81973000Y-74303000D01*
X81993000Y-74303000D01*
X81993000Y-74283000D01*
X82247000Y-74283000D01*
X82247000Y-74303000D01*
X83434450Y-74303000D01*
X83593200Y-74144250D01*
X83593200Y-73539389D01*
X99718994Y-73539389D01*
X101500000Y-75320395D01*
X103281006Y-73539389D01*
X103045784Y-73156345D01*
X102558858Y-72899811D01*
X102031240Y-72743199D01*
X101483207Y-72692531D01*
X100935819Y-72749752D01*
X100410113Y-72912663D01*
X99954216Y-73156345D01*
X99718994Y-73539389D01*
X83593200Y-73539389D01*
X83593200Y-73529258D01*
X83568797Y-73406577D01*
X83520930Y-73291015D01*
X83451437Y-73187011D01*
X83362989Y-73098563D01*
X83258985Y-73029070D01*
X83153556Y-72985400D01*
X95024600Y-72985400D01*
X95094477Y-72978549D01*
X95164403Y-72972431D01*
X95168241Y-72971316D01*
X95172218Y-72970926D01*
X95239421Y-72950636D01*
X95306840Y-72931049D01*
X95310388Y-72929210D01*
X95314213Y-72928055D01*
X95376191Y-72895101D01*
X95438525Y-72862790D01*
X95441648Y-72860297D01*
X95445178Y-72858420D01*
X95499587Y-72814045D01*
X95554446Y-72770252D01*
X95560006Y-72764769D01*
X95560122Y-72764674D01*
X95560211Y-72764566D01*
X95562001Y-72762801D01*
X98703920Y-69620882D01*
X98702327Y-69734927D01*
G36*
X65915673Y-39631453D02*
X65886398Y-39909982D01*
X65911781Y-40188892D01*
X65990854Y-40457560D01*
X66120606Y-40705753D01*
X66296095Y-40924017D01*
X66510635Y-41104038D01*
X66667415Y-41190228D01*
X66527246Y-41264758D01*
X66310213Y-41441766D01*
X66131694Y-41657558D01*
X65998489Y-41903915D01*
X65915673Y-42171453D01*
X65914939Y-42178436D01*
X65914675Y-42178214D01*
X65911174Y-42176289D01*
X65908085Y-42173752D01*
X65846233Y-42140587D01*
X65784696Y-42106757D01*
X65780884Y-42105548D01*
X65777365Y-42103661D01*
X65710269Y-42083148D01*
X65643313Y-42061908D01*
X65639341Y-42061462D01*
X65635519Y-42060294D01*
X65565651Y-42053197D01*
X65495911Y-42045374D01*
X65488106Y-42045320D01*
X65487953Y-42045304D01*
X65487810Y-42045318D01*
X65485300Y-42045300D01*
X62590568Y-42045300D01*
X62614327Y-41968547D01*
X62643602Y-41690018D01*
X62618219Y-41411108D01*
X62539146Y-41142440D01*
X62409394Y-40894247D01*
X62233905Y-40675983D01*
X62019365Y-40495962D01*
X61773944Y-40361041D01*
X61506990Y-40276358D01*
X61228673Y-40245140D01*
X61208637Y-40245000D01*
X60491363Y-40245000D01*
X60212637Y-40272329D01*
X59944527Y-40353276D01*
X59697246Y-40484758D01*
X59480213Y-40661766D01*
X59301694Y-40877558D01*
X59168489Y-41123915D01*
X59085673Y-41391453D01*
X59056398Y-41669982D01*
X59081781Y-41948892D01*
X59160854Y-42217560D01*
X59290606Y-42465753D01*
X59417019Y-42622979D01*
X58824299Y-43215699D01*
X58779732Y-43269955D01*
X58734614Y-43323725D01*
X58732689Y-43327226D01*
X58730152Y-43330315D01*
X58696987Y-43392167D01*
X58663157Y-43453704D01*
X58661948Y-43457516D01*
X58660061Y-43461035D01*
X58639548Y-43528131D01*
X58618308Y-43595087D01*
X58617862Y-43599059D01*
X58616694Y-43602881D01*
X58609597Y-43672749D01*
X58601774Y-43742489D01*
X58601720Y-43750294D01*
X58601704Y-43750447D01*
X58601718Y-43750590D01*
X58601700Y-43753100D01*
X58601700Y-53066400D01*
X58608551Y-53136277D01*
X58614669Y-53206203D01*
X58615784Y-53210041D01*
X58616174Y-53214018D01*
X58636464Y-53281221D01*
X58656051Y-53348640D01*
X58657890Y-53352188D01*
X58659045Y-53356013D01*
X58691999Y-53417991D01*
X58724310Y-53480325D01*
X58726803Y-53483448D01*
X58728680Y-53486978D01*
X58773055Y-53541387D01*
X58816848Y-53596246D01*
X58822331Y-53601806D01*
X58822426Y-53601922D01*
X58822534Y-53602011D01*
X58824299Y-53603801D01*
X59702475Y-54481977D01*
X59697246Y-54484758D01*
X59480213Y-54661766D01*
X59301694Y-54877558D01*
X59168489Y-55123915D01*
X59085673Y-55391453D01*
X59056398Y-55669982D01*
X59081781Y-55948892D01*
X59160854Y-56217560D01*
X59290606Y-56465753D01*
X59466095Y-56684017D01*
X59680635Y-56864038D01*
X59837415Y-56950228D01*
X59697246Y-57024758D01*
X59480213Y-57201766D01*
X59301694Y-57417558D01*
X59168489Y-57663915D01*
X59085673Y-57931453D01*
X59056398Y-58209982D01*
X59081781Y-58488892D01*
X59160854Y-58757560D01*
X59290606Y-59005753D01*
X59466095Y-59224017D01*
X59680635Y-59404038D01*
X59829154Y-59485687D01*
X59597161Y-59637399D01*
X59395500Y-59835105D01*
X59236285Y-60068354D01*
X59125633Y-60328182D01*
X59108096Y-60410961D01*
X59230085Y-60633000D01*
X60723000Y-60633000D01*
X60723000Y-60613000D01*
X60977000Y-60613000D01*
X60977000Y-60633000D01*
X60997000Y-60633000D01*
X60997000Y-60887000D01*
X60977000Y-60887000D01*
X60977000Y-60907000D01*
X60723000Y-60907000D01*
X60723000Y-60887000D01*
X59230085Y-60887000D01*
X59108096Y-61109039D01*
X59125633Y-61191818D01*
X59236285Y-61451646D01*
X59395500Y-61684895D01*
X59597161Y-61882601D01*
X59829414Y-62034483D01*
X59697246Y-62104758D01*
X59480213Y-62281766D01*
X59301694Y-62497558D01*
X59168489Y-62743915D01*
X59085673Y-63011453D01*
X59056398Y-63289982D01*
X59081781Y-63568892D01*
X59160854Y-63837560D01*
X59290606Y-64085753D01*
X59466095Y-64304017D01*
X59680635Y-64484038D01*
X59926056Y-64618959D01*
X60090000Y-64670965D01*
X60090000Y-68260298D01*
X56835599Y-71514699D01*
X56791032Y-71568955D01*
X56745914Y-71622725D01*
X56743989Y-71626226D01*
X56741452Y-71629315D01*
X56708287Y-71691167D01*
X56674457Y-71752704D01*
X56673248Y-71756516D01*
X56671361Y-71760035D01*
X56650848Y-71827131D01*
X56629608Y-71894087D01*
X56629162Y-71898059D01*
X56627994Y-71901881D01*
X56620902Y-71971701D01*
X56613074Y-72041489D01*
X56613020Y-72049294D01*
X56613004Y-72049447D01*
X56613018Y-72049590D01*
X56613000Y-72052100D01*
X56613000Y-74035000D01*
X55687110Y-74035000D01*
X55766619Y-73875738D01*
X55864455Y-73517613D01*
X55890545Y-73147281D01*
X55843885Y-72778975D01*
X55726269Y-72426849D01*
X55600795Y-72192104D01*
X55310857Y-72066229D01*
X54177085Y-73200000D01*
X54191228Y-73214142D01*
X54011622Y-73393748D01*
X53997480Y-73379605D01*
X53983338Y-73393748D01*
X53803732Y-73214142D01*
X53817875Y-73200000D01*
X52684103Y-72066229D01*
X52471019Y-72158738D01*
X52367589Y-72003064D01*
X52251959Y-71886623D01*
X52863709Y-71886623D01*
X53997480Y-73020395D01*
X55131251Y-71886623D01*
X55005376Y-71596685D01*
X54673218Y-71430861D01*
X54315093Y-71333025D01*
X53944761Y-71306935D01*
X53576455Y-71353595D01*
X53224329Y-71471211D01*
X52989584Y-71596685D01*
X52863709Y-71886623D01*
X52251959Y-71886623D01*
X52107153Y-71740803D01*
X51800737Y-71534122D01*
X51460012Y-71390895D01*
X51097956Y-71316575D01*
X50728360Y-71313995D01*
X50365302Y-71383252D01*
X50022610Y-71521709D01*
X49713338Y-71724091D01*
X49449266Y-71982689D01*
X49240451Y-72287655D01*
X49094848Y-72627372D01*
X49018003Y-72988900D01*
X49012843Y-73358469D01*
X49030730Y-73455928D01*
X49010000Y-73435198D01*
X49010000Y-72500000D01*
X49003148Y-72430119D01*
X48997031Y-72360197D01*
X48995916Y-72356359D01*
X48995526Y-72352382D01*
X48975246Y-72285212D01*
X48955650Y-72217761D01*
X48953809Y-72214210D01*
X48952655Y-72210387D01*
X48919710Y-72148426D01*
X48887390Y-72086075D01*
X48884897Y-72082952D01*
X48883020Y-72079422D01*
X48838625Y-72024989D01*
X48794852Y-71970155D01*
X48789370Y-71964596D01*
X48789274Y-71964478D01*
X48789165Y-71964388D01*
X48787401Y-71962599D01*
X47882300Y-71057498D01*
X47882300Y-70799514D01*
X47889403Y-70835223D01*
X47937270Y-70950785D01*
X48006763Y-71054789D01*
X48095211Y-71143237D01*
X48199215Y-71212730D01*
X48314777Y-71260597D01*
X48437458Y-71285000D01*
X49114250Y-71285000D01*
X49273000Y-71126250D01*
X49273000Y-70227000D01*
X49527000Y-70227000D01*
X49527000Y-71126250D01*
X49685750Y-71285000D01*
X50362542Y-71285000D01*
X50485223Y-71260597D01*
X50600785Y-71212730D01*
X50704789Y-71143237D01*
X50793237Y-71054789D01*
X50862730Y-70950785D01*
X50910597Y-70835223D01*
X50935000Y-70712542D01*
X50935000Y-70385750D01*
X54065000Y-70385750D01*
X54065000Y-70712542D01*
X54089403Y-70835223D01*
X54137270Y-70950785D01*
X54206763Y-71054789D01*
X54295211Y-71143237D01*
X54399215Y-71212730D01*
X54514777Y-71260597D01*
X54637458Y-71285000D01*
X55314250Y-71285000D01*
X55473000Y-71126250D01*
X55473000Y-70227000D01*
X55727000Y-70227000D01*
X55727000Y-71126250D01*
X55885750Y-71285000D01*
X56562542Y-71285000D01*
X56685223Y-71260597D01*
X56800785Y-71212730D01*
X56904789Y-71143237D01*
X56993237Y-71054789D01*
X57062730Y-70950785D01*
X57110597Y-70835223D01*
X57135000Y-70712542D01*
X57135000Y-70385750D01*
X56976250Y-70227000D01*
X55727000Y-70227000D01*
X55473000Y-70227000D01*
X54223750Y-70227000D01*
X54065000Y-70385750D01*
X50935000Y-70385750D01*
X50776250Y-70227000D01*
X49527000Y-70227000D01*
X49273000Y-70227000D01*
X49253000Y-70227000D01*
X49253000Y-69973000D01*
X49273000Y-69973000D01*
X49273000Y-69073750D01*
X49527000Y-69073750D01*
X49527000Y-69973000D01*
X50776250Y-69973000D01*
X50935000Y-69814250D01*
X50935000Y-69487458D01*
X54065000Y-69487458D01*
X54065000Y-69814250D01*
X54223750Y-69973000D01*
X55473000Y-69973000D01*
X55473000Y-69073750D01*
X55727000Y-69073750D01*
X55727000Y-69973000D01*
X56976250Y-69973000D01*
X57135000Y-69814250D01*
X57135000Y-69487458D01*
X57110597Y-69364777D01*
X57062730Y-69249215D01*
X56993237Y-69145211D01*
X56904789Y-69056763D01*
X56800785Y-68987270D01*
X56685223Y-68939403D01*
X56562542Y-68915000D01*
X55885750Y-68915000D01*
X55727000Y-69073750D01*
X55473000Y-69073750D01*
X55314250Y-68915000D01*
X54637458Y-68915000D01*
X54514777Y-68939403D01*
X54399215Y-68987270D01*
X54295211Y-69056763D01*
X54206763Y-69145211D01*
X54137270Y-69249215D01*
X54089403Y-69364777D01*
X54065000Y-69487458D01*
X50935000Y-69487458D01*
X50910597Y-69364777D01*
X50862730Y-69249215D01*
X50793237Y-69145211D01*
X50704789Y-69056763D01*
X50600785Y-68987270D01*
X50485223Y-68939403D01*
X50362542Y-68915000D01*
X49685750Y-68915000D01*
X49527000Y-69073750D01*
X49273000Y-69073750D01*
X49114250Y-68915000D01*
X48437458Y-68915000D01*
X48314777Y-68939403D01*
X48199215Y-68987270D01*
X48095211Y-69056763D01*
X48006763Y-69145211D01*
X47937270Y-69249215D01*
X47889403Y-69364777D01*
X47882300Y-69400486D01*
X47882300Y-67090865D01*
X47923106Y-67222634D01*
X48021900Y-67372559D01*
X48158550Y-67489025D01*
X48322237Y-67562810D01*
X48500000Y-67588072D01*
X50300000Y-67588072D01*
X50401121Y-67580008D01*
X50572634Y-67526894D01*
X50722559Y-67428100D01*
X50839025Y-67291450D01*
X50898279Y-67160000D01*
X54103710Y-67160000D01*
X54123106Y-67222634D01*
X54221900Y-67372559D01*
X54358550Y-67489025D01*
X54522237Y-67562810D01*
X54700000Y-67588072D01*
X56500000Y-67588072D01*
X56601121Y-67580008D01*
X56772634Y-67526894D01*
X56922559Y-67428100D01*
X57039025Y-67291450D01*
X57112810Y-67127763D01*
X57138072Y-66950000D01*
X57138072Y-66750000D01*
X57646526Y-66750000D01*
X57733044Y-66810131D01*
X57901071Y-66883540D01*
X58080157Y-66922915D01*
X58263479Y-66926755D01*
X58444057Y-66894914D01*
X58615010Y-66828606D01*
X58769829Y-66730355D01*
X58902615Y-66603904D01*
X59008311Y-66454070D01*
X59082892Y-66286560D01*
X59123516Y-66107754D01*
X59126440Y-65898319D01*
X59090825Y-65718448D01*
X59020950Y-65548920D01*
X58919479Y-65396193D01*
X58790275Y-65266084D01*
X58638260Y-65163549D01*
X58469225Y-65092493D01*
X58289607Y-65055623D01*
X58106249Y-65054343D01*
X57926133Y-65088701D01*
X57756122Y-65157390D01*
X57645163Y-65230000D01*
X56627169Y-65230000D01*
X56500000Y-65211928D01*
X54700000Y-65211928D01*
X54598879Y-65219992D01*
X54427366Y-65273106D01*
X54277441Y-65371900D01*
X54160975Y-65508550D01*
X54101721Y-65640000D01*
X50896290Y-65640000D01*
X50876894Y-65577366D01*
X50778100Y-65427441D01*
X50641450Y-65310975D01*
X50477763Y-65237190D01*
X50300000Y-65211928D01*
X48500000Y-65211928D01*
X48398879Y-65219992D01*
X48227366Y-65273106D01*
X48077441Y-65371900D01*
X47960975Y-65508550D01*
X47887190Y-65672237D01*
X47882300Y-65706647D01*
X47882300Y-56922300D01*
X47875449Y-56852423D01*
X47869331Y-56782497D01*
X47868216Y-56778659D01*
X47867826Y-56774682D01*
X47847536Y-56707479D01*
X47827949Y-56640060D01*
X47826110Y-56636512D01*
X47824955Y-56632687D01*
X47792001Y-56570709D01*
X47759690Y-56508375D01*
X47757197Y-56505252D01*
X47755320Y-56501722D01*
X47710945Y-56447313D01*
X47667152Y-56392454D01*
X47661669Y-56386894D01*
X47661574Y-56386778D01*
X47661466Y-56386689D01*
X47659701Y-56384899D01*
X45565300Y-54290498D01*
X45629956Y-54005911D01*
X45635070Y-53639680D01*
X45572791Y-53325146D01*
X45566039Y-53308763D01*
X45875501Y-52999301D01*
X45920068Y-52945045D01*
X45965186Y-52891275D01*
X45967111Y-52887774D01*
X45969648Y-52884685D01*
X46002813Y-52822833D01*
X46036643Y-52761296D01*
X46037852Y-52757484D01*
X46039739Y-52753965D01*
X46060252Y-52686869D01*
X46081492Y-52619913D01*
X46081938Y-52615941D01*
X46083106Y-52612119D01*
X46090198Y-52542295D01*
X46098026Y-52472511D01*
X46098081Y-52464696D01*
X46098095Y-52464553D01*
X46098082Y-52464420D01*
X46098100Y-52461900D01*
X46098100Y-48798700D01*
X50994000Y-48798700D01*
X50994000Y-58700800D01*
X51000851Y-58770677D01*
X51006969Y-58840603D01*
X51008084Y-58844441D01*
X51008474Y-58848418D01*
X51028764Y-58915621D01*
X51048351Y-58983040D01*
X51050190Y-58986588D01*
X51051345Y-58990413D01*
X51084299Y-59052391D01*
X51116610Y-59114725D01*
X51119103Y-59117848D01*
X51120980Y-59121378D01*
X51165355Y-59175787D01*
X51209148Y-59230646D01*
X51214631Y-59236206D01*
X51214726Y-59236322D01*
X51214834Y-59236411D01*
X51216599Y-59238201D01*
X51796808Y-59818410D01*
X51681694Y-59957558D01*
X51548489Y-60203915D01*
X51465673Y-60471453D01*
X51436398Y-60749982D01*
X51461781Y-61028892D01*
X51540854Y-61297560D01*
X51670606Y-61545753D01*
X51846095Y-61764017D01*
X52060635Y-61944038D01*
X52217415Y-62030228D01*
X52077246Y-62104758D01*
X51860213Y-62281766D01*
X51681694Y-62497558D01*
X51548489Y-62743915D01*
X51465673Y-63011453D01*
X51436398Y-63289982D01*
X51461781Y-63568892D01*
X51540854Y-63837560D01*
X51670606Y-64085753D01*
X51846095Y-64304017D01*
X52060635Y-64484038D01*
X52306056Y-64618959D01*
X52573010Y-64703642D01*
X52851327Y-64734860D01*
X52871363Y-64735000D01*
X53588637Y-64735000D01*
X53867363Y-64707671D01*
X54135473Y-64626724D01*
X54382754Y-64495242D01*
X54599787Y-64318234D01*
X54778306Y-64102442D01*
X54911511Y-63856085D01*
X54994327Y-63588547D01*
X55023602Y-63310018D01*
X54998219Y-63031108D01*
X54919146Y-62762440D01*
X54789394Y-62514247D01*
X54613905Y-62295983D01*
X54399365Y-62115962D01*
X54242585Y-62029772D01*
X54382754Y-61955242D01*
X54599787Y-61778234D01*
X54778306Y-61562442D01*
X54911511Y-61316085D01*
X54994327Y-61048547D01*
X55023602Y-60770018D01*
X54998219Y-60491108D01*
X54919146Y-60222440D01*
X54789394Y-59974247D01*
X54613905Y-59755983D01*
X54399365Y-59575962D01*
X54242585Y-59489772D01*
X54382754Y-59415242D01*
X54599787Y-59238234D01*
X54778306Y-59022442D01*
X54911511Y-58776085D01*
X54994327Y-58508547D01*
X55023602Y-58230018D01*
X54998219Y-57951108D01*
X54919146Y-57682440D01*
X54789394Y-57434247D01*
X54613905Y-57215983D01*
X54399365Y-57035962D01*
X54242585Y-56949772D01*
X54382754Y-56875242D01*
X54599787Y-56698234D01*
X54778306Y-56482442D01*
X54911511Y-56236085D01*
X54994327Y-55968547D01*
X55023602Y-55690018D01*
X54998219Y-55411108D01*
X54919146Y-55142440D01*
X54789394Y-54894247D01*
X54613905Y-54675983D01*
X54399365Y-54495962D01*
X54153944Y-54361041D01*
X53886990Y-54276358D01*
X53608673Y-54245140D01*
X53588637Y-54245000D01*
X52871363Y-54245000D01*
X52592637Y-54272329D01*
X52514000Y-54296071D01*
X52514000Y-50684923D01*
X52573010Y-50703642D01*
X52851327Y-50734860D01*
X52871363Y-50735000D01*
X53588637Y-50735000D01*
X53867363Y-50707671D01*
X54135473Y-50626724D01*
X54382754Y-50495242D01*
X54599787Y-50318234D01*
X54778306Y-50102442D01*
X54911511Y-49856085D01*
X54994327Y-49588547D01*
X55023602Y-49310018D01*
X54998219Y-49031108D01*
X54919146Y-48762440D01*
X54789394Y-48514247D01*
X54613905Y-48295983D01*
X54399365Y-48115962D01*
X54242585Y-48029772D01*
X54382754Y-47955242D01*
X54599787Y-47778234D01*
X54778306Y-47562442D01*
X54911511Y-47316085D01*
X54994327Y-47048547D01*
X55023602Y-46770018D01*
X54998219Y-46491108D01*
X54919146Y-46222440D01*
X54789394Y-45974247D01*
X54613905Y-45755983D01*
X54399365Y-45575962D01*
X54242585Y-45489772D01*
X54382754Y-45415242D01*
X54599787Y-45238234D01*
X54778306Y-45022442D01*
X54911511Y-44776085D01*
X54994327Y-44508547D01*
X55023602Y-44230018D01*
X54998219Y-43951108D01*
X54919146Y-43682440D01*
X54789394Y-43434247D01*
X54613905Y-43215983D01*
X54399365Y-43035962D01*
X54242585Y-42949772D01*
X54382754Y-42875242D01*
X54599787Y-42698234D01*
X54778306Y-42482442D01*
X54911511Y-42236085D01*
X54994327Y-41968547D01*
X55023602Y-41690018D01*
X54998219Y-41411108D01*
X54919146Y-41142440D01*
X54789394Y-40894247D01*
X54613905Y-40675983D01*
X54399365Y-40495962D01*
X54153944Y-40361041D01*
X53886990Y-40276358D01*
X53608673Y-40245140D01*
X53588637Y-40245000D01*
X52871363Y-40245000D01*
X52592637Y-40272329D01*
X52324527Y-40353276D01*
X52077246Y-40484758D01*
X51860213Y-40661766D01*
X51681694Y-40877558D01*
X51548489Y-41123915D01*
X51465673Y-41391453D01*
X51436398Y-41669982D01*
X51461781Y-41948892D01*
X51540854Y-42217560D01*
X51670606Y-42465753D01*
X51846095Y-42684017D01*
X52060635Y-42864038D01*
X52217415Y-42950228D01*
X52077246Y-43024758D01*
X51860213Y-43201766D01*
X51681694Y-43417558D01*
X51548489Y-43663915D01*
X51465673Y-43931453D01*
X51436398Y-44209982D01*
X51461781Y-44488892D01*
X51540854Y-44757560D01*
X51670606Y-45005753D01*
X51846095Y-45224017D01*
X52060635Y-45404038D01*
X52217415Y-45490228D01*
X52077246Y-45564758D01*
X51860213Y-45741766D01*
X51681694Y-45957558D01*
X51548489Y-46203915D01*
X51465673Y-46471453D01*
X51436398Y-46749982D01*
X51461781Y-47028892D01*
X51540854Y-47297560D01*
X51670606Y-47545753D01*
X51787169Y-47690729D01*
X51216599Y-48261299D01*
X51172032Y-48315555D01*
X51126914Y-48369325D01*
X51124989Y-48372826D01*
X51122452Y-48375915D01*
X51089287Y-48437767D01*
X51055457Y-48499304D01*
X51054248Y-48503116D01*
X51052361Y-48506635D01*
X51031848Y-48573731D01*
X51010608Y-48640687D01*
X51010162Y-48644659D01*
X51008994Y-48648481D01*
X51001897Y-48718349D01*
X50994074Y-48788089D01*
X50994020Y-48795894D01*
X50994004Y-48796047D01*
X50994018Y-48796190D01*
X50994000Y-48798700D01*
X46098100Y-48798700D01*
X46098100Y-42638100D01*
X46091249Y-42568223D01*
X46085131Y-42498297D01*
X46084016Y-42494459D01*
X46083626Y-42490482D01*
X46063336Y-42423279D01*
X46043749Y-42355860D01*
X46041910Y-42352312D01*
X46040755Y-42348487D01*
X46007791Y-42286490D01*
X45975489Y-42224174D01*
X45972997Y-42221053D01*
X45971120Y-42217522D01*
X45926741Y-42163107D01*
X45882952Y-42108254D01*
X45877469Y-42102694D01*
X45877374Y-42102578D01*
X45877266Y-42102489D01*
X45875501Y-42100699D01*
X45565300Y-41790498D01*
X45629956Y-41505911D01*
X45635070Y-41139680D01*
X45572791Y-40825146D01*
X45450604Y-40528700D01*
X45273165Y-40261632D01*
X45047231Y-40034115D01*
X44781408Y-39854816D01*
X44670787Y-39808315D01*
X44924502Y-39554600D01*
X65939463Y-39554600D01*
X65915673Y-39631453D01*
X65915673Y-39631453D01*
G37*
X65915673Y-39631453D02*
X65886398Y-39909982D01*
X65911781Y-40188892D01*
X65990854Y-40457560D01*
X66120606Y-40705753D01*
X66296095Y-40924017D01*
X66510635Y-41104038D01*
X66667415Y-41190228D01*
X66527246Y-41264758D01*
X66310213Y-41441766D01*
X66131694Y-41657558D01*
X65998489Y-41903915D01*
X65915673Y-42171453D01*
X65914939Y-42178436D01*
X65914675Y-42178214D01*
X65911174Y-42176289D01*
X65908085Y-42173752D01*
X65846233Y-42140587D01*
X65784696Y-42106757D01*
X65780884Y-42105548D01*
X65777365Y-42103661D01*
X65710269Y-42083148D01*
X65643313Y-42061908D01*
X65639341Y-42061462D01*
X65635519Y-42060294D01*
X65565651Y-42053197D01*
X65495911Y-42045374D01*
X65488106Y-42045320D01*
X65487953Y-42045304D01*
X65487810Y-42045318D01*
X65485300Y-42045300D01*
X62590568Y-42045300D01*
X62614327Y-41968547D01*
X62643602Y-41690018D01*
X62618219Y-41411108D01*
X62539146Y-41142440D01*
X62409394Y-40894247D01*
X62233905Y-40675983D01*
X62019365Y-40495962D01*
X61773944Y-40361041D01*
X61506990Y-40276358D01*
X61228673Y-40245140D01*
X61208637Y-40245000D01*
X60491363Y-40245000D01*
X60212637Y-40272329D01*
X59944527Y-40353276D01*
X59697246Y-40484758D01*
X59480213Y-40661766D01*
X59301694Y-40877558D01*
X59168489Y-41123915D01*
X59085673Y-41391453D01*
X59056398Y-41669982D01*
X59081781Y-41948892D01*
X59160854Y-42217560D01*
X59290606Y-42465753D01*
X59417019Y-42622979D01*
X58824299Y-43215699D01*
X58779732Y-43269955D01*
X58734614Y-43323725D01*
X58732689Y-43327226D01*
X58730152Y-43330315D01*
X58696987Y-43392167D01*
X58663157Y-43453704D01*
X58661948Y-43457516D01*
X58660061Y-43461035D01*
X58639548Y-43528131D01*
X58618308Y-43595087D01*
X58617862Y-43599059D01*
X58616694Y-43602881D01*
X58609597Y-43672749D01*
X58601774Y-43742489D01*
X58601720Y-43750294D01*
X58601704Y-43750447D01*
X58601718Y-43750590D01*
X58601700Y-43753100D01*
X58601700Y-53066400D01*
X58608551Y-53136277D01*
X58614669Y-53206203D01*
X58615784Y-53210041D01*
X58616174Y-53214018D01*
X58636464Y-53281221D01*
X58656051Y-53348640D01*
X58657890Y-53352188D01*
X58659045Y-53356013D01*
X58691999Y-53417991D01*
X58724310Y-53480325D01*
X58726803Y-53483448D01*
X58728680Y-53486978D01*
X58773055Y-53541387D01*
X58816848Y-53596246D01*
X58822331Y-53601806D01*
X58822426Y-53601922D01*
X58822534Y-53602011D01*
X58824299Y-53603801D01*
X59702475Y-54481977D01*
X59697246Y-54484758D01*
X59480213Y-54661766D01*
X59301694Y-54877558D01*
X59168489Y-55123915D01*
X59085673Y-55391453D01*
X59056398Y-55669982D01*
X59081781Y-55948892D01*
X59160854Y-56217560D01*
X59290606Y-56465753D01*
X59466095Y-56684017D01*
X59680635Y-56864038D01*
X59837415Y-56950228D01*
X59697246Y-57024758D01*
X59480213Y-57201766D01*
X59301694Y-57417558D01*
X59168489Y-57663915D01*
X59085673Y-57931453D01*
X59056398Y-58209982D01*
X59081781Y-58488892D01*
X59160854Y-58757560D01*
X59290606Y-59005753D01*
X59466095Y-59224017D01*
X59680635Y-59404038D01*
X59829154Y-59485687D01*
X59597161Y-59637399D01*
X59395500Y-59835105D01*
X59236285Y-60068354D01*
X59125633Y-60328182D01*
X59108096Y-60410961D01*
X59230085Y-60633000D01*
X60723000Y-60633000D01*
X60723000Y-60613000D01*
X60977000Y-60613000D01*
X60977000Y-60633000D01*
X60997000Y-60633000D01*
X60997000Y-60887000D01*
X60977000Y-60887000D01*
X60977000Y-60907000D01*
X60723000Y-60907000D01*
X60723000Y-60887000D01*
X59230085Y-60887000D01*
X59108096Y-61109039D01*
X59125633Y-61191818D01*
X59236285Y-61451646D01*
X59395500Y-61684895D01*
X59597161Y-61882601D01*
X59829414Y-62034483D01*
X59697246Y-62104758D01*
X59480213Y-62281766D01*
X59301694Y-62497558D01*
X59168489Y-62743915D01*
X59085673Y-63011453D01*
X59056398Y-63289982D01*
X59081781Y-63568892D01*
X59160854Y-63837560D01*
X59290606Y-64085753D01*
X59466095Y-64304017D01*
X59680635Y-64484038D01*
X59926056Y-64618959D01*
X60090000Y-64670965D01*
X60090000Y-68260298D01*
X56835599Y-71514699D01*
X56791032Y-71568955D01*
X56745914Y-71622725D01*
X56743989Y-71626226D01*
X56741452Y-71629315D01*
X56708287Y-71691167D01*
X56674457Y-71752704D01*
X56673248Y-71756516D01*
X56671361Y-71760035D01*
X56650848Y-71827131D01*
X56629608Y-71894087D01*
X56629162Y-71898059D01*
X56627994Y-71901881D01*
X56620902Y-71971701D01*
X56613074Y-72041489D01*
X56613020Y-72049294D01*
X56613004Y-72049447D01*
X56613018Y-72049590D01*
X56613000Y-72052100D01*
X56613000Y-74035000D01*
X55687110Y-74035000D01*
X55766619Y-73875738D01*
X55864455Y-73517613D01*
X55890545Y-73147281D01*
X55843885Y-72778975D01*
X55726269Y-72426849D01*
X55600795Y-72192104D01*
X55310857Y-72066229D01*
X54177085Y-73200000D01*
X54191228Y-73214142D01*
X54011622Y-73393748D01*
X53997480Y-73379605D01*
X53983338Y-73393748D01*
X53803732Y-73214142D01*
X53817875Y-73200000D01*
X52684103Y-72066229D01*
X52471019Y-72158738D01*
X52367589Y-72003064D01*
X52251959Y-71886623D01*
X52863709Y-71886623D01*
X53997480Y-73020395D01*
X55131251Y-71886623D01*
X55005376Y-71596685D01*
X54673218Y-71430861D01*
X54315093Y-71333025D01*
X53944761Y-71306935D01*
X53576455Y-71353595D01*
X53224329Y-71471211D01*
X52989584Y-71596685D01*
X52863709Y-71886623D01*
X52251959Y-71886623D01*
X52107153Y-71740803D01*
X51800737Y-71534122D01*
X51460012Y-71390895D01*
X51097956Y-71316575D01*
X50728360Y-71313995D01*
X50365302Y-71383252D01*
X50022610Y-71521709D01*
X49713338Y-71724091D01*
X49449266Y-71982689D01*
X49240451Y-72287655D01*
X49094848Y-72627372D01*
X49018003Y-72988900D01*
X49012843Y-73358469D01*
X49030730Y-73455928D01*
X49010000Y-73435198D01*
X49010000Y-72500000D01*
X49003148Y-72430119D01*
X48997031Y-72360197D01*
X48995916Y-72356359D01*
X48995526Y-72352382D01*
X48975246Y-72285212D01*
X48955650Y-72217761D01*
X48953809Y-72214210D01*
X48952655Y-72210387D01*
X48919710Y-72148426D01*
X48887390Y-72086075D01*
X48884897Y-72082952D01*
X48883020Y-72079422D01*
X48838625Y-72024989D01*
X48794852Y-71970155D01*
X48789370Y-71964596D01*
X48789274Y-71964478D01*
X48789165Y-71964388D01*
X48787401Y-71962599D01*
X47882300Y-71057498D01*
X47882300Y-70799514D01*
X47889403Y-70835223D01*
X47937270Y-70950785D01*
X48006763Y-71054789D01*
X48095211Y-71143237D01*
X48199215Y-71212730D01*
X48314777Y-71260597D01*
X48437458Y-71285000D01*
X49114250Y-71285000D01*
X49273000Y-71126250D01*
X49273000Y-70227000D01*
X49527000Y-70227000D01*
X49527000Y-71126250D01*
X49685750Y-71285000D01*
X50362542Y-71285000D01*
X50485223Y-71260597D01*
X50600785Y-71212730D01*
X50704789Y-71143237D01*
X50793237Y-71054789D01*
X50862730Y-70950785D01*
X50910597Y-70835223D01*
X50935000Y-70712542D01*
X50935000Y-70385750D01*
X54065000Y-70385750D01*
X54065000Y-70712542D01*
X54089403Y-70835223D01*
X54137270Y-70950785D01*
X54206763Y-71054789D01*
X54295211Y-71143237D01*
X54399215Y-71212730D01*
X54514777Y-71260597D01*
X54637458Y-71285000D01*
X55314250Y-71285000D01*
X55473000Y-71126250D01*
X55473000Y-70227000D01*
X55727000Y-70227000D01*
X55727000Y-71126250D01*
X55885750Y-71285000D01*
X56562542Y-71285000D01*
X56685223Y-71260597D01*
X56800785Y-71212730D01*
X56904789Y-71143237D01*
X56993237Y-71054789D01*
X57062730Y-70950785D01*
X57110597Y-70835223D01*
X57135000Y-70712542D01*
X57135000Y-70385750D01*
X56976250Y-70227000D01*
X55727000Y-70227000D01*
X55473000Y-70227000D01*
X54223750Y-70227000D01*
X54065000Y-70385750D01*
X50935000Y-70385750D01*
X50776250Y-70227000D01*
X49527000Y-70227000D01*
X49273000Y-70227000D01*
X49253000Y-70227000D01*
X49253000Y-69973000D01*
X49273000Y-69973000D01*
X49273000Y-69073750D01*
X49527000Y-69073750D01*
X49527000Y-69973000D01*
X50776250Y-69973000D01*
X50935000Y-69814250D01*
X50935000Y-69487458D01*
X54065000Y-69487458D01*
X54065000Y-69814250D01*
X54223750Y-69973000D01*
X55473000Y-69973000D01*
X55473000Y-69073750D01*
X55727000Y-69073750D01*
X55727000Y-69973000D01*
X56976250Y-69973000D01*
X57135000Y-69814250D01*
X57135000Y-69487458D01*
X57110597Y-69364777D01*
X57062730Y-69249215D01*
X56993237Y-69145211D01*
X56904789Y-69056763D01*
X56800785Y-68987270D01*
X56685223Y-68939403D01*
X56562542Y-68915000D01*
X55885750Y-68915000D01*
X55727000Y-69073750D01*
X55473000Y-69073750D01*
X55314250Y-68915000D01*
X54637458Y-68915000D01*
X54514777Y-68939403D01*
X54399215Y-68987270D01*
X54295211Y-69056763D01*
X54206763Y-69145211D01*
X54137270Y-69249215D01*
X54089403Y-69364777D01*
X54065000Y-69487458D01*
X50935000Y-69487458D01*
X50910597Y-69364777D01*
X50862730Y-69249215D01*
X50793237Y-69145211D01*
X50704789Y-69056763D01*
X50600785Y-68987270D01*
X50485223Y-68939403D01*
X50362542Y-68915000D01*
X49685750Y-68915000D01*
X49527000Y-69073750D01*
X49273000Y-69073750D01*
X49114250Y-68915000D01*
X48437458Y-68915000D01*
X48314777Y-68939403D01*
X48199215Y-68987270D01*
X48095211Y-69056763D01*
X48006763Y-69145211D01*
X47937270Y-69249215D01*
X47889403Y-69364777D01*
X47882300Y-69400486D01*
X47882300Y-67090865D01*
X47923106Y-67222634D01*
X48021900Y-67372559D01*
X48158550Y-67489025D01*
X48322237Y-67562810D01*
X48500000Y-67588072D01*
X50300000Y-67588072D01*
X50401121Y-67580008D01*
X50572634Y-67526894D01*
X50722559Y-67428100D01*
X50839025Y-67291450D01*
X50898279Y-67160000D01*
X54103710Y-67160000D01*
X54123106Y-67222634D01*
X54221900Y-67372559D01*
X54358550Y-67489025D01*
X54522237Y-67562810D01*
X54700000Y-67588072D01*
X56500000Y-67588072D01*
X56601121Y-67580008D01*
X56772634Y-67526894D01*
X56922559Y-67428100D01*
X57039025Y-67291450D01*
X57112810Y-67127763D01*
X57138072Y-66950000D01*
X57138072Y-66750000D01*
X57646526Y-66750000D01*
X57733044Y-66810131D01*
X57901071Y-66883540D01*
X58080157Y-66922915D01*
X58263479Y-66926755D01*
X58444057Y-66894914D01*
X58615010Y-66828606D01*
X58769829Y-66730355D01*
X58902615Y-66603904D01*
X59008311Y-66454070D01*
X59082892Y-66286560D01*
X59123516Y-66107754D01*
X59126440Y-65898319D01*
X59090825Y-65718448D01*
X59020950Y-65548920D01*
X58919479Y-65396193D01*
X58790275Y-65266084D01*
X58638260Y-65163549D01*
X58469225Y-65092493D01*
X58289607Y-65055623D01*
X58106249Y-65054343D01*
X57926133Y-65088701D01*
X57756122Y-65157390D01*
X57645163Y-65230000D01*
X56627169Y-65230000D01*
X56500000Y-65211928D01*
X54700000Y-65211928D01*
X54598879Y-65219992D01*
X54427366Y-65273106D01*
X54277441Y-65371900D01*
X54160975Y-65508550D01*
X54101721Y-65640000D01*
X50896290Y-65640000D01*
X50876894Y-65577366D01*
X50778100Y-65427441D01*
X50641450Y-65310975D01*
X50477763Y-65237190D01*
X50300000Y-65211928D01*
X48500000Y-65211928D01*
X48398879Y-65219992D01*
X48227366Y-65273106D01*
X48077441Y-65371900D01*
X47960975Y-65508550D01*
X47887190Y-65672237D01*
X47882300Y-65706647D01*
X47882300Y-56922300D01*
X47875449Y-56852423D01*
X47869331Y-56782497D01*
X47868216Y-56778659D01*
X47867826Y-56774682D01*
X47847536Y-56707479D01*
X47827949Y-56640060D01*
X47826110Y-56636512D01*
X47824955Y-56632687D01*
X47792001Y-56570709D01*
X47759690Y-56508375D01*
X47757197Y-56505252D01*
X47755320Y-56501722D01*
X47710945Y-56447313D01*
X47667152Y-56392454D01*
X47661669Y-56386894D01*
X47661574Y-56386778D01*
X47661466Y-56386689D01*
X47659701Y-56384899D01*
X45565300Y-54290498D01*
X45629956Y-54005911D01*
X45635070Y-53639680D01*
X45572791Y-53325146D01*
X45566039Y-53308763D01*
X45875501Y-52999301D01*
X45920068Y-52945045D01*
X45965186Y-52891275D01*
X45967111Y-52887774D01*
X45969648Y-52884685D01*
X46002813Y-52822833D01*
X46036643Y-52761296D01*
X46037852Y-52757484D01*
X46039739Y-52753965D01*
X46060252Y-52686869D01*
X46081492Y-52619913D01*
X46081938Y-52615941D01*
X46083106Y-52612119D01*
X46090198Y-52542295D01*
X46098026Y-52472511D01*
X46098081Y-52464696D01*
X46098095Y-52464553D01*
X46098082Y-52464420D01*
X46098100Y-52461900D01*
X46098100Y-48798700D01*
X50994000Y-48798700D01*
X50994000Y-58700800D01*
X51000851Y-58770677D01*
X51006969Y-58840603D01*
X51008084Y-58844441D01*
X51008474Y-58848418D01*
X51028764Y-58915621D01*
X51048351Y-58983040D01*
X51050190Y-58986588D01*
X51051345Y-58990413D01*
X51084299Y-59052391D01*
X51116610Y-59114725D01*
X51119103Y-59117848D01*
X51120980Y-59121378D01*
X51165355Y-59175787D01*
X51209148Y-59230646D01*
X51214631Y-59236206D01*
X51214726Y-59236322D01*
X51214834Y-59236411D01*
X51216599Y-59238201D01*
X51796808Y-59818410D01*
X51681694Y-59957558D01*
X51548489Y-60203915D01*
X51465673Y-60471453D01*
X51436398Y-60749982D01*
X51461781Y-61028892D01*
X51540854Y-61297560D01*
X51670606Y-61545753D01*
X51846095Y-61764017D01*
X52060635Y-61944038D01*
X52217415Y-62030228D01*
X52077246Y-62104758D01*
X51860213Y-62281766D01*
X51681694Y-62497558D01*
X51548489Y-62743915D01*
X51465673Y-63011453D01*
X51436398Y-63289982D01*
X51461781Y-63568892D01*
X51540854Y-63837560D01*
X51670606Y-64085753D01*
X51846095Y-64304017D01*
X52060635Y-64484038D01*
X52306056Y-64618959D01*
X52573010Y-64703642D01*
X52851327Y-64734860D01*
X52871363Y-64735000D01*
X53588637Y-64735000D01*
X53867363Y-64707671D01*
X54135473Y-64626724D01*
X54382754Y-64495242D01*
X54599787Y-64318234D01*
X54778306Y-64102442D01*
X54911511Y-63856085D01*
X54994327Y-63588547D01*
X55023602Y-63310018D01*
X54998219Y-63031108D01*
X54919146Y-62762440D01*
X54789394Y-62514247D01*
X54613905Y-62295983D01*
X54399365Y-62115962D01*
X54242585Y-62029772D01*
X54382754Y-61955242D01*
X54599787Y-61778234D01*
X54778306Y-61562442D01*
X54911511Y-61316085D01*
X54994327Y-61048547D01*
X55023602Y-60770018D01*
X54998219Y-60491108D01*
X54919146Y-60222440D01*
X54789394Y-59974247D01*
X54613905Y-59755983D01*
X54399365Y-59575962D01*
X54242585Y-59489772D01*
X54382754Y-59415242D01*
X54599787Y-59238234D01*
X54778306Y-59022442D01*
X54911511Y-58776085D01*
X54994327Y-58508547D01*
X55023602Y-58230018D01*
X54998219Y-57951108D01*
X54919146Y-57682440D01*
X54789394Y-57434247D01*
X54613905Y-57215983D01*
X54399365Y-57035962D01*
X54242585Y-56949772D01*
X54382754Y-56875242D01*
X54599787Y-56698234D01*
X54778306Y-56482442D01*
X54911511Y-56236085D01*
X54994327Y-55968547D01*
X55023602Y-55690018D01*
X54998219Y-55411108D01*
X54919146Y-55142440D01*
X54789394Y-54894247D01*
X54613905Y-54675983D01*
X54399365Y-54495962D01*
X54153944Y-54361041D01*
X53886990Y-54276358D01*
X53608673Y-54245140D01*
X53588637Y-54245000D01*
X52871363Y-54245000D01*
X52592637Y-54272329D01*
X52514000Y-54296071D01*
X52514000Y-50684923D01*
X52573010Y-50703642D01*
X52851327Y-50734860D01*
X52871363Y-50735000D01*
X53588637Y-50735000D01*
X53867363Y-50707671D01*
X54135473Y-50626724D01*
X54382754Y-50495242D01*
X54599787Y-50318234D01*
X54778306Y-50102442D01*
X54911511Y-49856085D01*
X54994327Y-49588547D01*
X55023602Y-49310018D01*
X54998219Y-49031108D01*
X54919146Y-48762440D01*
X54789394Y-48514247D01*
X54613905Y-48295983D01*
X54399365Y-48115962D01*
X54242585Y-48029772D01*
X54382754Y-47955242D01*
X54599787Y-47778234D01*
X54778306Y-47562442D01*
X54911511Y-47316085D01*
X54994327Y-47048547D01*
X55023602Y-46770018D01*
X54998219Y-46491108D01*
X54919146Y-46222440D01*
X54789394Y-45974247D01*
X54613905Y-45755983D01*
X54399365Y-45575962D01*
X54242585Y-45489772D01*
X54382754Y-45415242D01*
X54599787Y-45238234D01*
X54778306Y-45022442D01*
X54911511Y-44776085D01*
X54994327Y-44508547D01*
X55023602Y-44230018D01*
X54998219Y-43951108D01*
X54919146Y-43682440D01*
X54789394Y-43434247D01*
X54613905Y-43215983D01*
X54399365Y-43035962D01*
X54242585Y-42949772D01*
X54382754Y-42875242D01*
X54599787Y-42698234D01*
X54778306Y-42482442D01*
X54911511Y-42236085D01*
X54994327Y-41968547D01*
X55023602Y-41690018D01*
X54998219Y-41411108D01*
X54919146Y-41142440D01*
X54789394Y-40894247D01*
X54613905Y-40675983D01*
X54399365Y-40495962D01*
X54153944Y-40361041D01*
X53886990Y-40276358D01*
X53608673Y-40245140D01*
X53588637Y-40245000D01*
X52871363Y-40245000D01*
X52592637Y-40272329D01*
X52324527Y-40353276D01*
X52077246Y-40484758D01*
X51860213Y-40661766D01*
X51681694Y-40877558D01*
X51548489Y-41123915D01*
X51465673Y-41391453D01*
X51436398Y-41669982D01*
X51461781Y-41948892D01*
X51540854Y-42217560D01*
X51670606Y-42465753D01*
X51846095Y-42684017D01*
X52060635Y-42864038D01*
X52217415Y-42950228D01*
X52077246Y-43024758D01*
X51860213Y-43201766D01*
X51681694Y-43417558D01*
X51548489Y-43663915D01*
X51465673Y-43931453D01*
X51436398Y-44209982D01*
X51461781Y-44488892D01*
X51540854Y-44757560D01*
X51670606Y-45005753D01*
X51846095Y-45224017D01*
X52060635Y-45404038D01*
X52217415Y-45490228D01*
X52077246Y-45564758D01*
X51860213Y-45741766D01*
X51681694Y-45957558D01*
X51548489Y-46203915D01*
X51465673Y-46471453D01*
X51436398Y-46749982D01*
X51461781Y-47028892D01*
X51540854Y-47297560D01*
X51670606Y-47545753D01*
X51787169Y-47690729D01*
X51216599Y-48261299D01*
X51172032Y-48315555D01*
X51126914Y-48369325D01*
X51124989Y-48372826D01*
X51122452Y-48375915D01*
X51089287Y-48437767D01*
X51055457Y-48499304D01*
X51054248Y-48503116D01*
X51052361Y-48506635D01*
X51031848Y-48573731D01*
X51010608Y-48640687D01*
X51010162Y-48644659D01*
X51008994Y-48648481D01*
X51001897Y-48718349D01*
X50994074Y-48788089D01*
X50994020Y-48795894D01*
X50994004Y-48796047D01*
X50994018Y-48796190D01*
X50994000Y-48798700D01*
X46098100Y-48798700D01*
X46098100Y-42638100D01*
X46091249Y-42568223D01*
X46085131Y-42498297D01*
X46084016Y-42494459D01*
X46083626Y-42490482D01*
X46063336Y-42423279D01*
X46043749Y-42355860D01*
X46041910Y-42352312D01*
X46040755Y-42348487D01*
X46007791Y-42286490D01*
X45975489Y-42224174D01*
X45972997Y-42221053D01*
X45971120Y-42217522D01*
X45926741Y-42163107D01*
X45882952Y-42108254D01*
X45877469Y-42102694D01*
X45877374Y-42102578D01*
X45877266Y-42102489D01*
X45875501Y-42100699D01*
X45565300Y-41790498D01*
X45629956Y-41505911D01*
X45635070Y-41139680D01*
X45572791Y-40825146D01*
X45450604Y-40528700D01*
X45273165Y-40261632D01*
X45047231Y-40034115D01*
X44781408Y-39854816D01*
X44670787Y-39808315D01*
X44924502Y-39554600D01*
X65939463Y-39554600D01*
X65915673Y-39631453D01*
G36*
X73618489Y-54603915D02*
X73535673Y-54871453D01*
X73506398Y-55149982D01*
X73531781Y-55428892D01*
X73610854Y-55697560D01*
X73740606Y-55945753D01*
X73852668Y-56085130D01*
X72824899Y-57112899D01*
X72780332Y-57167155D01*
X72735214Y-57220925D01*
X72733289Y-57224426D01*
X72730752Y-57227515D01*
X72697587Y-57289367D01*
X72663757Y-57350904D01*
X72662548Y-57354716D01*
X72660661Y-57358235D01*
X72640148Y-57425331D01*
X72618908Y-57492287D01*
X72618462Y-57496259D01*
X72617294Y-57500081D01*
X72610197Y-57569949D01*
X72602374Y-57639689D01*
X72602320Y-57647494D01*
X72602304Y-57647647D01*
X72602318Y-57647790D01*
X72602300Y-57650300D01*
X72602300Y-71457498D01*
X69408639Y-68263837D01*
X69444327Y-68148547D01*
X69473602Y-67870018D01*
X69448219Y-67591108D01*
X69369146Y-67322440D01*
X69239394Y-67074247D01*
X69124346Y-66931156D01*
X69742601Y-66312901D01*
X69787168Y-66258645D01*
X69832286Y-66204875D01*
X69834211Y-66201374D01*
X69836748Y-66198285D01*
X69869913Y-66136433D01*
X69903743Y-66074896D01*
X69904952Y-66071084D01*
X69906839Y-66067565D01*
X69927352Y-66000469D01*
X69948592Y-65933513D01*
X69949038Y-65929541D01*
X69950206Y-65925719D01*
X69957303Y-65855851D01*
X69965126Y-65786111D01*
X69965180Y-65778306D01*
X69965196Y-65778153D01*
X69965182Y-65778010D01*
X69965200Y-65775500D01*
X69965200Y-57283500D01*
X69958349Y-57213623D01*
X69952231Y-57143697D01*
X69951116Y-57139859D01*
X69950726Y-57135882D01*
X69930436Y-57068679D01*
X69910849Y-57001260D01*
X69909010Y-56997712D01*
X69907855Y-56993887D01*
X69874891Y-56931890D01*
X69842589Y-56869574D01*
X69840097Y-56866453D01*
X69838220Y-56862922D01*
X69793841Y-56808507D01*
X69750052Y-56753654D01*
X69744569Y-56748094D01*
X69744474Y-56747978D01*
X69744366Y-56747889D01*
X69742601Y-56746099D01*
X69107686Y-56111184D01*
X69134500Y-56084895D01*
X69293715Y-55851646D01*
X69404367Y-55591818D01*
X69421904Y-55509039D01*
X69299915Y-55287000D01*
X67807000Y-55287000D01*
X67807000Y-55307000D01*
X67553000Y-55307000D01*
X67553000Y-55287000D01*
X67533000Y-55287000D01*
X67533000Y-55033000D01*
X67553000Y-55033000D01*
X67553000Y-55013000D01*
X67807000Y-55013000D01*
X67807000Y-55033000D01*
X69299915Y-55033000D01*
X69421904Y-54810961D01*
X69404367Y-54728182D01*
X69309449Y-54505300D01*
X73671810Y-54505300D01*
X73618489Y-54603915D01*
X73618489Y-54603915D01*
G37*
X73618489Y-54603915D02*
X73535673Y-54871453D01*
X73506398Y-55149982D01*
X73531781Y-55428892D01*
X73610854Y-55697560D01*
X73740606Y-55945753D01*
X73852668Y-56085130D01*
X72824899Y-57112899D01*
X72780332Y-57167155D01*
X72735214Y-57220925D01*
X72733289Y-57224426D01*
X72730752Y-57227515D01*
X72697587Y-57289367D01*
X72663757Y-57350904D01*
X72662548Y-57354716D01*
X72660661Y-57358235D01*
X72640148Y-57425331D01*
X72618908Y-57492287D01*
X72618462Y-57496259D01*
X72617294Y-57500081D01*
X72610197Y-57569949D01*
X72602374Y-57639689D01*
X72602320Y-57647494D01*
X72602304Y-57647647D01*
X72602318Y-57647790D01*
X72602300Y-57650300D01*
X72602300Y-71457498D01*
X69408639Y-68263837D01*
X69444327Y-68148547D01*
X69473602Y-67870018D01*
X69448219Y-67591108D01*
X69369146Y-67322440D01*
X69239394Y-67074247D01*
X69124346Y-66931156D01*
X69742601Y-66312901D01*
X69787168Y-66258645D01*
X69832286Y-66204875D01*
X69834211Y-66201374D01*
X69836748Y-66198285D01*
X69869913Y-66136433D01*
X69903743Y-66074896D01*
X69904952Y-66071084D01*
X69906839Y-66067565D01*
X69927352Y-66000469D01*
X69948592Y-65933513D01*
X69949038Y-65929541D01*
X69950206Y-65925719D01*
X69957303Y-65855851D01*
X69965126Y-65786111D01*
X69965180Y-65778306D01*
X69965196Y-65778153D01*
X69965182Y-65778010D01*
X69965200Y-65775500D01*
X69965200Y-57283500D01*
X69958349Y-57213623D01*
X69952231Y-57143697D01*
X69951116Y-57139859D01*
X69950726Y-57135882D01*
X69930436Y-57068679D01*
X69910849Y-57001260D01*
X69909010Y-56997712D01*
X69907855Y-56993887D01*
X69874891Y-56931890D01*
X69842589Y-56869574D01*
X69840097Y-56866453D01*
X69838220Y-56862922D01*
X69793841Y-56808507D01*
X69750052Y-56753654D01*
X69744569Y-56748094D01*
X69744474Y-56747978D01*
X69744366Y-56747889D01*
X69742601Y-56746099D01*
X69107686Y-56111184D01*
X69134500Y-56084895D01*
X69293715Y-55851646D01*
X69404367Y-55591818D01*
X69421904Y-55509039D01*
X69299915Y-55287000D01*
X67807000Y-55287000D01*
X67807000Y-55307000D01*
X67553000Y-55307000D01*
X67553000Y-55287000D01*
X67533000Y-55287000D01*
X67533000Y-55033000D01*
X67553000Y-55033000D01*
X67553000Y-55013000D01*
X67807000Y-55013000D01*
X67807000Y-55033000D01*
X69299915Y-55033000D01*
X69421904Y-54810961D01*
X69404367Y-54728182D01*
X69309449Y-54505300D01*
X73671810Y-54505300D01*
X73618489Y-54603915D01*
G36*
X63336828Y-37245770D02*
X63223433Y-37267401D01*
X63053422Y-37336090D01*
X62899991Y-37436493D01*
X62768983Y-37564786D01*
X62665389Y-37716081D01*
X62593154Y-37884616D01*
X62561274Y-38034600D01*
X44609700Y-38034600D01*
X44539773Y-38041456D01*
X44469897Y-38047570D01*
X44466064Y-38048684D01*
X44462082Y-38049074D01*
X44394838Y-38069376D01*
X44327460Y-38088951D01*
X44323912Y-38090790D01*
X44320087Y-38091945D01*
X44258090Y-38124909D01*
X44195774Y-38157211D01*
X44192653Y-38159703D01*
X44189122Y-38161580D01*
X44134707Y-38205959D01*
X44079854Y-38249748D01*
X44074294Y-38255231D01*
X44074178Y-38255326D01*
X44074089Y-38255434D01*
X44072299Y-38257199D01*
X41541099Y-40788399D01*
X41496532Y-40842655D01*
X41451414Y-40896425D01*
X41449489Y-40899926D01*
X41446952Y-40903015D01*
X41413787Y-40964867D01*
X41379957Y-41026404D01*
X41378748Y-41030216D01*
X41376861Y-41033735D01*
X41356348Y-41100831D01*
X41335108Y-41167787D01*
X41334662Y-41171759D01*
X41333494Y-41175581D01*
X41326397Y-41245449D01*
X41318574Y-41315189D01*
X41318520Y-41322994D01*
X41318504Y-41323147D01*
X41318518Y-41323290D01*
X41318500Y-41325800D01*
X41318500Y-69487900D01*
X41325351Y-69557777D01*
X41331469Y-69627703D01*
X41332584Y-69631541D01*
X41332974Y-69635518D01*
X41353264Y-69702721D01*
X41372851Y-69770140D01*
X41374690Y-69773688D01*
X41375845Y-69777513D01*
X41408799Y-69839491D01*
X41441110Y-69901825D01*
X41443603Y-69904948D01*
X41445480Y-69908478D01*
X41489855Y-69962887D01*
X41519961Y-70000600D01*
X38234633Y-70000600D01*
X38075088Y-69760464D01*
X37857472Y-69541324D01*
X37601437Y-69368627D01*
X37316734Y-69248948D01*
X37014208Y-69186849D01*
X36705381Y-69184693D01*
X36402017Y-69242562D01*
X36210000Y-69320142D01*
X36210000Y-67678922D01*
X36359805Y-67744371D01*
X36661435Y-67810688D01*
X36970202Y-67817156D01*
X37274344Y-67763528D01*
X37562278Y-67651846D01*
X37823035Y-67486364D01*
X38046684Y-67273386D01*
X38224706Y-67021023D01*
X38350320Y-66738889D01*
X38418742Y-66437730D01*
X38423668Y-66084983D01*
X38363682Y-65782030D01*
X38245994Y-65496499D01*
X38075088Y-65239264D01*
X37857472Y-65020124D01*
X37601437Y-64847427D01*
X37367005Y-64748880D01*
X37477446Y-64643708D01*
X37622708Y-64437787D01*
X37725206Y-64207572D01*
X37749034Y-64102690D01*
X37758802Y-64155908D01*
X37851570Y-64390213D01*
X37988081Y-64602037D01*
X38163136Y-64783312D01*
X38370067Y-64927133D01*
X38600992Y-65028021D01*
X38847115Y-65082135D01*
X39099061Y-65087412D01*
X39347234Y-65043653D01*
X39582181Y-64952523D01*
X39794953Y-64817494D01*
X39977446Y-64643708D01*
X40122708Y-64437787D01*
X40225206Y-64207572D01*
X40281036Y-63961833D01*
X40285056Y-63673999D01*
X40236108Y-63426797D01*
X40140078Y-63193810D01*
X40000622Y-62983912D01*
X39823053Y-62805099D01*
X39614135Y-62664182D01*
X39381824Y-62566527D01*
X39134969Y-62515855D01*
X38882974Y-62514096D01*
X38635436Y-62561317D01*
X38401784Y-62655718D01*
X38190918Y-62793705D01*
X38010870Y-62970021D01*
X37868497Y-63177951D01*
X37769223Y-63409575D01*
X37750313Y-63498538D01*
X37736108Y-63426797D01*
X37640078Y-63193810D01*
X37500622Y-62983912D01*
X37323053Y-62805099D01*
X37114135Y-62664182D01*
X36881824Y-62566527D01*
X36634969Y-62515855D01*
X36382974Y-62514096D01*
X36210000Y-62547093D01*
X36210000Y-59935413D01*
X38044192Y-59935413D01*
X38139956Y-60199814D01*
X38429571Y-60340704D01*
X38741108Y-60422384D01*
X39062595Y-60441718D01*
X39381675Y-60397961D01*
X39686088Y-60292795D01*
X39860044Y-60199814D01*
X39955808Y-59935413D01*
X39000000Y-58979605D01*
X38044192Y-59935413D01*
X36210000Y-59935413D01*
X36210000Y-58862595D01*
X37358282Y-58862595D01*
X37402039Y-59181675D01*
X37507205Y-59486088D01*
X37600186Y-59660044D01*
X37864587Y-59755808D01*
X38820395Y-58800000D01*
X39179605Y-58800000D01*
X40135413Y-59755808D01*
X40399814Y-59660044D01*
X40540704Y-59370429D01*
X40622384Y-59058892D01*
X40641718Y-58737405D01*
X40597961Y-58418325D01*
X40492795Y-58113912D01*
X40399814Y-57939956D01*
X40135413Y-57844192D01*
X39179605Y-58800000D01*
X38820395Y-58800000D01*
X37864587Y-57844192D01*
X37600186Y-57939956D01*
X37459296Y-58229571D01*
X37377616Y-58541108D01*
X37358282Y-58862595D01*
X36210000Y-58862595D01*
X36210000Y-57664587D01*
X38044192Y-57664587D01*
X39000000Y-58620395D01*
X39955808Y-57664587D01*
X39860044Y-57400186D01*
X39570429Y-57259296D01*
X39258892Y-57177616D01*
X38937405Y-57158282D01*
X38618325Y-57202039D01*
X38313912Y-57307205D01*
X38139956Y-57400186D01*
X38044192Y-57664587D01*
X36210000Y-57664587D01*
X36210000Y-55051988D01*
X36347115Y-55082135D01*
X36599061Y-55087412D01*
X36847234Y-55043653D01*
X37082181Y-54952523D01*
X37294953Y-54817494D01*
X37477446Y-54643708D01*
X37622708Y-54437787D01*
X37725206Y-54207572D01*
X37749034Y-54102690D01*
X37758802Y-54155908D01*
X37851570Y-54390213D01*
X37988081Y-54602037D01*
X38163136Y-54783312D01*
X38370067Y-54927133D01*
X38600992Y-55028021D01*
X38847115Y-55082135D01*
X39099061Y-55087412D01*
X39347234Y-55043653D01*
X39582181Y-54952523D01*
X39794953Y-54817494D01*
X39977446Y-54643708D01*
X40122708Y-54437787D01*
X40225206Y-54207572D01*
X40281036Y-53961833D01*
X40285056Y-53673999D01*
X40236108Y-53426797D01*
X40140078Y-53193810D01*
X40000622Y-52983912D01*
X39823053Y-52805099D01*
X39614135Y-52664182D01*
X39381824Y-52566527D01*
X39305898Y-52550942D01*
X39347234Y-52543653D01*
X39582181Y-52452523D01*
X39794953Y-52317494D01*
X39977446Y-52143708D01*
X40122708Y-51937787D01*
X40225206Y-51707572D01*
X40281036Y-51461833D01*
X40285056Y-51173999D01*
X40236108Y-50926797D01*
X40140078Y-50693810D01*
X40000622Y-50483912D01*
X39823053Y-50305099D01*
X39614135Y-50164182D01*
X39381824Y-50066527D01*
X39134969Y-50015855D01*
X38882974Y-50014096D01*
X38635436Y-50061317D01*
X38401784Y-50155718D01*
X38190918Y-50293705D01*
X38010870Y-50470021D01*
X37868497Y-50677951D01*
X37769223Y-50909575D01*
X37750313Y-50998538D01*
X37736108Y-50926797D01*
X37640078Y-50693810D01*
X37500622Y-50483912D01*
X37323053Y-50305099D01*
X37114135Y-50164182D01*
X36881824Y-50066527D01*
X36634969Y-50015855D01*
X36382974Y-50014096D01*
X36210000Y-50047093D01*
X36210000Y-47435413D01*
X38044192Y-47435413D01*
X38139956Y-47699814D01*
X38429571Y-47840704D01*
X38741108Y-47922384D01*
X39062595Y-47941718D01*
X39381675Y-47897961D01*
X39686088Y-47792795D01*
X39860044Y-47699814D01*
X39955808Y-47435413D01*
X39000000Y-46479605D01*
X38044192Y-47435413D01*
X36210000Y-47435413D01*
X36210000Y-46362595D01*
X37358282Y-46362595D01*
X37402039Y-46681675D01*
X37507205Y-46986088D01*
X37600186Y-47160044D01*
X37864587Y-47255808D01*
X38820395Y-46300000D01*
X39179605Y-46300000D01*
X40135413Y-47255808D01*
X40399814Y-47160044D01*
X40540704Y-46870429D01*
X40622384Y-46558892D01*
X40641718Y-46237405D01*
X40597961Y-45918325D01*
X40492795Y-45613912D01*
X40399814Y-45439956D01*
X40135413Y-45344192D01*
X39179605Y-46300000D01*
X38820395Y-46300000D01*
X37864587Y-45344192D01*
X37600186Y-45439956D01*
X37459296Y-45729571D01*
X37377616Y-46041108D01*
X37358282Y-46362595D01*
X36210000Y-46362595D01*
X36210000Y-45164587D01*
X38044192Y-45164587D01*
X39000000Y-46120395D01*
X39955808Y-45164587D01*
X39860044Y-44900186D01*
X39570429Y-44759296D01*
X39258892Y-44677616D01*
X38937405Y-44658282D01*
X38618325Y-44702039D01*
X38313912Y-44807205D01*
X38139956Y-44900186D01*
X38044192Y-45164587D01*
X36210000Y-45164587D01*
X36210000Y-42551988D01*
X36347115Y-42582135D01*
X36599061Y-42587412D01*
X36847234Y-42543653D01*
X37082181Y-42452523D01*
X37294953Y-42317494D01*
X37477446Y-42143708D01*
X37622708Y-41937787D01*
X37725206Y-41707572D01*
X37749034Y-41602690D01*
X37758802Y-41655908D01*
X37851570Y-41890213D01*
X37988081Y-42102037D01*
X38163136Y-42283312D01*
X38370067Y-42427133D01*
X38600992Y-42528021D01*
X38847115Y-42582135D01*
X39099061Y-42587412D01*
X39347234Y-42543653D01*
X39582181Y-42452523D01*
X39794953Y-42317494D01*
X39977446Y-42143708D01*
X40122708Y-41937787D01*
X40225206Y-41707572D01*
X40281036Y-41461833D01*
X40285056Y-41173999D01*
X40236108Y-40926797D01*
X40140078Y-40693810D01*
X40000622Y-40483912D01*
X39823053Y-40305099D01*
X39614135Y-40164182D01*
X39381824Y-40066527D01*
X39134969Y-40015855D01*
X38882974Y-40014096D01*
X38635436Y-40061317D01*
X38401784Y-40155718D01*
X38190918Y-40293705D01*
X38010870Y-40470021D01*
X37868497Y-40677951D01*
X37769223Y-40909575D01*
X37750313Y-40998538D01*
X37736108Y-40926797D01*
X37640078Y-40693810D01*
X37500622Y-40483912D01*
X37323053Y-40305099D01*
X37114135Y-40164182D01*
X36881824Y-40066527D01*
X36634969Y-40015855D01*
X36382974Y-40014096D01*
X36210000Y-40047093D01*
X36210000Y-39088242D01*
X36578468Y-39280872D01*
X37039042Y-39416427D01*
X37517174Y-39459940D01*
X37994652Y-39409755D01*
X38453288Y-39267783D01*
X38875615Y-39039432D01*
X39245544Y-38733400D01*
X39548986Y-38361343D01*
X39774383Y-37937433D01*
X39913150Y-37477817D01*
X39960000Y-37000000D01*
X39959041Y-36931313D01*
X39898867Y-36454991D01*
X39747322Y-35999428D01*
X39582903Y-35710000D01*
X64872598Y-35710000D01*
X63336828Y-37245770D01*
X63336828Y-37245770D01*
G37*
X63336828Y-37245770D02*
X63223433Y-37267401D01*
X63053422Y-37336090D01*
X62899991Y-37436493D01*
X62768983Y-37564786D01*
X62665389Y-37716081D01*
X62593154Y-37884616D01*
X62561274Y-38034600D01*
X44609700Y-38034600D01*
X44539773Y-38041456D01*
X44469897Y-38047570D01*
X44466064Y-38048684D01*
X44462082Y-38049074D01*
X44394838Y-38069376D01*
X44327460Y-38088951D01*
X44323912Y-38090790D01*
X44320087Y-38091945D01*
X44258090Y-38124909D01*
X44195774Y-38157211D01*
X44192653Y-38159703D01*
X44189122Y-38161580D01*
X44134707Y-38205959D01*
X44079854Y-38249748D01*
X44074294Y-38255231D01*
X44074178Y-38255326D01*
X44074089Y-38255434D01*
X44072299Y-38257199D01*
X41541099Y-40788399D01*
X41496532Y-40842655D01*
X41451414Y-40896425D01*
X41449489Y-40899926D01*
X41446952Y-40903015D01*
X41413787Y-40964867D01*
X41379957Y-41026404D01*
X41378748Y-41030216D01*
X41376861Y-41033735D01*
X41356348Y-41100831D01*
X41335108Y-41167787D01*
X41334662Y-41171759D01*
X41333494Y-41175581D01*
X41326397Y-41245449D01*
X41318574Y-41315189D01*
X41318520Y-41322994D01*
X41318504Y-41323147D01*
X41318518Y-41323290D01*
X41318500Y-41325800D01*
X41318500Y-69487900D01*
X41325351Y-69557777D01*
X41331469Y-69627703D01*
X41332584Y-69631541D01*
X41332974Y-69635518D01*
X41353264Y-69702721D01*
X41372851Y-69770140D01*
X41374690Y-69773688D01*
X41375845Y-69777513D01*
X41408799Y-69839491D01*
X41441110Y-69901825D01*
X41443603Y-69904948D01*
X41445480Y-69908478D01*
X41489855Y-69962887D01*
X41519961Y-70000600D01*
X38234633Y-70000600D01*
X38075088Y-69760464D01*
X37857472Y-69541324D01*
X37601437Y-69368627D01*
X37316734Y-69248948D01*
X37014208Y-69186849D01*
X36705381Y-69184693D01*
X36402017Y-69242562D01*
X36210000Y-69320142D01*
X36210000Y-67678922D01*
X36359805Y-67744371D01*
X36661435Y-67810688D01*
X36970202Y-67817156D01*
X37274344Y-67763528D01*
X37562278Y-67651846D01*
X37823035Y-67486364D01*
X38046684Y-67273386D01*
X38224706Y-67021023D01*
X38350320Y-66738889D01*
X38418742Y-66437730D01*
X38423668Y-66084983D01*
X38363682Y-65782030D01*
X38245994Y-65496499D01*
X38075088Y-65239264D01*
X37857472Y-65020124D01*
X37601437Y-64847427D01*
X37367005Y-64748880D01*
X37477446Y-64643708D01*
X37622708Y-64437787D01*
X37725206Y-64207572D01*
X37749034Y-64102690D01*
X37758802Y-64155908D01*
X37851570Y-64390213D01*
X37988081Y-64602037D01*
X38163136Y-64783312D01*
X38370067Y-64927133D01*
X38600992Y-65028021D01*
X38847115Y-65082135D01*
X39099061Y-65087412D01*
X39347234Y-65043653D01*
X39582181Y-64952523D01*
X39794953Y-64817494D01*
X39977446Y-64643708D01*
X40122708Y-64437787D01*
X40225206Y-64207572D01*
X40281036Y-63961833D01*
X40285056Y-63673999D01*
X40236108Y-63426797D01*
X40140078Y-63193810D01*
X40000622Y-62983912D01*
X39823053Y-62805099D01*
X39614135Y-62664182D01*
X39381824Y-62566527D01*
X39134969Y-62515855D01*
X38882974Y-62514096D01*
X38635436Y-62561317D01*
X38401784Y-62655718D01*
X38190918Y-62793705D01*
X38010870Y-62970021D01*
X37868497Y-63177951D01*
X37769223Y-63409575D01*
X37750313Y-63498538D01*
X37736108Y-63426797D01*
X37640078Y-63193810D01*
X37500622Y-62983912D01*
X37323053Y-62805099D01*
X37114135Y-62664182D01*
X36881824Y-62566527D01*
X36634969Y-62515855D01*
X36382974Y-62514096D01*
X36210000Y-62547093D01*
X36210000Y-59935413D01*
X38044192Y-59935413D01*
X38139956Y-60199814D01*
X38429571Y-60340704D01*
X38741108Y-60422384D01*
X39062595Y-60441718D01*
X39381675Y-60397961D01*
X39686088Y-60292795D01*
X39860044Y-60199814D01*
X39955808Y-59935413D01*
X39000000Y-58979605D01*
X38044192Y-59935413D01*
X36210000Y-59935413D01*
X36210000Y-58862595D01*
X37358282Y-58862595D01*
X37402039Y-59181675D01*
X37507205Y-59486088D01*
X37600186Y-59660044D01*
X37864587Y-59755808D01*
X38820395Y-58800000D01*
X39179605Y-58800000D01*
X40135413Y-59755808D01*
X40399814Y-59660044D01*
X40540704Y-59370429D01*
X40622384Y-59058892D01*
X40641718Y-58737405D01*
X40597961Y-58418325D01*
X40492795Y-58113912D01*
X40399814Y-57939956D01*
X40135413Y-57844192D01*
X39179605Y-58800000D01*
X38820395Y-58800000D01*
X37864587Y-57844192D01*
X37600186Y-57939956D01*
X37459296Y-58229571D01*
X37377616Y-58541108D01*
X37358282Y-58862595D01*
X36210000Y-58862595D01*
X36210000Y-57664587D01*
X38044192Y-57664587D01*
X39000000Y-58620395D01*
X39955808Y-57664587D01*
X39860044Y-57400186D01*
X39570429Y-57259296D01*
X39258892Y-57177616D01*
X38937405Y-57158282D01*
X38618325Y-57202039D01*
X38313912Y-57307205D01*
X38139956Y-57400186D01*
X38044192Y-57664587D01*
X36210000Y-57664587D01*
X36210000Y-55051988D01*
X36347115Y-55082135D01*
X36599061Y-55087412D01*
X36847234Y-55043653D01*
X37082181Y-54952523D01*
X37294953Y-54817494D01*
X37477446Y-54643708D01*
X37622708Y-54437787D01*
X37725206Y-54207572D01*
X37749034Y-54102690D01*
X37758802Y-54155908D01*
X37851570Y-54390213D01*
X37988081Y-54602037D01*
X38163136Y-54783312D01*
X38370067Y-54927133D01*
X38600992Y-55028021D01*
X38847115Y-55082135D01*
X39099061Y-55087412D01*
X39347234Y-55043653D01*
X39582181Y-54952523D01*
X39794953Y-54817494D01*
X39977446Y-54643708D01*
X40122708Y-54437787D01*
X40225206Y-54207572D01*
X40281036Y-53961833D01*
X40285056Y-53673999D01*
X40236108Y-53426797D01*
X40140078Y-53193810D01*
X40000622Y-52983912D01*
X39823053Y-52805099D01*
X39614135Y-52664182D01*
X39381824Y-52566527D01*
X39305898Y-52550942D01*
X39347234Y-52543653D01*
X39582181Y-52452523D01*
X39794953Y-52317494D01*
X39977446Y-52143708D01*
X40122708Y-51937787D01*
X40225206Y-51707572D01*
X40281036Y-51461833D01*
X40285056Y-51173999D01*
X40236108Y-50926797D01*
X40140078Y-50693810D01*
X40000622Y-50483912D01*
X39823053Y-50305099D01*
X39614135Y-50164182D01*
X39381824Y-50066527D01*
X39134969Y-50015855D01*
X38882974Y-50014096D01*
X38635436Y-50061317D01*
X38401784Y-50155718D01*
X38190918Y-50293705D01*
X38010870Y-50470021D01*
X37868497Y-50677951D01*
X37769223Y-50909575D01*
X37750313Y-50998538D01*
X37736108Y-50926797D01*
X37640078Y-50693810D01*
X37500622Y-50483912D01*
X37323053Y-50305099D01*
X37114135Y-50164182D01*
X36881824Y-50066527D01*
X36634969Y-50015855D01*
X36382974Y-50014096D01*
X36210000Y-50047093D01*
X36210000Y-47435413D01*
X38044192Y-47435413D01*
X38139956Y-47699814D01*
X38429571Y-47840704D01*
X38741108Y-47922384D01*
X39062595Y-47941718D01*
X39381675Y-47897961D01*
X39686088Y-47792795D01*
X39860044Y-47699814D01*
X39955808Y-47435413D01*
X39000000Y-46479605D01*
X38044192Y-47435413D01*
X36210000Y-47435413D01*
X36210000Y-46362595D01*
X37358282Y-46362595D01*
X37402039Y-46681675D01*
X37507205Y-46986088D01*
X37600186Y-47160044D01*
X37864587Y-47255808D01*
X38820395Y-46300000D01*
X39179605Y-46300000D01*
X40135413Y-47255808D01*
X40399814Y-47160044D01*
X40540704Y-46870429D01*
X40622384Y-46558892D01*
X40641718Y-46237405D01*
X40597961Y-45918325D01*
X40492795Y-45613912D01*
X40399814Y-45439956D01*
X40135413Y-45344192D01*
X39179605Y-46300000D01*
X38820395Y-46300000D01*
X37864587Y-45344192D01*
X37600186Y-45439956D01*
X37459296Y-45729571D01*
X37377616Y-46041108D01*
X37358282Y-46362595D01*
X36210000Y-46362595D01*
X36210000Y-45164587D01*
X38044192Y-45164587D01*
X39000000Y-46120395D01*
X39955808Y-45164587D01*
X39860044Y-44900186D01*
X39570429Y-44759296D01*
X39258892Y-44677616D01*
X38937405Y-44658282D01*
X38618325Y-44702039D01*
X38313912Y-44807205D01*
X38139956Y-44900186D01*
X38044192Y-45164587D01*
X36210000Y-45164587D01*
X36210000Y-42551988D01*
X36347115Y-42582135D01*
X36599061Y-42587412D01*
X36847234Y-42543653D01*
X37082181Y-42452523D01*
X37294953Y-42317494D01*
X37477446Y-42143708D01*
X37622708Y-41937787D01*
X37725206Y-41707572D01*
X37749034Y-41602690D01*
X37758802Y-41655908D01*
X37851570Y-41890213D01*
X37988081Y-42102037D01*
X38163136Y-42283312D01*
X38370067Y-42427133D01*
X38600992Y-42528021D01*
X38847115Y-42582135D01*
X39099061Y-42587412D01*
X39347234Y-42543653D01*
X39582181Y-42452523D01*
X39794953Y-42317494D01*
X39977446Y-42143708D01*
X40122708Y-41937787D01*
X40225206Y-41707572D01*
X40281036Y-41461833D01*
X40285056Y-41173999D01*
X40236108Y-40926797D01*
X40140078Y-40693810D01*
X40000622Y-40483912D01*
X39823053Y-40305099D01*
X39614135Y-40164182D01*
X39381824Y-40066527D01*
X39134969Y-40015855D01*
X38882974Y-40014096D01*
X38635436Y-40061317D01*
X38401784Y-40155718D01*
X38190918Y-40293705D01*
X38010870Y-40470021D01*
X37868497Y-40677951D01*
X37769223Y-40909575D01*
X37750313Y-40998538D01*
X37736108Y-40926797D01*
X37640078Y-40693810D01*
X37500622Y-40483912D01*
X37323053Y-40305099D01*
X37114135Y-40164182D01*
X36881824Y-40066527D01*
X36634969Y-40015855D01*
X36382974Y-40014096D01*
X36210000Y-40047093D01*
X36210000Y-39088242D01*
X36578468Y-39280872D01*
X37039042Y-39416427D01*
X37517174Y-39459940D01*
X37994652Y-39409755D01*
X38453288Y-39267783D01*
X38875615Y-39039432D01*
X39245544Y-38733400D01*
X39548986Y-38361343D01*
X39774383Y-37937433D01*
X39913150Y-37477817D01*
X39960000Y-37000000D01*
X39959041Y-36931313D01*
X39898867Y-36454991D01*
X39747322Y-35999428D01*
X39582903Y-35710000D01*
X64872598Y-35710000D01*
X63336828Y-37245770D01*
G36*
X71269400Y-48794300D02*
X71276251Y-48864177D01*
X71282369Y-48934103D01*
X71283484Y-48937941D01*
X71283874Y-48941918D01*
X71304164Y-49009121D01*
X71323751Y-49076540D01*
X71325590Y-49080088D01*
X71326745Y-49083913D01*
X71359699Y-49145891D01*
X71392010Y-49208225D01*
X71394503Y-49211348D01*
X71396380Y-49214878D01*
X71440755Y-49269287D01*
X71484548Y-49324146D01*
X71490031Y-49329706D01*
X71490126Y-49329822D01*
X71490234Y-49329911D01*
X71491999Y-49331701D01*
X73850501Y-51690203D01*
X73845500Y-51695105D01*
X73686285Y-51928354D01*
X73575633Y-52188182D01*
X73558096Y-52270961D01*
X73680085Y-52493000D01*
X75173000Y-52493000D01*
X75173000Y-52473000D01*
X75427000Y-52473000D01*
X75427000Y-52493000D01*
X76919915Y-52493000D01*
X77041904Y-52270961D01*
X77024367Y-52188182D01*
X76948792Y-52010720D01*
X77002044Y-52047731D01*
X77170071Y-52121140D01*
X77325700Y-52155358D01*
X77325700Y-55724000D01*
X77332551Y-55793877D01*
X77338669Y-55863803D01*
X77339784Y-55867641D01*
X77340174Y-55871618D01*
X77360464Y-55938821D01*
X77380051Y-56006240D01*
X77381890Y-56009788D01*
X77383045Y-56013613D01*
X77415999Y-56075591D01*
X77448310Y-56137925D01*
X77450803Y-56141048D01*
X77452680Y-56144578D01*
X77497055Y-56198987D01*
X77540848Y-56253846D01*
X77546331Y-56259406D01*
X77546426Y-56259522D01*
X77546534Y-56259611D01*
X77548299Y-56261401D01*
X78327549Y-57040651D01*
X78347172Y-57147568D01*
X78414672Y-57318054D01*
X78514001Y-57472183D01*
X78641376Y-57604084D01*
X78791944Y-57708731D01*
X78959971Y-57782140D01*
X79139057Y-57821515D01*
X79322379Y-57825355D01*
X79502957Y-57793514D01*
X79673910Y-57727206D01*
X79828729Y-57628955D01*
X79914255Y-57547509D01*
X80070766Y-57656287D01*
X80319764Y-57765071D01*
X80585149Y-57823420D01*
X80856814Y-57829111D01*
X81075700Y-57790515D01*
X81075700Y-58932624D01*
X81037391Y-58957693D01*
X80906383Y-59085986D01*
X80802789Y-59237281D01*
X80730554Y-59405816D01*
X80692431Y-59585172D01*
X80689871Y-59768517D01*
X80722972Y-59948868D01*
X80790472Y-60119354D01*
X80889801Y-60273483D01*
X81017176Y-60405384D01*
X81076136Y-60446362D01*
X76903632Y-64618866D01*
X76859394Y-64534247D01*
X76683905Y-64315983D01*
X76469365Y-64135962D01*
X76312585Y-64049772D01*
X76452754Y-63975242D01*
X76669787Y-63798234D01*
X76848306Y-63582442D01*
X76981511Y-63336085D01*
X77064327Y-63068547D01*
X77093602Y-62790018D01*
X77068219Y-62511108D01*
X76989146Y-62242440D01*
X76859394Y-61994247D01*
X76683905Y-61775983D01*
X76469365Y-61595962D01*
X76312585Y-61509772D01*
X76452754Y-61435242D01*
X76669787Y-61258234D01*
X76848306Y-61042442D01*
X76981511Y-60796085D01*
X77064327Y-60528547D01*
X77093602Y-60250018D01*
X77068219Y-59971108D01*
X76989146Y-59702440D01*
X76962785Y-59652017D01*
X77360601Y-59254201D01*
X77405168Y-59199945D01*
X77450286Y-59146175D01*
X77452211Y-59142674D01*
X77454748Y-59139585D01*
X77487913Y-59077733D01*
X77521743Y-59016196D01*
X77522952Y-59012384D01*
X77524839Y-59008865D01*
X77545352Y-58941769D01*
X77566592Y-58874813D01*
X77567038Y-58870841D01*
X77568206Y-58867019D01*
X77575298Y-58797195D01*
X77583126Y-58727411D01*
X77583181Y-58719596D01*
X77583195Y-58719453D01*
X77583182Y-58719320D01*
X77583200Y-58716800D01*
X77583200Y-57240700D01*
X77576348Y-57170819D01*
X77570231Y-57100897D01*
X77569116Y-57097059D01*
X77568726Y-57093082D01*
X77548446Y-57025912D01*
X77528850Y-56958461D01*
X77527009Y-56954910D01*
X77525855Y-56951087D01*
X77492910Y-56889126D01*
X77460590Y-56826775D01*
X77458097Y-56823652D01*
X77456220Y-56820122D01*
X77411845Y-56765713D01*
X77368052Y-56710854D01*
X77362569Y-56705294D01*
X77362474Y-56705178D01*
X77362366Y-56705089D01*
X77360601Y-56703299D01*
X76744828Y-56087526D01*
X76848306Y-55962442D01*
X76981511Y-55716085D01*
X77064327Y-55448547D01*
X77093602Y-55170018D01*
X77068219Y-54891108D01*
X76989146Y-54622440D01*
X76859394Y-54374247D01*
X76683905Y-54155983D01*
X76469365Y-53975962D01*
X76320846Y-53894313D01*
X76552839Y-53742601D01*
X76754500Y-53544895D01*
X76913715Y-53311646D01*
X77024367Y-53051818D01*
X77041904Y-52969039D01*
X76919915Y-52747000D01*
X75427000Y-52747000D01*
X75427000Y-52767000D01*
X75173000Y-52767000D01*
X75173000Y-52747000D01*
X73680085Y-52747000D01*
X73558096Y-52969039D01*
X73561541Y-52985300D01*
X69420568Y-52985300D01*
X69444327Y-52908547D01*
X69473602Y-52630018D01*
X69448219Y-52351108D01*
X69369146Y-52082440D01*
X69239394Y-51834247D01*
X69063905Y-51615983D01*
X68849365Y-51435962D01*
X68692585Y-51349772D01*
X68832754Y-51275242D01*
X69049787Y-51098234D01*
X69228306Y-50882442D01*
X69361511Y-50636085D01*
X69444327Y-50368547D01*
X69473602Y-50090018D01*
X69448219Y-49811108D01*
X69369146Y-49542440D01*
X69239394Y-49294247D01*
X69110975Y-49134527D01*
X71269400Y-46976102D01*
X71269400Y-48794300D01*
X71269400Y-48794300D01*
G37*
X71269400Y-48794300D02*
X71276251Y-48864177D01*
X71282369Y-48934103D01*
X71283484Y-48937941D01*
X71283874Y-48941918D01*
X71304164Y-49009121D01*
X71323751Y-49076540D01*
X71325590Y-49080088D01*
X71326745Y-49083913D01*
X71359699Y-49145891D01*
X71392010Y-49208225D01*
X71394503Y-49211348D01*
X71396380Y-49214878D01*
X71440755Y-49269287D01*
X71484548Y-49324146D01*
X71490031Y-49329706D01*
X71490126Y-49329822D01*
X71490234Y-49329911D01*
X71491999Y-49331701D01*
X73850501Y-51690203D01*
X73845500Y-51695105D01*
X73686285Y-51928354D01*
X73575633Y-52188182D01*
X73558096Y-52270961D01*
X73680085Y-52493000D01*
X75173000Y-52493000D01*
X75173000Y-52473000D01*
X75427000Y-52473000D01*
X75427000Y-52493000D01*
X76919915Y-52493000D01*
X77041904Y-52270961D01*
X77024367Y-52188182D01*
X76948792Y-52010720D01*
X77002044Y-52047731D01*
X77170071Y-52121140D01*
X77325700Y-52155358D01*
X77325700Y-55724000D01*
X77332551Y-55793877D01*
X77338669Y-55863803D01*
X77339784Y-55867641D01*
X77340174Y-55871618D01*
X77360464Y-55938821D01*
X77380051Y-56006240D01*
X77381890Y-56009788D01*
X77383045Y-56013613D01*
X77415999Y-56075591D01*
X77448310Y-56137925D01*
X77450803Y-56141048D01*
X77452680Y-56144578D01*
X77497055Y-56198987D01*
X77540848Y-56253846D01*
X77546331Y-56259406D01*
X77546426Y-56259522D01*
X77546534Y-56259611D01*
X77548299Y-56261401D01*
X78327549Y-57040651D01*
X78347172Y-57147568D01*
X78414672Y-57318054D01*
X78514001Y-57472183D01*
X78641376Y-57604084D01*
X78791944Y-57708731D01*
X78959971Y-57782140D01*
X79139057Y-57821515D01*
X79322379Y-57825355D01*
X79502957Y-57793514D01*
X79673910Y-57727206D01*
X79828729Y-57628955D01*
X79914255Y-57547509D01*
X80070766Y-57656287D01*
X80319764Y-57765071D01*
X80585149Y-57823420D01*
X80856814Y-57829111D01*
X81075700Y-57790515D01*
X81075700Y-58932624D01*
X81037391Y-58957693D01*
X80906383Y-59085986D01*
X80802789Y-59237281D01*
X80730554Y-59405816D01*
X80692431Y-59585172D01*
X80689871Y-59768517D01*
X80722972Y-59948868D01*
X80790472Y-60119354D01*
X80889801Y-60273483D01*
X81017176Y-60405384D01*
X81076136Y-60446362D01*
X76903632Y-64618866D01*
X76859394Y-64534247D01*
X76683905Y-64315983D01*
X76469365Y-64135962D01*
X76312585Y-64049772D01*
X76452754Y-63975242D01*
X76669787Y-63798234D01*
X76848306Y-63582442D01*
X76981511Y-63336085D01*
X77064327Y-63068547D01*
X77093602Y-62790018D01*
X77068219Y-62511108D01*
X76989146Y-62242440D01*
X76859394Y-61994247D01*
X76683905Y-61775983D01*
X76469365Y-61595962D01*
X76312585Y-61509772D01*
X76452754Y-61435242D01*
X76669787Y-61258234D01*
X76848306Y-61042442D01*
X76981511Y-60796085D01*
X77064327Y-60528547D01*
X77093602Y-60250018D01*
X77068219Y-59971108D01*
X76989146Y-59702440D01*
X76962785Y-59652017D01*
X77360601Y-59254201D01*
X77405168Y-59199945D01*
X77450286Y-59146175D01*
X77452211Y-59142674D01*
X77454748Y-59139585D01*
X77487913Y-59077733D01*
X77521743Y-59016196D01*
X77522952Y-59012384D01*
X77524839Y-59008865D01*
X77545352Y-58941769D01*
X77566592Y-58874813D01*
X77567038Y-58870841D01*
X77568206Y-58867019D01*
X77575298Y-58797195D01*
X77583126Y-58727411D01*
X77583181Y-58719596D01*
X77583195Y-58719453D01*
X77583182Y-58719320D01*
X77583200Y-58716800D01*
X77583200Y-57240700D01*
X77576348Y-57170819D01*
X77570231Y-57100897D01*
X77569116Y-57097059D01*
X77568726Y-57093082D01*
X77548446Y-57025912D01*
X77528850Y-56958461D01*
X77527009Y-56954910D01*
X77525855Y-56951087D01*
X77492910Y-56889126D01*
X77460590Y-56826775D01*
X77458097Y-56823652D01*
X77456220Y-56820122D01*
X77411845Y-56765713D01*
X77368052Y-56710854D01*
X77362569Y-56705294D01*
X77362474Y-56705178D01*
X77362366Y-56705089D01*
X77360601Y-56703299D01*
X76744828Y-56087526D01*
X76848306Y-55962442D01*
X76981511Y-55716085D01*
X77064327Y-55448547D01*
X77093602Y-55170018D01*
X77068219Y-54891108D01*
X76989146Y-54622440D01*
X76859394Y-54374247D01*
X76683905Y-54155983D01*
X76469365Y-53975962D01*
X76320846Y-53894313D01*
X76552839Y-53742601D01*
X76754500Y-53544895D01*
X76913715Y-53311646D01*
X77024367Y-53051818D01*
X77041904Y-52969039D01*
X76919915Y-52747000D01*
X75427000Y-52747000D01*
X75427000Y-52767000D01*
X75173000Y-52767000D01*
X75173000Y-52747000D01*
X73680085Y-52747000D01*
X73558096Y-52969039D01*
X73561541Y-52985300D01*
X69420568Y-52985300D01*
X69444327Y-52908547D01*
X69473602Y-52630018D01*
X69448219Y-52351108D01*
X69369146Y-52082440D01*
X69239394Y-51834247D01*
X69063905Y-51615983D01*
X68849365Y-51435962D01*
X68692585Y-51349772D01*
X68832754Y-51275242D01*
X69049787Y-51098234D01*
X69228306Y-50882442D01*
X69361511Y-50636085D01*
X69444327Y-50368547D01*
X69473602Y-50090018D01*
X69448219Y-49811108D01*
X69369146Y-49542440D01*
X69239394Y-49294247D01*
X69110975Y-49134527D01*
X71269400Y-46976102D01*
X71269400Y-48794300D01*
G36*
X60977000Y-46633000D02*
X60997000Y-46633000D01*
X60997000Y-46887000D01*
X60977000Y-46887000D01*
X60977000Y-46907000D01*
X60723000Y-46907000D01*
X60723000Y-46887000D01*
X60703000Y-46887000D01*
X60703000Y-46633000D01*
X60723000Y-46633000D01*
X60723000Y-46613000D01*
X60977000Y-46613000D01*
X60977000Y-46633000D01*
X60977000Y-46633000D01*
G37*
X60977000Y-46633000D02*
X60997000Y-46633000D01*
X60997000Y-46887000D01*
X60977000Y-46887000D01*
X60977000Y-46907000D01*
X60723000Y-46907000D01*
X60723000Y-46887000D01*
X60703000Y-46887000D01*
X60703000Y-46633000D01*
X60723000Y-46633000D01*
X60723000Y-46613000D01*
X60977000Y-46613000D01*
X60977000Y-46633000D01*
M02*
