G04 #@! TF.FileFunction,Legend,Bot*
%FSLAX46Y46*%
G04 Gerber Fmt 4.6, Leading zero omitted, Abs format (unit mm)*
G04 Created by KiCad (PCBNEW (2015-10-25 BZR 6279, Git c721c21)-product) date Mon 02 Nov 2015 02:23:49 PM PST*
%MOMM*%
G01*
G04 APERTURE LIST*
%ADD10C,0.100000*%
%ADD11C,0.300000*%
%ADD12C,0.127000*%
%ADD13C,0.150000*%
%ADD14C,0.076200*%
G04 APERTURE END LIST*
D10*
D11*
X118278571Y-50321429D02*
X117564286Y-49821429D01*
X118278571Y-49464286D02*
X116778571Y-49464286D01*
X116778571Y-50035714D01*
X116850000Y-50178572D01*
X116921429Y-50250000D01*
X117064286Y-50321429D01*
X117278571Y-50321429D01*
X117421429Y-50250000D01*
X117492857Y-50178572D01*
X117564286Y-50035714D01*
X117564286Y-49464286D01*
X118278571Y-51178572D02*
X118207143Y-51035714D01*
X118135714Y-50964286D01*
X117992857Y-50892857D01*
X117564286Y-50892857D01*
X117421429Y-50964286D01*
X117350000Y-51035714D01*
X117278571Y-51178572D01*
X117278571Y-51392857D01*
X117350000Y-51535714D01*
X117421429Y-51607143D01*
X117564286Y-51678572D01*
X117992857Y-51678572D01*
X118135714Y-51607143D01*
X118207143Y-51535714D01*
X118278571Y-51392857D01*
X118278571Y-51178572D01*
X117278571Y-52178572D02*
X118278571Y-52464286D01*
X117564286Y-52750000D01*
X118278571Y-53035715D01*
X117278571Y-53321429D01*
X118278571Y-54535715D02*
X117492857Y-54535715D01*
X117350000Y-54464286D01*
X117278571Y-54321429D01*
X117278571Y-54035715D01*
X117350000Y-53892858D01*
X118207143Y-54535715D02*
X118278571Y-54392858D01*
X118278571Y-54035715D01*
X118207143Y-53892858D01*
X118064286Y-53821429D01*
X117921429Y-53821429D01*
X117778571Y-53892858D01*
X117707143Y-54035715D01*
X117707143Y-54392858D01*
X117635714Y-54535715D01*
X117278571Y-55250001D02*
X118278571Y-55250001D01*
X117421429Y-55250001D02*
X117350000Y-55321429D01*
X117278571Y-55464287D01*
X117278571Y-55678572D01*
X117350000Y-55821429D01*
X117492857Y-55892858D01*
X118278571Y-55892858D01*
X118278571Y-57750001D02*
X116778571Y-57750001D01*
X116778571Y-58107144D01*
X116850000Y-58321429D01*
X116992857Y-58464287D01*
X117135714Y-58535715D01*
X117421429Y-58607144D01*
X117635714Y-58607144D01*
X117921429Y-58535715D01*
X118064286Y-58464287D01*
X118207143Y-58321429D01*
X118278571Y-58107144D01*
X118278571Y-57750001D01*
X118207143Y-59821429D02*
X118278571Y-59678572D01*
X118278571Y-59392858D01*
X118207143Y-59250001D01*
X118064286Y-59178572D01*
X117492857Y-59178572D01*
X117350000Y-59250001D01*
X117278571Y-59392858D01*
X117278571Y-59678572D01*
X117350000Y-59821429D01*
X117492857Y-59892858D01*
X117635714Y-59892858D01*
X117778571Y-59178572D01*
X118207143Y-61178572D02*
X118278571Y-61035715D01*
X118278571Y-60750001D01*
X118207143Y-60607143D01*
X118135714Y-60535715D01*
X117992857Y-60464286D01*
X117564286Y-60464286D01*
X117421429Y-60535715D01*
X117350000Y-60607143D01*
X117278571Y-60750001D01*
X117278571Y-61035715D01*
X117350000Y-61178572D01*
X118278571Y-61821429D02*
X116778571Y-61821429D01*
X117707143Y-61964286D02*
X118278571Y-62392857D01*
X117278571Y-62392857D02*
X117850000Y-61821429D01*
X118207143Y-63607143D02*
X118278571Y-63464286D01*
X118278571Y-63178572D01*
X118207143Y-63035715D01*
X118064286Y-62964286D01*
X117492857Y-62964286D01*
X117350000Y-63035715D01*
X117278571Y-63178572D01*
X117278571Y-63464286D01*
X117350000Y-63607143D01*
X117492857Y-63678572D01*
X117635714Y-63678572D01*
X117778571Y-62964286D01*
X118278571Y-64321429D02*
X117278571Y-64321429D01*
X117564286Y-64321429D02*
X117421429Y-64392857D01*
X117350000Y-64464286D01*
X117278571Y-64607143D01*
X117278571Y-64750000D01*
X119178571Y-52357144D02*
X119178571Y-52642858D01*
X119250000Y-52785716D01*
X119392857Y-52928573D01*
X119678571Y-53000001D01*
X120178571Y-53000001D01*
X120464286Y-52928573D01*
X120607143Y-52785716D01*
X120678571Y-52642858D01*
X120678571Y-52357144D01*
X120607143Y-52214287D01*
X120464286Y-52071430D01*
X120178571Y-52000001D01*
X119678571Y-52000001D01*
X119392857Y-52071430D01*
X119250000Y-52214287D01*
X119178571Y-52357144D01*
X120607143Y-54285716D02*
X120678571Y-54142859D01*
X120678571Y-53857145D01*
X120607143Y-53714287D01*
X120535714Y-53642859D01*
X120392857Y-53571430D01*
X119964286Y-53571430D01*
X119821429Y-53642859D01*
X119750000Y-53714287D01*
X119678571Y-53857145D01*
X119678571Y-54142859D01*
X119750000Y-54285716D01*
X119678571Y-54714287D02*
X119678571Y-55285716D01*
X119178571Y-54928573D02*
X120464286Y-54928573D01*
X120607143Y-55000001D01*
X120678571Y-55142859D01*
X120678571Y-55285716D01*
X119321429Y-56857144D02*
X119250000Y-56928573D01*
X119178571Y-57071430D01*
X119178571Y-57428573D01*
X119250000Y-57571430D01*
X119321429Y-57642859D01*
X119464286Y-57714287D01*
X119607143Y-57714287D01*
X119821429Y-57642859D01*
X120678571Y-56785716D01*
X120678571Y-57714287D01*
X119178571Y-58642858D02*
X119178571Y-58785715D01*
X119250000Y-58928572D01*
X119321429Y-59000001D01*
X119464286Y-59071430D01*
X119750000Y-59142858D01*
X120107143Y-59142858D01*
X120392857Y-59071430D01*
X120535714Y-59000001D01*
X120607143Y-58928572D01*
X120678571Y-58785715D01*
X120678571Y-58642858D01*
X120607143Y-58500001D01*
X120535714Y-58428572D01*
X120392857Y-58357144D01*
X120107143Y-58285715D01*
X119750000Y-58285715D01*
X119464286Y-58357144D01*
X119321429Y-58428572D01*
X119250000Y-58500001D01*
X119178571Y-58642858D01*
X120678571Y-60571429D02*
X120678571Y-59714286D01*
X120678571Y-60142858D02*
X119178571Y-60142858D01*
X119392857Y-60000001D01*
X119535714Y-59857143D01*
X119607143Y-59714286D01*
X119178571Y-61928572D02*
X119178571Y-61214286D01*
X119892857Y-61142857D01*
X119821429Y-61214286D01*
X119750000Y-61357143D01*
X119750000Y-61714286D01*
X119821429Y-61857143D01*
X119892857Y-61928572D01*
X120035714Y-62000000D01*
X120392857Y-62000000D01*
X120535714Y-61928572D01*
X120607143Y-61857143D01*
X120678571Y-61714286D01*
X120678571Y-61357143D01*
X120607143Y-61214286D01*
X120535714Y-61142857D01*
X122078571Y-54142858D02*
X123078571Y-54500001D01*
X122078571Y-54857143D01*
X123078571Y-56214286D02*
X123078571Y-55357143D01*
X123078571Y-55785715D02*
X121578571Y-55785715D01*
X121792857Y-55642858D01*
X121935714Y-55500000D01*
X122007143Y-55357143D01*
X122935714Y-56857143D02*
X123007143Y-56928571D01*
X123078571Y-56857143D01*
X123007143Y-56785714D01*
X122935714Y-56857143D01*
X123078571Y-56857143D01*
X121578571Y-57857143D02*
X121578571Y-58000000D01*
X121650000Y-58142857D01*
X121721429Y-58214286D01*
X121864286Y-58285715D01*
X122150000Y-58357143D01*
X122507143Y-58357143D01*
X122792857Y-58285715D01*
X122935714Y-58214286D01*
X123007143Y-58142857D01*
X123078571Y-58000000D01*
X123078571Y-57857143D01*
X123007143Y-57714286D01*
X122935714Y-57642857D01*
X122792857Y-57571429D01*
X122507143Y-57500000D01*
X122150000Y-57500000D01*
X121864286Y-57571429D01*
X121721429Y-57642857D01*
X121650000Y-57714286D01*
X121578571Y-57857143D01*
X121578571Y-59285714D02*
X121578571Y-59428571D01*
X121650000Y-59571428D01*
X121721429Y-59642857D01*
X121864286Y-59714286D01*
X122150000Y-59785714D01*
X122507143Y-59785714D01*
X122792857Y-59714286D01*
X122935714Y-59642857D01*
X123007143Y-59571428D01*
X123078571Y-59428571D01*
X123078571Y-59285714D01*
X123007143Y-59142857D01*
X122935714Y-59071428D01*
X122792857Y-59000000D01*
X122507143Y-58928571D01*
X122150000Y-58928571D01*
X121864286Y-59000000D01*
X121721429Y-59071428D01*
X121650000Y-59142857D01*
X121578571Y-59285714D01*
D12*
X86094860Y-44429700D02*
X84878200Y-44429700D01*
X86094860Y-42882840D02*
X84878200Y-42882840D01*
X86094860Y-38714700D02*
X84878200Y-38714700D01*
X86094860Y-37165300D02*
X84878200Y-37165300D01*
X76905140Y-44429700D02*
X78121800Y-44429700D01*
X76905140Y-42882840D02*
X78121800Y-42882840D01*
X76905140Y-38841700D02*
X78121800Y-38841700D01*
X76905140Y-37292300D02*
X78121800Y-37292300D01*
X86099940Y-37165300D02*
X86099940Y-38714700D01*
X86099940Y-42882840D02*
X86099940Y-44429700D01*
X76905140Y-44429700D02*
X76905140Y-42882840D01*
X76905140Y-38841700D02*
X76905140Y-37292300D01*
D13*
X92250472Y-40750000D02*
G75*
G03X92250472Y-40750000I-2514472J0D01*
G01*
X102817000Y-38210000D02*
X104595000Y-38210000D01*
X102817000Y-40750000D02*
X104595000Y-40750000D01*
X102817000Y-43290000D02*
X104595000Y-43290000D01*
X94308000Y-46084000D02*
X86307000Y-46084000D01*
X86307000Y-46084000D02*
X86307000Y-35416000D01*
X86307000Y-35416000D02*
X94308000Y-35416000D01*
X102817000Y-46084000D02*
X94308000Y-46084000D01*
X94308000Y-46084000D02*
X94308000Y-35416000D01*
X94308000Y-35416000D02*
X102817000Y-35416000D01*
X102817000Y-40750000D02*
X102817000Y-35416000D01*
X102817000Y-40750000D02*
X102817000Y-46084000D01*
X92250472Y-51750000D02*
G75*
G03X92250472Y-51750000I-2514472J0D01*
G01*
X102817000Y-49210000D02*
X104595000Y-49210000D01*
X102817000Y-51750000D02*
X104595000Y-51750000D01*
X102817000Y-54290000D02*
X104595000Y-54290000D01*
X94308000Y-57084000D02*
X86307000Y-57084000D01*
X86307000Y-57084000D02*
X86307000Y-46416000D01*
X86307000Y-46416000D02*
X94308000Y-46416000D01*
X102817000Y-57084000D02*
X94308000Y-57084000D01*
X94308000Y-57084000D02*
X94308000Y-46416000D01*
X94308000Y-46416000D02*
X102817000Y-46416000D01*
X102817000Y-51750000D02*
X102817000Y-46416000D01*
X102817000Y-51750000D02*
X102817000Y-57084000D01*
X92250472Y-62750000D02*
G75*
G03X92250472Y-62750000I-2514472J0D01*
G01*
X102817000Y-60210000D02*
X104595000Y-60210000D01*
X102817000Y-62750000D02*
X104595000Y-62750000D01*
X102817000Y-65290000D02*
X104595000Y-65290000D01*
X94308000Y-68084000D02*
X86307000Y-68084000D01*
X86307000Y-68084000D02*
X86307000Y-57416000D01*
X86307000Y-57416000D02*
X94308000Y-57416000D01*
X102817000Y-68084000D02*
X94308000Y-68084000D01*
X94308000Y-68084000D02*
X94308000Y-57416000D01*
X94308000Y-57416000D02*
X102817000Y-57416000D01*
X102817000Y-62750000D02*
X102817000Y-57416000D01*
X102817000Y-62750000D02*
X102817000Y-68084000D01*
D12*
X55040000Y-67742000D02*
X54659000Y-68631000D01*
X55040000Y-69520000D02*
X55040000Y-68758000D01*
X55040000Y-66980000D02*
X55040000Y-67742000D01*
X55040000Y-65202000D02*
X49960000Y-65202000D01*
X49960000Y-65202000D02*
X49452000Y-65710000D01*
X49452000Y-65710000D02*
X49452000Y-70790000D01*
X49452000Y-70790000D02*
X49960000Y-71298000D01*
X49960000Y-71298000D02*
X55040000Y-71298000D01*
X55040000Y-71298000D02*
X55548000Y-70790000D01*
X55548000Y-70790000D02*
X55548000Y-65710000D01*
X55548000Y-65710000D02*
X55040000Y-65202000D01*
X54278000Y-68250000D02*
G75*
G03X54278000Y-68250000I-1778000J0D01*
G01*
D13*
X85797619Y-40654762D02*
X85750000Y-40559524D01*
X85654762Y-40464286D01*
X85511905Y-40321429D01*
X85464286Y-40226190D01*
X85464286Y-40130952D01*
X85702381Y-40178571D02*
X85654762Y-40083333D01*
X85559524Y-39988095D01*
X85369048Y-39940476D01*
X85035714Y-39940476D01*
X84845238Y-39988095D01*
X84750000Y-40083333D01*
X84702381Y-40178571D01*
X84702381Y-40369048D01*
X84750000Y-40464286D01*
X84845238Y-40559524D01*
X85035714Y-40607143D01*
X85369048Y-40607143D01*
X85559524Y-40559524D01*
X85654762Y-40464286D01*
X85702381Y-40369048D01*
X85702381Y-40178571D01*
X85702381Y-41559524D02*
X85702381Y-40988095D01*
X85702381Y-41273809D02*
X84702381Y-41273809D01*
X84845238Y-41178571D01*
X84940476Y-41083333D01*
X84988095Y-40988095D01*
X101824762Y-43004286D02*
X101872381Y-43147143D01*
X101872381Y-43385239D01*
X101824762Y-43480477D01*
X101777143Y-43528096D01*
X101681905Y-43575715D01*
X101586667Y-43575715D01*
X101491429Y-43528096D01*
X101443810Y-43480477D01*
X101396190Y-43385239D01*
X101348571Y-43194762D01*
X101300952Y-43099524D01*
X101253333Y-43051905D01*
X101158095Y-43004286D01*
X101062857Y-43004286D01*
X100967619Y-43051905D01*
X100920000Y-43099524D01*
X100872381Y-43194762D01*
X100872381Y-43432858D01*
X100920000Y-43575715D01*
X101872381Y-40488095D02*
X100872381Y-40488095D01*
X100872381Y-40726190D01*
X100920000Y-40869048D01*
X101015238Y-40964286D01*
X101110476Y-41011905D01*
X101300952Y-41059524D01*
X101443810Y-41059524D01*
X101634286Y-41011905D01*
X101729524Y-40964286D01*
X101824762Y-40869048D01*
X101872381Y-40726190D01*
X101872381Y-40488095D01*
X100920000Y-38471905D02*
X100872381Y-38376667D01*
X100872381Y-38233810D01*
X100920000Y-38090952D01*
X101015238Y-37995714D01*
X101110476Y-37948095D01*
X101300952Y-37900476D01*
X101443810Y-37900476D01*
X101634286Y-37948095D01*
X101729524Y-37995714D01*
X101824762Y-38090952D01*
X101872381Y-38233810D01*
X101872381Y-38329048D01*
X101824762Y-38471905D01*
X101777143Y-38519524D01*
X101443810Y-38519524D01*
X101443810Y-38329048D01*
X85797619Y-51654762D02*
X85750000Y-51559524D01*
X85654762Y-51464286D01*
X85511905Y-51321429D01*
X85464286Y-51226190D01*
X85464286Y-51130952D01*
X85702381Y-51178571D02*
X85654762Y-51083333D01*
X85559524Y-50988095D01*
X85369048Y-50940476D01*
X85035714Y-50940476D01*
X84845238Y-50988095D01*
X84750000Y-51083333D01*
X84702381Y-51178571D01*
X84702381Y-51369048D01*
X84750000Y-51464286D01*
X84845238Y-51559524D01*
X85035714Y-51607143D01*
X85369048Y-51607143D01*
X85559524Y-51559524D01*
X85654762Y-51464286D01*
X85702381Y-51369048D01*
X85702381Y-51178571D01*
X84702381Y-52511905D02*
X84702381Y-52035714D01*
X85178571Y-51988095D01*
X85130952Y-52035714D01*
X85083333Y-52130952D01*
X85083333Y-52369048D01*
X85130952Y-52464286D01*
X85178571Y-52511905D01*
X85273810Y-52559524D01*
X85511905Y-52559524D01*
X85607143Y-52511905D01*
X85654762Y-52464286D01*
X85702381Y-52369048D01*
X85702381Y-52130952D01*
X85654762Y-52035714D01*
X85607143Y-51988095D01*
X101824762Y-54004286D02*
X101872381Y-54147143D01*
X101872381Y-54385239D01*
X101824762Y-54480477D01*
X101777143Y-54528096D01*
X101681905Y-54575715D01*
X101586667Y-54575715D01*
X101491429Y-54528096D01*
X101443810Y-54480477D01*
X101396190Y-54385239D01*
X101348571Y-54194762D01*
X101300952Y-54099524D01*
X101253333Y-54051905D01*
X101158095Y-54004286D01*
X101062857Y-54004286D01*
X100967619Y-54051905D01*
X100920000Y-54099524D01*
X100872381Y-54194762D01*
X100872381Y-54432858D01*
X100920000Y-54575715D01*
X101872381Y-51488095D02*
X100872381Y-51488095D01*
X100872381Y-51726190D01*
X100920000Y-51869048D01*
X101015238Y-51964286D01*
X101110476Y-52011905D01*
X101300952Y-52059524D01*
X101443810Y-52059524D01*
X101634286Y-52011905D01*
X101729524Y-51964286D01*
X101824762Y-51869048D01*
X101872381Y-51726190D01*
X101872381Y-51488095D01*
X100920000Y-49471905D02*
X100872381Y-49376667D01*
X100872381Y-49233810D01*
X100920000Y-49090952D01*
X101015238Y-48995714D01*
X101110476Y-48948095D01*
X101300952Y-48900476D01*
X101443810Y-48900476D01*
X101634286Y-48948095D01*
X101729524Y-48995714D01*
X101824762Y-49090952D01*
X101872381Y-49233810D01*
X101872381Y-49329048D01*
X101824762Y-49471905D01*
X101777143Y-49519524D01*
X101443810Y-49519524D01*
X101443810Y-49329048D01*
X85797619Y-62654762D02*
X85750000Y-62559524D01*
X85654762Y-62464286D01*
X85511905Y-62321429D01*
X85464286Y-62226190D01*
X85464286Y-62130952D01*
X85702381Y-62178571D02*
X85654762Y-62083333D01*
X85559524Y-61988095D01*
X85369048Y-61940476D01*
X85035714Y-61940476D01*
X84845238Y-61988095D01*
X84750000Y-62083333D01*
X84702381Y-62178571D01*
X84702381Y-62369048D01*
X84750000Y-62464286D01*
X84845238Y-62559524D01*
X85035714Y-62607143D01*
X85369048Y-62607143D01*
X85559524Y-62559524D01*
X85654762Y-62464286D01*
X85702381Y-62369048D01*
X85702381Y-62178571D01*
X84702381Y-63464286D02*
X84702381Y-63273809D01*
X84750000Y-63178571D01*
X84797619Y-63130952D01*
X84940476Y-63035714D01*
X85130952Y-62988095D01*
X85511905Y-62988095D01*
X85607143Y-63035714D01*
X85654762Y-63083333D01*
X85702381Y-63178571D01*
X85702381Y-63369048D01*
X85654762Y-63464286D01*
X85607143Y-63511905D01*
X85511905Y-63559524D01*
X85273810Y-63559524D01*
X85178571Y-63511905D01*
X85130952Y-63464286D01*
X85083333Y-63369048D01*
X85083333Y-63178571D01*
X85130952Y-63083333D01*
X85178571Y-63035714D01*
X85273810Y-62988095D01*
X101824762Y-65004286D02*
X101872381Y-65147143D01*
X101872381Y-65385239D01*
X101824762Y-65480477D01*
X101777143Y-65528096D01*
X101681905Y-65575715D01*
X101586667Y-65575715D01*
X101491429Y-65528096D01*
X101443810Y-65480477D01*
X101396190Y-65385239D01*
X101348571Y-65194762D01*
X101300952Y-65099524D01*
X101253333Y-65051905D01*
X101158095Y-65004286D01*
X101062857Y-65004286D01*
X100967619Y-65051905D01*
X100920000Y-65099524D01*
X100872381Y-65194762D01*
X100872381Y-65432858D01*
X100920000Y-65575715D01*
X101872381Y-62488095D02*
X100872381Y-62488095D01*
X100872381Y-62726190D01*
X100920000Y-62869048D01*
X101015238Y-62964286D01*
X101110476Y-63011905D01*
X101300952Y-63059524D01*
X101443810Y-63059524D01*
X101634286Y-63011905D01*
X101729524Y-62964286D01*
X101824762Y-62869048D01*
X101872381Y-62726190D01*
X101872381Y-62488095D01*
X100920000Y-60471905D02*
X100872381Y-60376667D01*
X100872381Y-60233810D01*
X100920000Y-60090952D01*
X101015238Y-59995714D01*
X101110476Y-59948095D01*
X101300952Y-59900476D01*
X101443810Y-59900476D01*
X101634286Y-59948095D01*
X101729524Y-59995714D01*
X101824762Y-60090952D01*
X101872381Y-60233810D01*
X101872381Y-60329048D01*
X101824762Y-60471905D01*
X101777143Y-60519524D01*
X101443810Y-60519524D01*
X101443810Y-60329048D01*
D14*
X53583733Y-64768990D02*
X53467619Y-64807695D01*
X53274095Y-64807695D01*
X53196685Y-64768990D01*
X53157981Y-64730286D01*
X53119276Y-64652876D01*
X53119276Y-64575467D01*
X53157981Y-64498057D01*
X53196685Y-64459352D01*
X53274095Y-64420648D01*
X53428914Y-64381943D01*
X53506323Y-64343238D01*
X53545028Y-64304533D01*
X53583733Y-64227124D01*
X53583733Y-64149714D01*
X53545028Y-64072305D01*
X53506323Y-64033600D01*
X53428914Y-63994895D01*
X53235390Y-63994895D01*
X53119276Y-64033600D01*
X52848343Y-63994895D02*
X52654819Y-64807695D01*
X52500000Y-64227124D01*
X52345181Y-64807695D01*
X52151657Y-63994895D01*
X51416267Y-64807695D02*
X51880724Y-64807695D01*
X51648495Y-64807695D02*
X51648495Y-63994895D01*
X51725905Y-64111010D01*
X51803314Y-64188419D01*
X51880724Y-64227124D01*
M02*
