G04 #@! TF.FileFunction,Legend,Top*
%FSLAX46Y46*%
G04 Gerber Fmt 4.6, Leading zero omitted, Abs format (unit mm)*
G04 Created by KiCad (PCBNEW (2015-10-25 BZR 6279, Git c721c21)-product) date Mon 02 Nov 2015 02:23:49 PM PST*
%MOMM*%
G01*
G04 APERTURE LIST*
%ADD10C,0.100000*%
%ADD11C,0.300000*%
%ADD12C,0.150000*%
%ADD13C,0.127000*%
%ADD14C,0.381000*%
%ADD15C,0.076200*%
G04 APERTURE END LIST*
D10*
D11*
X122178571Y-71250000D02*
X121464286Y-71750000D01*
X122178571Y-72107143D02*
X120678571Y-72107143D01*
X120678571Y-71535715D01*
X120750000Y-71392857D01*
X120821429Y-71321429D01*
X120964286Y-71250000D01*
X121178571Y-71250000D01*
X121321429Y-71321429D01*
X121392857Y-71392857D01*
X121464286Y-71535715D01*
X121464286Y-72107143D01*
X120750000Y-69821429D02*
X120678571Y-69964286D01*
X120678571Y-70178572D01*
X120750000Y-70392857D01*
X120892857Y-70535715D01*
X121035714Y-70607143D01*
X121321429Y-70678572D01*
X121535714Y-70678572D01*
X121821429Y-70607143D01*
X121964286Y-70535715D01*
X122107143Y-70392857D01*
X122178571Y-70178572D01*
X122178571Y-70035715D01*
X122107143Y-69821429D01*
X122035714Y-69750000D01*
X121535714Y-69750000D01*
X121535714Y-70035715D01*
X121392857Y-68607143D02*
X121464286Y-68392857D01*
X121535714Y-68321429D01*
X121678571Y-68250000D01*
X121892857Y-68250000D01*
X122035714Y-68321429D01*
X122107143Y-68392857D01*
X122178571Y-68535715D01*
X122178571Y-69107143D01*
X120678571Y-69107143D01*
X120678571Y-68607143D01*
X120750000Y-68464286D01*
X120821429Y-68392857D01*
X120964286Y-68321429D01*
X121107143Y-68321429D01*
X121250000Y-68392857D01*
X121321429Y-68464286D01*
X121392857Y-68607143D01*
X121392857Y-69107143D01*
X122178571Y-65750000D02*
X122178571Y-66464286D01*
X120678571Y-66464286D01*
X121392857Y-65250000D02*
X121392857Y-64750000D01*
X122178571Y-64535714D02*
X122178571Y-65250000D01*
X120678571Y-65250000D01*
X120678571Y-64535714D01*
X122178571Y-63892857D02*
X120678571Y-63892857D01*
X120678571Y-63535714D01*
X120750000Y-63321429D01*
X120892857Y-63178571D01*
X121035714Y-63107143D01*
X121321429Y-63035714D01*
X121535714Y-63035714D01*
X121821429Y-63107143D01*
X121964286Y-63178571D01*
X122107143Y-63321429D01*
X122178571Y-63535714D01*
X122178571Y-63892857D01*
X122178571Y-61250000D02*
X120678571Y-61250000D01*
X121750000Y-60750000D01*
X120678571Y-60250000D01*
X122178571Y-60250000D01*
X120678571Y-59535714D02*
X121892857Y-59535714D01*
X122035714Y-59464286D01*
X122107143Y-59392857D01*
X122178571Y-59250000D01*
X122178571Y-58964286D01*
X122107143Y-58821428D01*
X122035714Y-58750000D01*
X121892857Y-58678571D01*
X120678571Y-58678571D01*
X122107143Y-58035714D02*
X122178571Y-57821428D01*
X122178571Y-57464285D01*
X122107143Y-57321428D01*
X122035714Y-57249999D01*
X121892857Y-57178571D01*
X121750000Y-57178571D01*
X121607143Y-57249999D01*
X121535714Y-57321428D01*
X121464286Y-57464285D01*
X121392857Y-57749999D01*
X121321429Y-57892857D01*
X121250000Y-57964285D01*
X121107143Y-58035714D01*
X120964286Y-58035714D01*
X120821429Y-57964285D01*
X120750000Y-57892857D01*
X120678571Y-57749999D01*
X120678571Y-57392857D01*
X120750000Y-57178571D01*
X122178571Y-56535714D02*
X120678571Y-56535714D01*
X122035714Y-54964285D02*
X122107143Y-55035714D01*
X122178571Y-55250000D01*
X122178571Y-55392857D01*
X122107143Y-55607142D01*
X121964286Y-55750000D01*
X121821429Y-55821428D01*
X121535714Y-55892857D01*
X121321429Y-55892857D01*
X121035714Y-55821428D01*
X120892857Y-55750000D01*
X120750000Y-55607142D01*
X120678571Y-55392857D01*
X120678571Y-55250000D01*
X120750000Y-55035714D01*
X120821429Y-54964285D01*
X120678571Y-53392857D02*
X122178571Y-52892857D01*
X120678571Y-52392857D01*
X122178571Y-51892857D02*
X120678571Y-51892857D01*
X122107143Y-51250000D02*
X122178571Y-51035714D01*
X122178571Y-50678571D01*
X122107143Y-50535714D01*
X122035714Y-50464285D01*
X121892857Y-50392857D01*
X121750000Y-50392857D01*
X121607143Y-50464285D01*
X121535714Y-50535714D01*
X121464286Y-50678571D01*
X121392857Y-50964285D01*
X121321429Y-51107143D01*
X121250000Y-51178571D01*
X121107143Y-51250000D01*
X120964286Y-51250000D01*
X120821429Y-51178571D01*
X120750000Y-51107143D01*
X120678571Y-50964285D01*
X120678571Y-50607143D01*
X120750000Y-50392857D01*
X120678571Y-49750000D02*
X121892857Y-49750000D01*
X122035714Y-49678572D01*
X122107143Y-49607143D01*
X122178571Y-49464286D01*
X122178571Y-49178572D01*
X122107143Y-49035714D01*
X122035714Y-48964286D01*
X121892857Y-48892857D01*
X120678571Y-48892857D01*
X121750000Y-48250000D02*
X121750000Y-47535714D01*
X122178571Y-48392857D02*
X120678571Y-47892857D01*
X122178571Y-47392857D01*
X122178571Y-46178571D02*
X122178571Y-46892857D01*
X120678571Y-46892857D01*
X122178571Y-45678571D02*
X120678571Y-45678571D01*
X120678571Y-45107142D02*
X120678571Y-44107142D01*
X122178571Y-45107142D01*
X122178571Y-44107142D01*
X121392857Y-43535714D02*
X121392857Y-43035714D01*
X122178571Y-42821428D02*
X122178571Y-43535714D01*
X120678571Y-43535714D01*
X120678571Y-42821428D01*
X122178571Y-41321428D02*
X121464286Y-41821428D01*
X122178571Y-42178571D02*
X120678571Y-42178571D01*
X120678571Y-41607143D01*
X120750000Y-41464285D01*
X120821429Y-41392857D01*
X120964286Y-41321428D01*
X121178571Y-41321428D01*
X121321429Y-41392857D01*
X121392857Y-41464285D01*
X121464286Y-41607143D01*
X121464286Y-42178571D01*
D12*
X72700000Y-72700000D02*
X72700000Y-72200000D01*
X72700000Y-72200000D02*
X70450000Y-72200000D01*
X70450000Y-72200000D02*
X70450000Y-72700000D01*
X75165000Y-72695000D02*
X75165000Y-71425000D01*
X67815000Y-72695000D02*
X67815000Y-71425000D01*
X67815000Y-35085000D02*
X67815000Y-36355000D01*
X75165000Y-35085000D02*
X75165000Y-36355000D01*
X75165000Y-72695000D02*
X67815000Y-72695000D01*
X75165000Y-35085000D02*
X67815000Y-35085000D01*
X86600000Y-51500000D02*
X86600000Y-50500000D01*
X84900000Y-50500000D02*
X84900000Y-51500000D01*
X44825000Y-69100000D02*
X44825000Y-67900000D01*
X46575000Y-67900000D02*
X46575000Y-69100000D01*
D13*
X88250000Y-70050000D02*
X88250000Y-70750000D01*
X88250000Y-70750000D02*
X86250000Y-70750000D01*
X86250000Y-70750000D02*
X86250000Y-70100000D01*
X86250000Y-70100000D02*
X88150000Y-70100000D01*
X88150000Y-70100000D02*
X88150000Y-70650000D01*
X88150000Y-70650000D02*
X86350000Y-70650000D01*
X86350000Y-70650000D02*
X86350000Y-70200000D01*
X86350000Y-70200000D02*
X88050000Y-70200000D01*
X88050000Y-70200000D02*
X88050000Y-70550000D01*
X88050000Y-70550000D02*
X86450000Y-70550000D01*
X86450000Y-70550000D02*
X86450000Y-70300000D01*
X86450000Y-70300000D02*
X87950000Y-70300000D01*
X87950000Y-70300000D02*
X87950000Y-70450000D01*
X87950000Y-70450000D02*
X86550000Y-70450000D01*
X86550000Y-70450000D02*
X86550000Y-70400000D01*
X86550000Y-70400000D02*
X87850000Y-70400000D01*
X85850000Y-69600000D02*
X88650000Y-69600000D01*
X88650000Y-69600000D02*
X88650000Y-71150000D01*
X88650000Y-71150000D02*
X85850000Y-71150000D01*
X85850000Y-71150000D02*
X85850000Y-69700000D01*
X85850000Y-69700000D02*
X88550000Y-69700000D01*
X88550000Y-69700000D02*
X88550000Y-71050000D01*
X88550000Y-71050000D02*
X85950000Y-71050000D01*
X85950000Y-71050000D02*
X85950000Y-69800000D01*
X85950000Y-69800000D02*
X88450000Y-69800000D01*
X88450000Y-69800000D02*
X88450000Y-70950000D01*
X88450000Y-70950000D02*
X86050000Y-70950000D01*
X86050000Y-70950000D02*
X86050000Y-69900000D01*
X86050000Y-69900000D02*
X88350000Y-69900000D01*
X88350000Y-69900000D02*
X88350000Y-70850000D01*
X88350000Y-70850000D02*
X86150000Y-70850000D01*
X86150000Y-70850000D02*
X86150000Y-70000000D01*
X86150000Y-70000000D02*
X88250000Y-70000000D01*
X89300000Y-74850000D02*
X89800000Y-74850000D01*
X89800000Y-74850000D02*
X89800000Y-76400000D01*
X89800000Y-76400000D02*
X89300000Y-76400000D01*
X89300000Y-76400000D02*
X89300000Y-74950000D01*
X89300000Y-74950000D02*
X89700000Y-74950000D01*
X89700000Y-74950000D02*
X89700000Y-76300000D01*
X89700000Y-76300000D02*
X89400000Y-76300000D01*
X89400000Y-76300000D02*
X89400000Y-75050000D01*
X89400000Y-75050000D02*
X89600000Y-75050000D01*
X89600000Y-75050000D02*
X89600000Y-76200000D01*
X89600000Y-76200000D02*
X89500000Y-76200000D01*
X89500000Y-76200000D02*
X89500000Y-75150000D01*
X87000000Y-74850000D02*
X87500000Y-74850000D01*
X87500000Y-74850000D02*
X87500000Y-76400000D01*
X87500000Y-76400000D02*
X87000000Y-76400000D01*
X87000000Y-76400000D02*
X87000000Y-74950000D01*
X87000000Y-74950000D02*
X87400000Y-74950000D01*
X87400000Y-74950000D02*
X87400000Y-76300000D01*
X87400000Y-76300000D02*
X87100000Y-76300000D01*
X87100000Y-76300000D02*
X87100000Y-75050000D01*
X87100000Y-75050000D02*
X87300000Y-75050000D01*
X87300000Y-75050000D02*
X87300000Y-76200000D01*
X87300000Y-76200000D02*
X87200000Y-76200000D01*
X87200000Y-76200000D02*
X87200000Y-75150000D01*
X84700000Y-74850000D02*
X85200000Y-74850000D01*
X85200000Y-74850000D02*
X85200000Y-76400000D01*
X85200000Y-76400000D02*
X84700000Y-76400000D01*
X84700000Y-76400000D02*
X84700000Y-74950000D01*
X84700000Y-74950000D02*
X85100000Y-74950000D01*
X85100000Y-74950000D02*
X85100000Y-76300000D01*
X85100000Y-76300000D02*
X84800000Y-76300000D01*
X84800000Y-76300000D02*
X84800000Y-75050000D01*
X84800000Y-75050000D02*
X85000000Y-75050000D01*
X85000000Y-75050000D02*
X85000000Y-76200000D01*
X85000000Y-76200000D02*
X84900000Y-76200000D01*
X84900000Y-76200000D02*
X84900000Y-75150000D01*
X85300000Y-76500000D02*
X85300000Y-74750000D01*
X84600000Y-76500000D02*
X85300000Y-76500000D01*
X84600000Y-74750000D02*
X84600000Y-76500000D01*
X89900000Y-76500000D02*
X89900000Y-74750000D01*
X89200000Y-76500000D02*
X89900000Y-76500000D01*
X89200000Y-74750000D02*
X89200000Y-76500000D01*
X86900000Y-74750000D02*
X86900000Y-76500000D01*
X86900000Y-76500000D02*
X87600000Y-76500000D01*
X87600000Y-76500000D02*
X87600000Y-74750000D01*
X88750000Y-71250000D02*
X88750000Y-69500000D01*
X88750000Y-69500000D02*
X85750000Y-69500000D01*
X85750000Y-69500000D02*
X85750000Y-71250000D01*
X85100000Y-73950000D02*
G75*
G03X85100000Y-73950000I-300000J0D01*
G01*
X84000000Y-71250000D02*
X90500000Y-71250000D01*
X90500000Y-71250000D02*
X90500000Y-74750000D01*
X90500000Y-74750000D02*
X84000000Y-74750000D01*
X84000000Y-74750000D02*
X84000000Y-71250000D01*
D12*
X65850000Y-54250000D02*
X65850000Y-53250000D01*
X64150000Y-53250000D02*
X64150000Y-54250000D01*
X86600000Y-57500000D02*
X86600000Y-56500000D01*
X84900000Y-56500000D02*
X84900000Y-57500000D01*
X93250000Y-74651000D02*
X93250000Y-73889000D01*
X93631000Y-74270000D02*
X92869000Y-74270000D01*
X90964000Y-74524000D02*
X90964000Y-70714000D01*
X94774000Y-75286000D02*
X91726000Y-75286000D01*
X90964000Y-74524000D02*
X91726000Y-75286000D01*
X95536000Y-74524000D02*
X95536000Y-70714000D01*
X95536000Y-74524000D02*
X94774000Y-75286000D01*
X93123000Y-70968000D02*
X93377000Y-70968000D01*
X93885000Y-71095000D02*
X92615000Y-71095000D01*
X92361000Y-71222000D02*
X94139000Y-71222000D01*
X92107000Y-71349000D02*
X94393000Y-71349000D01*
X94520000Y-71476000D02*
X91980000Y-71476000D01*
X91853000Y-71603000D02*
X94647000Y-71603000D01*
X94774000Y-71730000D02*
X91726000Y-71730000D01*
X94901000Y-71857000D02*
X91599000Y-71857000D01*
X95536000Y-70714000D02*
X90964000Y-70714000D01*
X95282000Y-73000000D02*
G75*
G03X95282000Y-73000000I-2032000J0D01*
G01*
X80250000Y-70651000D02*
X80250000Y-69889000D01*
X80631000Y-70270000D02*
X79869000Y-70270000D01*
X77964000Y-70524000D02*
X77964000Y-66714000D01*
X81774000Y-71286000D02*
X78726000Y-71286000D01*
X77964000Y-70524000D02*
X78726000Y-71286000D01*
X82536000Y-70524000D02*
X82536000Y-66714000D01*
X82536000Y-70524000D02*
X81774000Y-71286000D01*
X80123000Y-66968000D02*
X80377000Y-66968000D01*
X80885000Y-67095000D02*
X79615000Y-67095000D01*
X79361000Y-67222000D02*
X81139000Y-67222000D01*
X79107000Y-67349000D02*
X81393000Y-67349000D01*
X81520000Y-67476000D02*
X78980000Y-67476000D01*
X78853000Y-67603000D02*
X81647000Y-67603000D01*
X81774000Y-67730000D02*
X78726000Y-67730000D01*
X81901000Y-67857000D02*
X78599000Y-67857000D01*
X82536000Y-66714000D02*
X77964000Y-66714000D01*
X82282000Y-69000000D02*
G75*
G03X82282000Y-69000000I-2032000J0D01*
G01*
X62650000Y-47500000D02*
X62650000Y-48500000D01*
X64350000Y-48500000D02*
X64350000Y-47500000D01*
X48750000Y-41100000D02*
X49750000Y-41100000D01*
X49750000Y-39400000D02*
X48750000Y-39400000D01*
X49750000Y-46400000D02*
X48750000Y-46400000D01*
X48750000Y-48100000D02*
X49750000Y-48100000D01*
X48750000Y-44600000D02*
X49750000Y-44600000D01*
X49750000Y-42900000D02*
X48750000Y-42900000D01*
X62650000Y-62000000D02*
X62650000Y-63000000D01*
X64350000Y-63000000D02*
X64350000Y-62000000D01*
X48750000Y-55100000D02*
X49750000Y-55100000D01*
X49750000Y-53400000D02*
X48750000Y-53400000D01*
X49750000Y-60400000D02*
X48750000Y-60400000D01*
X48750000Y-62100000D02*
X49750000Y-62100000D01*
X48750000Y-58600000D02*
X49750000Y-58600000D01*
X49750000Y-56900000D02*
X48750000Y-56900000D01*
D13*
X105600000Y-80200000D02*
X105600000Y-74900000D01*
X106000000Y-80200000D02*
X106000000Y-75000000D01*
X103500000Y-70900000D02*
X104300000Y-70900000D01*
X105600000Y-69500000D02*
X105600000Y-70100000D01*
X105600000Y-69500000D02*
X104000000Y-69500000D01*
X97400000Y-70900000D02*
X99500000Y-70900000D01*
X106000000Y-83100000D02*
X106000000Y-80200000D01*
X97000000Y-83100000D02*
X97000000Y-80200000D01*
X97000000Y-70900000D02*
X97000000Y-80200000D01*
X97400000Y-69500000D02*
X99000000Y-69500000D01*
X97400000Y-70900000D02*
X97400000Y-69500000D01*
X97400000Y-80200000D02*
X97400000Y-70900000D01*
X97400000Y-70900000D02*
X97000000Y-70900000D01*
X97000000Y-80200000D02*
X106000000Y-80200000D01*
X97000000Y-83100000D02*
X106000000Y-83100000D01*
D12*
X58750000Y-67150000D02*
X58750000Y-69850000D01*
X60250000Y-67150000D02*
X60250000Y-69850000D01*
X59350000Y-68650000D02*
X59600000Y-68650000D01*
X59600000Y-68650000D02*
X59450000Y-68500000D01*
X59850000Y-68400000D02*
X59150000Y-68400000D01*
X59500000Y-68750000D02*
X59500000Y-69100000D01*
X59500000Y-68400000D02*
X59850000Y-68750000D01*
X59850000Y-68750000D02*
X59150000Y-68750000D01*
X59150000Y-68750000D02*
X59500000Y-68400000D01*
D13*
X77766200Y-46576000D02*
X77766200Y-36924000D01*
X78452000Y-46449000D02*
X78452000Y-37051000D01*
X79595000Y-45623500D02*
X79595000Y-38397200D01*
X83405000Y-45623500D02*
X83405000Y-38397200D01*
X84548000Y-46449000D02*
X84548000Y-37051000D01*
X85233800Y-46576000D02*
X85233800Y-36924000D01*
X80776100Y-37216100D02*
X79595000Y-38397200D01*
X82223900Y-37216100D02*
X83405000Y-38397200D01*
X82223900Y-37216100D02*
G75*
G03X80776100Y-37216100I-723900J-723900D01*
G01*
X77766200Y-46576000D02*
X78452000Y-46576000D01*
X77766200Y-36924000D02*
X78452000Y-36924000D01*
X85233800Y-46576000D02*
X84548000Y-46576000D01*
X85233800Y-36924000D02*
X84548000Y-36924000D01*
X82452500Y-46576000D02*
X80547500Y-46576000D01*
X79595000Y-45623500D02*
G75*
G03X80547500Y-46576000I952500J0D01*
G01*
X82452500Y-46576000D02*
G75*
G03X83405000Y-45623500I0J952500D01*
G01*
X83024000Y-47973000D02*
X79976000Y-47973000D01*
X79976000Y-35527000D02*
X83024000Y-35527000D01*
X83024000Y-47973000D02*
G75*
G03X84548000Y-46449000I0J1524000D01*
G01*
X78452000Y-46449000D02*
G75*
G03X79976000Y-47973000I1524000J0D01*
G01*
X79976000Y-35527000D02*
G75*
G03X78452000Y-37051000I0J-1524000D01*
G01*
X84548000Y-37051000D02*
G75*
G03X83024000Y-35527000I-1524000J0D01*
G01*
D12*
X78875000Y-61900000D02*
X78875000Y-63100000D01*
X77125000Y-63100000D02*
X77125000Y-61900000D01*
X62125000Y-69350000D02*
X62125000Y-68150000D01*
X63875000Y-68150000D02*
X63875000Y-69350000D01*
X48650000Y-49875000D02*
X49850000Y-49875000D01*
X49850000Y-51625000D02*
X48650000Y-51625000D01*
X48650000Y-63875000D02*
X49850000Y-63875000D01*
X49850000Y-65625000D02*
X48650000Y-65625000D01*
X53949220Y-78699100D02*
X53949220Y-75150720D01*
X55699280Y-78699100D02*
X53949220Y-78699100D01*
X62298200Y-78699100D02*
X64048260Y-78699100D01*
X64048260Y-78699100D02*
X64048260Y-75099920D01*
X58998740Y-77299560D02*
X58947940Y-75049120D01*
X58998740Y-77299560D02*
X58048780Y-76298800D01*
X58947940Y-77299560D02*
X59948700Y-76349600D01*
X62298200Y-77299560D02*
X62298200Y-79999580D01*
X62298200Y-79999580D02*
X55699280Y-79999580D01*
X55699280Y-79999580D02*
X55699280Y-77299560D01*
X55699280Y-77299560D02*
X62298200Y-77299560D01*
X108480000Y-70690000D02*
X111020000Y-70690000D01*
X111020000Y-70690000D02*
X111020000Y-78310000D01*
X111020000Y-78310000D02*
X108480000Y-78310000D01*
X108480000Y-78310000D02*
X108480000Y-70690000D01*
X111020000Y-73230000D02*
X108480000Y-73230000D01*
D13*
X117975000Y-57432000D02*
X117848000Y-57940000D01*
X116832000Y-57432000D02*
X117975000Y-57432000D01*
X116959000Y-57940000D02*
X116832000Y-57432000D01*
X112895000Y-72799000D02*
X116705000Y-72799000D01*
X112895000Y-73561000D02*
X112895000Y-72799000D01*
X116705000Y-73561000D02*
X112895000Y-73561000D01*
X116705000Y-72799000D02*
X116705000Y-73561000D01*
X116705000Y-72926000D02*
X112895000Y-72926000D01*
X116705000Y-73053000D02*
X112895000Y-73053000D01*
X116705000Y-73180000D02*
X112895000Y-73180000D01*
X116705000Y-73307000D02*
X112895000Y-73307000D01*
X116705000Y-73434000D02*
X112895000Y-73434000D01*
X112641000Y-68100000D02*
X116959000Y-68100000D01*
X112641000Y-78260000D02*
X112641000Y-68100000D01*
X116959000Y-78260000D02*
X112641000Y-78260000D01*
X116959000Y-68100000D02*
X116959000Y-78260000D01*
X116578000Y-70680000D02*
G75*
G03X116578000Y-70680000I-1778000J0D01*
G01*
D14*
X113657000Y-69537000D02*
X115943000Y-71823000D01*
X115816000Y-71950000D02*
X113530000Y-69664000D01*
X113784000Y-69410000D02*
X116070000Y-71696000D01*
X113784000Y-74410000D02*
X116070000Y-76696000D01*
X115816000Y-76950000D02*
X113530000Y-74664000D01*
X113657000Y-74537000D02*
X115943000Y-76823000D01*
D13*
X116578000Y-75680000D02*
G75*
G03X116578000Y-75680000I-1778000J0D01*
G01*
X111244000Y-78260000D02*
X112641000Y-78260000D01*
X111244000Y-68100000D02*
X111244000Y-78260000D01*
X112641000Y-68100000D02*
X111244000Y-68100000D01*
X118737000Y-78260000D02*
X116959000Y-78260000D01*
X118737000Y-68100000D02*
X118737000Y-78260000D01*
X116959000Y-68100000D02*
X118737000Y-68100000D01*
X118356000Y-70640000D02*
G75*
G03X118356000Y-70640000I-508000J0D01*
G01*
X118356000Y-75720000D02*
G75*
G03X118356000Y-75720000I-508000J0D01*
G01*
X118356000Y-65560000D02*
G75*
G03X118356000Y-65560000I-508000J0D01*
G01*
X118356000Y-60480000D02*
G75*
G03X118356000Y-60480000I-508000J0D01*
G01*
X116959000Y-57940000D02*
X118737000Y-57940000D01*
X118737000Y-57940000D02*
X118737000Y-68100000D01*
X118737000Y-68100000D02*
X116959000Y-68100000D01*
X112641000Y-57940000D02*
X111244000Y-57940000D01*
X111244000Y-57940000D02*
X111244000Y-68100000D01*
X111244000Y-68100000D02*
X112641000Y-68100000D01*
X116578000Y-65520000D02*
G75*
G03X116578000Y-65520000I-1778000J0D01*
G01*
D14*
X113657000Y-64377000D02*
X115943000Y-66663000D01*
X115816000Y-66790000D02*
X113530000Y-64504000D01*
X113784000Y-64250000D02*
X116070000Y-66536000D01*
X113784000Y-59250000D02*
X116070000Y-61536000D01*
X115816000Y-61790000D02*
X113530000Y-59504000D01*
X113657000Y-59377000D02*
X115943000Y-61663000D01*
D13*
X116578000Y-60520000D02*
G75*
G03X116578000Y-60520000I-1778000J0D01*
G01*
X116959000Y-57940000D02*
X116959000Y-68100000D01*
X116959000Y-68100000D02*
X112641000Y-68100000D01*
X112641000Y-68100000D02*
X112641000Y-57940000D01*
X112641000Y-57940000D02*
X116959000Y-57940000D01*
X116705000Y-63274000D02*
X112895000Y-63274000D01*
X116705000Y-63147000D02*
X112895000Y-63147000D01*
X116705000Y-63020000D02*
X112895000Y-63020000D01*
X116705000Y-62893000D02*
X112895000Y-62893000D01*
X116705000Y-62766000D02*
X112895000Y-62766000D01*
X116705000Y-62639000D02*
X116705000Y-63401000D01*
X116705000Y-63401000D02*
X112895000Y-63401000D01*
X112895000Y-63401000D02*
X112895000Y-62639000D01*
X112895000Y-62639000D02*
X116705000Y-62639000D01*
D12*
X81750760Y-58699000D02*
X81349440Y-58899660D01*
X81349440Y-58899660D02*
X80750000Y-59001260D01*
X80750000Y-59001260D02*
X80249620Y-58899660D01*
X80249620Y-58899660D02*
X79551120Y-58500880D01*
X79551120Y-58500880D02*
X79149800Y-57898900D01*
X79149800Y-57898900D02*
X78949140Y-57299460D01*
X78949140Y-57299460D02*
X78949140Y-50700540D01*
X78949140Y-50700540D02*
X79149800Y-49999500D01*
X79149800Y-49999500D02*
X79449520Y-49600720D01*
X79449520Y-49600720D02*
X79949900Y-49199400D01*
X79949900Y-49199400D02*
X80549340Y-48998740D01*
X80549340Y-48998740D02*
X81049720Y-48998740D01*
X81049720Y-48998740D02*
X81550100Y-49199400D01*
X81550100Y-49199400D02*
X82149540Y-49699780D01*
X82149540Y-49699780D02*
X82449260Y-50200160D01*
X82449260Y-50200160D02*
X82550860Y-50700540D01*
X82550860Y-50799600D02*
X82550860Y-57401060D01*
X82550860Y-57401060D02*
X82449260Y-57799840D01*
X82449260Y-57799840D02*
X82149540Y-58300220D01*
X82149540Y-58300220D02*
X81649160Y-58800600D01*
X83079180Y-50809760D02*
X83030920Y-50350020D01*
X83030920Y-50350020D02*
X82919160Y-49951240D01*
X82919160Y-49951240D02*
X82700720Y-49519440D01*
X82700720Y-49519440D02*
X82469580Y-49229880D01*
X82469580Y-49229880D02*
X82119060Y-48899680D01*
X82119060Y-48899680D02*
X81580580Y-48610120D01*
X81580580Y-48610120D02*
X80981140Y-48480580D01*
X80981140Y-48480580D02*
X80470600Y-48480580D01*
X80470600Y-48480580D02*
X79769560Y-48650760D01*
X79769560Y-48650760D02*
X79180280Y-49049540D01*
X79180280Y-49049540D02*
X78809440Y-49509280D01*
X78809440Y-49509280D02*
X78601160Y-49930920D01*
X78601160Y-49930920D02*
X78441140Y-50380500D01*
X78441140Y-50380500D02*
X78410660Y-50819920D01*
X78629100Y-58160520D02*
X78850080Y-58538980D01*
X78850080Y-58538980D02*
X79129480Y-58859020D01*
X79129480Y-58859020D02*
X79459680Y-59110480D01*
X79459680Y-59110480D02*
X80010860Y-59410200D01*
X80010860Y-59410200D02*
X80480760Y-59519420D01*
X80480760Y-59519420D02*
X80940500Y-59539740D01*
X80940500Y-59539740D02*
X81400240Y-59450840D01*
X81400240Y-59450840D02*
X81849820Y-59260340D01*
X81849820Y-59260340D02*
X82319720Y-58899660D01*
X82319720Y-58899660D02*
X82639760Y-58549140D01*
X82639760Y-58549140D02*
X82870900Y-58160520D01*
X82870900Y-58160520D02*
X83010600Y-57731260D01*
X83010600Y-57731260D02*
X83079180Y-57289300D01*
X78420820Y-50799600D02*
X78420820Y-57251200D01*
X78420820Y-57251200D02*
X78458920Y-57670300D01*
X78458920Y-57670300D02*
X78629100Y-58160520D01*
X83079180Y-50799600D02*
X83079180Y-57251200D01*
X40849220Y-78699100D02*
X40849220Y-75150720D01*
X42599280Y-78699100D02*
X40849220Y-78699100D01*
X49198200Y-78699100D02*
X50948260Y-78699100D01*
X50948260Y-78699100D02*
X50948260Y-75099920D01*
X45898740Y-77299560D02*
X45847940Y-75049120D01*
X45898740Y-77299560D02*
X44948780Y-76298800D01*
X45847940Y-77299560D02*
X46848700Y-76349600D01*
X49198200Y-77299560D02*
X49198200Y-79999580D01*
X49198200Y-79999580D02*
X42599280Y-79999580D01*
X42599280Y-79999580D02*
X42599280Y-77299560D01*
X42599280Y-77299560D02*
X49198200Y-77299560D01*
D13*
X37560000Y-67992000D02*
X37941000Y-68881000D01*
X37560000Y-69770000D02*
X37560000Y-69008000D01*
X37560000Y-67230000D02*
X37560000Y-67992000D01*
X37560000Y-65452000D02*
X42640000Y-65452000D01*
X42640000Y-65452000D02*
X43148000Y-65960000D01*
X43148000Y-65960000D02*
X43148000Y-71040000D01*
X43148000Y-71040000D02*
X42640000Y-71548000D01*
X42640000Y-71548000D02*
X37560000Y-71548000D01*
X37560000Y-71548000D02*
X37052000Y-71040000D01*
X37052000Y-71040000D02*
X37052000Y-65960000D01*
X37052000Y-65960000D02*
X37560000Y-65452000D01*
X41878000Y-68500000D02*
G75*
G03X41878000Y-68500000I-1778000J0D01*
G01*
X117975000Y-35232000D02*
X117848000Y-35740000D01*
X116832000Y-35232000D02*
X117975000Y-35232000D01*
X116959000Y-35740000D02*
X116832000Y-35232000D01*
X112895000Y-50599000D02*
X116705000Y-50599000D01*
X112895000Y-51361000D02*
X112895000Y-50599000D01*
X116705000Y-51361000D02*
X112895000Y-51361000D01*
X116705000Y-50599000D02*
X116705000Y-51361000D01*
X116705000Y-50726000D02*
X112895000Y-50726000D01*
X116705000Y-50853000D02*
X112895000Y-50853000D01*
X116705000Y-50980000D02*
X112895000Y-50980000D01*
X116705000Y-51107000D02*
X112895000Y-51107000D01*
X116705000Y-51234000D02*
X112895000Y-51234000D01*
X112641000Y-45900000D02*
X116959000Y-45900000D01*
X112641000Y-56060000D02*
X112641000Y-45900000D01*
X116959000Y-56060000D02*
X112641000Y-56060000D01*
X116959000Y-45900000D02*
X116959000Y-56060000D01*
X116578000Y-48480000D02*
G75*
G03X116578000Y-48480000I-1778000J0D01*
G01*
D14*
X113657000Y-47337000D02*
X115943000Y-49623000D01*
X115816000Y-49750000D02*
X113530000Y-47464000D01*
X113784000Y-47210000D02*
X116070000Y-49496000D01*
X113784000Y-52210000D02*
X116070000Y-54496000D01*
X115816000Y-54750000D02*
X113530000Y-52464000D01*
X113657000Y-52337000D02*
X115943000Y-54623000D01*
D13*
X116578000Y-53480000D02*
G75*
G03X116578000Y-53480000I-1778000J0D01*
G01*
X111244000Y-56060000D02*
X112641000Y-56060000D01*
X111244000Y-45900000D02*
X111244000Y-56060000D01*
X112641000Y-45900000D02*
X111244000Y-45900000D01*
X118737000Y-56060000D02*
X116959000Y-56060000D01*
X118737000Y-45900000D02*
X118737000Y-56060000D01*
X116959000Y-45900000D02*
X118737000Y-45900000D01*
X118356000Y-48440000D02*
G75*
G03X118356000Y-48440000I-508000J0D01*
G01*
X118356000Y-53520000D02*
G75*
G03X118356000Y-53520000I-508000J0D01*
G01*
X118356000Y-43360000D02*
G75*
G03X118356000Y-43360000I-508000J0D01*
G01*
X118356000Y-38280000D02*
G75*
G03X118356000Y-38280000I-508000J0D01*
G01*
X116959000Y-35740000D02*
X118737000Y-35740000D01*
X118737000Y-35740000D02*
X118737000Y-45900000D01*
X118737000Y-45900000D02*
X116959000Y-45900000D01*
X112641000Y-35740000D02*
X111244000Y-35740000D01*
X111244000Y-35740000D02*
X111244000Y-45900000D01*
X111244000Y-45900000D02*
X112641000Y-45900000D01*
X116578000Y-43320000D02*
G75*
G03X116578000Y-43320000I-1778000J0D01*
G01*
D14*
X113657000Y-42177000D02*
X115943000Y-44463000D01*
X115816000Y-44590000D02*
X113530000Y-42304000D01*
X113784000Y-42050000D02*
X116070000Y-44336000D01*
X113784000Y-37050000D02*
X116070000Y-39336000D01*
X115816000Y-39590000D02*
X113530000Y-37304000D01*
X113657000Y-37177000D02*
X115943000Y-39463000D01*
D13*
X116578000Y-38320000D02*
G75*
G03X116578000Y-38320000I-1778000J0D01*
G01*
X116959000Y-35740000D02*
X116959000Y-45900000D01*
X116959000Y-45900000D02*
X112641000Y-45900000D01*
X112641000Y-45900000D02*
X112641000Y-35740000D01*
X112641000Y-35740000D02*
X116959000Y-35740000D01*
X116705000Y-41074000D02*
X112895000Y-41074000D01*
X116705000Y-40947000D02*
X112895000Y-40947000D01*
X116705000Y-40820000D02*
X112895000Y-40820000D01*
X116705000Y-40693000D02*
X112895000Y-40693000D01*
X116705000Y-40566000D02*
X112895000Y-40566000D01*
X116705000Y-40439000D02*
X116705000Y-41201000D01*
X116705000Y-41201000D02*
X112895000Y-41201000D01*
X112895000Y-41201000D02*
X112895000Y-40439000D01*
X112895000Y-40439000D02*
X116705000Y-40439000D01*
X67515000Y-73160000D02*
X68150000Y-73795000D01*
X68150000Y-77605000D02*
X67515000Y-78240000D01*
X67515000Y-78240000D02*
X66245000Y-78240000D01*
X66245000Y-78240000D02*
X65610000Y-77605000D01*
X65610000Y-77605000D02*
X65610000Y-73795000D01*
X65610000Y-73795000D02*
X66245000Y-73160000D01*
X66245000Y-73160000D02*
X67515000Y-73160000D01*
X68785000Y-73160000D02*
X70055000Y-73160000D01*
X68150000Y-73795000D02*
X68785000Y-73160000D01*
X68150000Y-77605000D02*
X68150000Y-73795000D01*
X68785000Y-78240000D02*
X68150000Y-77605000D01*
X70055000Y-78240000D02*
X68785000Y-78240000D01*
X70690000Y-77605000D02*
X70055000Y-78240000D01*
X70055000Y-73160000D02*
X70690000Y-73795000D01*
X72595000Y-73160000D02*
X73230000Y-73795000D01*
X73230000Y-77605000D02*
X72595000Y-78240000D01*
X72595000Y-78240000D02*
X71325000Y-78240000D01*
X71325000Y-78240000D02*
X70690000Y-77605000D01*
X70690000Y-77605000D02*
X70690000Y-73795000D01*
X70690000Y-73795000D02*
X71325000Y-73160000D01*
X71325000Y-73160000D02*
X72595000Y-73160000D01*
X73865000Y-73160000D02*
X75135000Y-73160000D01*
X73230000Y-73795000D02*
X73865000Y-73160000D01*
X73230000Y-77605000D02*
X73230000Y-73795000D01*
X73865000Y-78240000D02*
X73230000Y-77605000D01*
X75135000Y-78240000D02*
X73865000Y-78240000D01*
X75770000Y-77605000D02*
X75135000Y-78240000D01*
X75135000Y-73160000D02*
X75770000Y-73795000D01*
X77675000Y-73160000D02*
X78310000Y-73795000D01*
X78310000Y-77605000D02*
X77675000Y-78240000D01*
X77675000Y-78240000D02*
X76405000Y-78240000D01*
X76405000Y-78240000D02*
X75770000Y-77605000D01*
X75770000Y-77605000D02*
X75770000Y-73795000D01*
X75770000Y-73795000D02*
X76405000Y-73160000D01*
X76405000Y-73160000D02*
X77675000Y-73160000D01*
X78945000Y-73160000D02*
X80215000Y-73160000D01*
X78310000Y-73795000D02*
X78945000Y-73160000D01*
X78310000Y-77605000D02*
X78310000Y-73795000D01*
X78945000Y-78240000D02*
X78310000Y-77605000D01*
X80215000Y-78240000D02*
X78945000Y-78240000D01*
X80850000Y-77605000D02*
X80215000Y-78240000D01*
X80215000Y-73160000D02*
X80850000Y-73795000D01*
X82755000Y-73160000D02*
X83390000Y-73795000D01*
X83390000Y-73795000D02*
X83390000Y-77605000D01*
X83390000Y-77605000D02*
X82755000Y-78240000D01*
X82755000Y-78240000D02*
X81485000Y-78240000D01*
X81485000Y-78240000D02*
X80850000Y-77605000D01*
X80850000Y-77605000D02*
X80850000Y-73795000D01*
X80850000Y-73795000D02*
X81485000Y-73160000D01*
X81485000Y-73160000D02*
X82755000Y-73160000D01*
X82755000Y-72525000D02*
X81485000Y-72525000D01*
D12*
X57800000Y-65050000D02*
X56000000Y-65050000D01*
X57800000Y-65600000D02*
X57800000Y-65050000D01*
X56000000Y-65050000D02*
X56000000Y-65600000D01*
X60715000Y-65595000D02*
X60715000Y-64325000D01*
X53365000Y-65595000D02*
X53365000Y-64325000D01*
X53365000Y-53385000D02*
X53365000Y-54655000D01*
X60715000Y-53385000D02*
X60715000Y-54655000D01*
X60715000Y-65595000D02*
X53365000Y-65595000D01*
X60715000Y-53385000D02*
X53365000Y-53385000D01*
X57800000Y-51050000D02*
X56000000Y-51050000D01*
X57800000Y-51600000D02*
X57800000Y-51050000D01*
X56000000Y-51050000D02*
X56000000Y-51600000D01*
X60715000Y-51595000D02*
X60715000Y-50325000D01*
X53365000Y-51595000D02*
X53365000Y-50325000D01*
X53365000Y-39385000D02*
X53365000Y-40655000D01*
X60715000Y-39385000D02*
X60715000Y-40655000D01*
X60715000Y-51595000D02*
X53365000Y-51595000D01*
X60715000Y-39385000D02*
X53365000Y-39385000D01*
X39400000Y-61800000D02*
X35700000Y-61800000D01*
X35700000Y-61800000D02*
X35700000Y-60800000D01*
X39400000Y-55800000D02*
X35700000Y-55800000D01*
X35700000Y-55800000D02*
X35700000Y-56800000D01*
X39400000Y-61800000D02*
X39400000Y-59550000D01*
X39400000Y-55800000D02*
X39400000Y-58100000D01*
X39400000Y-58050000D02*
X39400000Y-59550000D01*
X32500000Y-55800000D02*
X32500000Y-61800000D01*
X32500000Y-55800000D02*
X34500000Y-55800000D01*
X32500000Y-61800000D02*
X34500000Y-61800000D01*
X34500000Y-54300000D02*
X34500000Y-56800000D01*
X35500000Y-64800000D02*
X46500000Y-64800000D01*
X34500000Y-60800000D02*
X34500000Y-63300000D01*
X35500000Y-52800000D02*
X46500000Y-52800000D01*
X34500000Y-63300000D02*
X35500000Y-63300000D01*
X35500000Y-63300000D02*
X35500000Y-64800000D01*
X35500000Y-54300000D02*
X34500000Y-54300000D01*
X35500000Y-54300000D02*
X35500000Y-52800000D01*
X34500000Y-56800000D02*
X35700000Y-56800000D01*
X34500000Y-60800000D02*
X35700000Y-60800000D01*
X35700000Y-56800000D02*
X35700000Y-60800000D01*
X46500000Y-52800000D02*
X46500000Y-64800000D01*
X39400000Y-49300000D02*
X35700000Y-49300000D01*
X35700000Y-49300000D02*
X35700000Y-48300000D01*
X39400000Y-43300000D02*
X35700000Y-43300000D01*
X35700000Y-43300000D02*
X35700000Y-44300000D01*
X39400000Y-49300000D02*
X39400000Y-47050000D01*
X39400000Y-43300000D02*
X39400000Y-45600000D01*
X39400000Y-45550000D02*
X39400000Y-47050000D01*
X32500000Y-43300000D02*
X32500000Y-49300000D01*
X32500000Y-43300000D02*
X34500000Y-43300000D01*
X32500000Y-49300000D02*
X34500000Y-49300000D01*
X34500000Y-41800000D02*
X34500000Y-44300000D01*
X35500000Y-52300000D02*
X46500000Y-52300000D01*
X34500000Y-48300000D02*
X34500000Y-50800000D01*
X35500000Y-40300000D02*
X46500000Y-40300000D01*
X34500000Y-50800000D02*
X35500000Y-50800000D01*
X35500000Y-50800000D02*
X35500000Y-52300000D01*
X35500000Y-41800000D02*
X34500000Y-41800000D01*
X35500000Y-41800000D02*
X35500000Y-40300000D01*
X34500000Y-44300000D02*
X35700000Y-44300000D01*
X34500000Y-48300000D02*
X35700000Y-48300000D01*
X35700000Y-44300000D02*
X35700000Y-48300000D01*
X46500000Y-40300000D02*
X46500000Y-52300000D01*
X95000472Y-51750000D02*
G75*
G03X95000472Y-51750000I-2514472J0D01*
G01*
X105567000Y-54290000D02*
X107345000Y-54290000D01*
X105567000Y-51750000D02*
X107345000Y-51750000D01*
X105567000Y-49210000D02*
X107345000Y-49210000D01*
X97058000Y-46416000D02*
X89057000Y-46416000D01*
X89057000Y-46416000D02*
X89057000Y-57084000D01*
X89057000Y-57084000D02*
X97058000Y-57084000D01*
X105567000Y-46416000D02*
X97058000Y-46416000D01*
X97058000Y-46416000D02*
X97058000Y-57084000D01*
X97058000Y-57084000D02*
X105567000Y-57084000D01*
X105567000Y-51750000D02*
X105567000Y-57084000D01*
X105567000Y-51750000D02*
X105567000Y-46416000D01*
X95000472Y-62750000D02*
G75*
G03X95000472Y-62750000I-2514472J0D01*
G01*
X105567000Y-65290000D02*
X107345000Y-65290000D01*
X105567000Y-62750000D02*
X107345000Y-62750000D01*
X105567000Y-60210000D02*
X107345000Y-60210000D01*
X97058000Y-57416000D02*
X89057000Y-57416000D01*
X89057000Y-57416000D02*
X89057000Y-68084000D01*
X89057000Y-68084000D02*
X97058000Y-68084000D01*
X105567000Y-57416000D02*
X97058000Y-57416000D01*
X97058000Y-57416000D02*
X97058000Y-68084000D01*
X97058000Y-68084000D02*
X105567000Y-68084000D01*
X105567000Y-62750000D02*
X105567000Y-68084000D01*
X105567000Y-62750000D02*
X105567000Y-57416000D01*
X95000472Y-40750000D02*
G75*
G03X95000472Y-40750000I-2514472J0D01*
G01*
X105567000Y-43290000D02*
X107345000Y-43290000D01*
X105567000Y-40750000D02*
X107345000Y-40750000D01*
X105567000Y-38210000D02*
X107345000Y-38210000D01*
X97058000Y-35416000D02*
X89057000Y-35416000D01*
X89057000Y-35416000D02*
X89057000Y-46084000D01*
X89057000Y-46084000D02*
X97058000Y-46084000D01*
X105567000Y-35416000D02*
X97058000Y-35416000D01*
X97058000Y-35416000D02*
X97058000Y-46084000D01*
X97058000Y-46084000D02*
X105567000Y-46084000D01*
X105567000Y-40750000D02*
X105567000Y-46084000D01*
X105567000Y-40750000D02*
X105567000Y-35416000D01*
X64023810Y-36452381D02*
X64023810Y-35452381D01*
X65071429Y-36357143D02*
X65023810Y-36404762D01*
X64880953Y-36452381D01*
X64785715Y-36452381D01*
X64642857Y-36404762D01*
X64547619Y-36309524D01*
X64500000Y-36214286D01*
X64452381Y-36023810D01*
X64452381Y-35880952D01*
X64500000Y-35690476D01*
X64547619Y-35595238D01*
X64642857Y-35500000D01*
X64785715Y-35452381D01*
X64880953Y-35452381D01*
X65023810Y-35500000D01*
X65071429Y-35547619D01*
X66023810Y-36452381D02*
X65452381Y-36452381D01*
X65738095Y-36452381D02*
X65738095Y-35452381D01*
X65642857Y-35595238D01*
X65547619Y-35690476D01*
X65452381Y-35738095D01*
X84357143Y-51166666D02*
X84404762Y-51214285D01*
X84452381Y-51357142D01*
X84452381Y-51452380D01*
X84404762Y-51595238D01*
X84309524Y-51690476D01*
X84214286Y-51738095D01*
X84023810Y-51785714D01*
X83880952Y-51785714D01*
X83690476Y-51738095D01*
X83595238Y-51690476D01*
X83500000Y-51595238D01*
X83452381Y-51452380D01*
X83452381Y-51357142D01*
X83500000Y-51214285D01*
X83547619Y-51166666D01*
X83452381Y-50833333D02*
X83452381Y-50214285D01*
X83833333Y-50547619D01*
X83833333Y-50404761D01*
X83880952Y-50309523D01*
X83928571Y-50261904D01*
X84023810Y-50214285D01*
X84261905Y-50214285D01*
X84357143Y-50261904D01*
X84404762Y-50309523D01*
X84452381Y-50404761D01*
X84452381Y-50690476D01*
X84404762Y-50785714D01*
X84357143Y-50833333D01*
X44452381Y-68666666D02*
X43976190Y-69000000D01*
X44452381Y-69238095D02*
X43452381Y-69238095D01*
X43452381Y-68857142D01*
X43500000Y-68761904D01*
X43547619Y-68714285D01*
X43642857Y-68666666D01*
X43785714Y-68666666D01*
X43880952Y-68714285D01*
X43928571Y-68761904D01*
X43976190Y-68857142D01*
X43976190Y-69238095D01*
X43452381Y-67761904D02*
X43452381Y-68238095D01*
X43928571Y-68285714D01*
X43880952Y-68238095D01*
X43833333Y-68142857D01*
X43833333Y-67904761D01*
X43880952Y-67809523D01*
X43928571Y-67761904D01*
X44023810Y-67714285D01*
X44261905Y-67714285D01*
X44357143Y-67761904D01*
X44404762Y-67809523D01*
X44452381Y-67904761D01*
X44452381Y-68142857D01*
X44404762Y-68238095D01*
X44357143Y-68285714D01*
D15*
X83880724Y-70054895D02*
X83880724Y-70712876D01*
X83919429Y-70790286D01*
X83958133Y-70828990D01*
X84035543Y-70867695D01*
X84190362Y-70867695D01*
X84267771Y-70828990D01*
X84306476Y-70790286D01*
X84345181Y-70712876D01*
X84345181Y-70054895D01*
X84693524Y-70132305D02*
X84732229Y-70093600D01*
X84809638Y-70054895D01*
X85003162Y-70054895D01*
X85080572Y-70093600D01*
X85119276Y-70132305D01*
X85157981Y-70209714D01*
X85157981Y-70287124D01*
X85119276Y-70403238D01*
X84654819Y-70867695D01*
X85157981Y-70867695D01*
D12*
X63607143Y-53916666D02*
X63654762Y-53964285D01*
X63702381Y-54107142D01*
X63702381Y-54202380D01*
X63654762Y-54345238D01*
X63559524Y-54440476D01*
X63464286Y-54488095D01*
X63273810Y-54535714D01*
X63130952Y-54535714D01*
X62940476Y-54488095D01*
X62845238Y-54440476D01*
X62750000Y-54345238D01*
X62702381Y-54202380D01*
X62702381Y-54107142D01*
X62750000Y-53964285D01*
X62797619Y-53916666D01*
X63702381Y-52964285D02*
X63702381Y-53535714D01*
X63702381Y-53250000D02*
X62702381Y-53250000D01*
X62845238Y-53345238D01*
X62940476Y-53440476D01*
X62988095Y-53535714D01*
X84357143Y-56666666D02*
X84404762Y-56714285D01*
X84452381Y-56857142D01*
X84452381Y-56952380D01*
X84404762Y-57095238D01*
X84309524Y-57190476D01*
X84214286Y-57238095D01*
X84023810Y-57285714D01*
X83880952Y-57285714D01*
X83690476Y-57238095D01*
X83595238Y-57190476D01*
X83500000Y-57095238D01*
X83452381Y-56952380D01*
X83452381Y-56857142D01*
X83500000Y-56714285D01*
X83547619Y-56666666D01*
X83547619Y-56285714D02*
X83500000Y-56238095D01*
X83452381Y-56142857D01*
X83452381Y-55904761D01*
X83500000Y-55809523D01*
X83547619Y-55761904D01*
X83642857Y-55714285D01*
X83738095Y-55714285D01*
X83880952Y-55761904D01*
X84452381Y-56333333D01*
X84452381Y-55714285D01*
X95083334Y-70357143D02*
X95035715Y-70404762D01*
X94892858Y-70452381D01*
X94797620Y-70452381D01*
X94654762Y-70404762D01*
X94559524Y-70309524D01*
X94511905Y-70214286D01*
X94464286Y-70023810D01*
X94464286Y-69880952D01*
X94511905Y-69690476D01*
X94559524Y-69595238D01*
X94654762Y-69500000D01*
X94797620Y-69452381D01*
X94892858Y-69452381D01*
X95035715Y-69500000D01*
X95083334Y-69547619D01*
X95940477Y-69785714D02*
X95940477Y-70452381D01*
X95702381Y-69404762D02*
X95464286Y-70119048D01*
X96083334Y-70119048D01*
X82083334Y-66357143D02*
X82035715Y-66404762D01*
X81892858Y-66452381D01*
X81797620Y-66452381D01*
X81654762Y-66404762D01*
X81559524Y-66309524D01*
X81511905Y-66214286D01*
X81464286Y-66023810D01*
X81464286Y-65880952D01*
X81511905Y-65690476D01*
X81559524Y-65595238D01*
X81654762Y-65500000D01*
X81797620Y-65452381D01*
X81892858Y-65452381D01*
X82035715Y-65500000D01*
X82083334Y-65547619D01*
X82988096Y-65452381D02*
X82511905Y-65452381D01*
X82464286Y-65928571D01*
X82511905Y-65880952D01*
X82607143Y-65833333D01*
X82845239Y-65833333D01*
X82940477Y-65880952D01*
X82988096Y-65928571D01*
X83035715Y-66023810D01*
X83035715Y-66261905D01*
X82988096Y-66357143D01*
X82940477Y-66404762D01*
X82845239Y-66452381D01*
X82607143Y-66452381D01*
X82511905Y-66404762D01*
X82464286Y-66357143D01*
X65607143Y-48166666D02*
X65654762Y-48214285D01*
X65702381Y-48357142D01*
X65702381Y-48452380D01*
X65654762Y-48595238D01*
X65559524Y-48690476D01*
X65464286Y-48738095D01*
X65273810Y-48785714D01*
X65130952Y-48785714D01*
X64940476Y-48738095D01*
X64845238Y-48690476D01*
X64750000Y-48595238D01*
X64702381Y-48452380D01*
X64702381Y-48357142D01*
X64750000Y-48214285D01*
X64797619Y-48166666D01*
X64702381Y-47309523D02*
X64702381Y-47500000D01*
X64750000Y-47595238D01*
X64797619Y-47642857D01*
X64940476Y-47738095D01*
X65130952Y-47785714D01*
X65511905Y-47785714D01*
X65607143Y-47738095D01*
X65654762Y-47690476D01*
X65702381Y-47595238D01*
X65702381Y-47404761D01*
X65654762Y-47309523D01*
X65607143Y-47261904D01*
X65511905Y-47214285D01*
X65273810Y-47214285D01*
X65178571Y-47261904D01*
X65130952Y-47309523D01*
X65083333Y-47404761D01*
X65083333Y-47595238D01*
X65130952Y-47690476D01*
X65178571Y-47738095D01*
X65273810Y-47785714D01*
X49083334Y-38857143D02*
X49035715Y-38904762D01*
X48892858Y-38952381D01*
X48797620Y-38952381D01*
X48654762Y-38904762D01*
X48559524Y-38809524D01*
X48511905Y-38714286D01*
X48464286Y-38523810D01*
X48464286Y-38380952D01*
X48511905Y-38190476D01*
X48559524Y-38095238D01*
X48654762Y-38000000D01*
X48797620Y-37952381D01*
X48892858Y-37952381D01*
X49035715Y-38000000D01*
X49083334Y-38047619D01*
X49416667Y-37952381D02*
X50083334Y-37952381D01*
X49654762Y-38952381D01*
X49083334Y-45857143D02*
X49035715Y-45904762D01*
X48892858Y-45952381D01*
X48797620Y-45952381D01*
X48654762Y-45904762D01*
X48559524Y-45809524D01*
X48511905Y-45714286D01*
X48464286Y-45523810D01*
X48464286Y-45380952D01*
X48511905Y-45190476D01*
X48559524Y-45095238D01*
X48654762Y-45000000D01*
X48797620Y-44952381D01*
X48892858Y-44952381D01*
X49035715Y-45000000D01*
X49083334Y-45047619D01*
X49654762Y-45380952D02*
X49559524Y-45333333D01*
X49511905Y-45285714D01*
X49464286Y-45190476D01*
X49464286Y-45142857D01*
X49511905Y-45047619D01*
X49559524Y-45000000D01*
X49654762Y-44952381D01*
X49845239Y-44952381D01*
X49940477Y-45000000D01*
X49988096Y-45047619D01*
X50035715Y-45142857D01*
X50035715Y-45190476D01*
X49988096Y-45285714D01*
X49940477Y-45333333D01*
X49845239Y-45380952D01*
X49654762Y-45380952D01*
X49559524Y-45428571D01*
X49511905Y-45476190D01*
X49464286Y-45571429D01*
X49464286Y-45761905D01*
X49511905Y-45857143D01*
X49559524Y-45904762D01*
X49654762Y-45952381D01*
X49845239Y-45952381D01*
X49940477Y-45904762D01*
X49988096Y-45857143D01*
X50035715Y-45761905D01*
X50035715Y-45571429D01*
X49988096Y-45476190D01*
X49940477Y-45428571D01*
X49845239Y-45380952D01*
X49083334Y-42357143D02*
X49035715Y-42404762D01*
X48892858Y-42452381D01*
X48797620Y-42452381D01*
X48654762Y-42404762D01*
X48559524Y-42309524D01*
X48511905Y-42214286D01*
X48464286Y-42023810D01*
X48464286Y-41880952D01*
X48511905Y-41690476D01*
X48559524Y-41595238D01*
X48654762Y-41500000D01*
X48797620Y-41452381D01*
X48892858Y-41452381D01*
X49035715Y-41500000D01*
X49083334Y-41547619D01*
X49559524Y-42452381D02*
X49750000Y-42452381D01*
X49845239Y-42404762D01*
X49892858Y-42357143D01*
X49988096Y-42214286D01*
X50035715Y-42023810D01*
X50035715Y-41642857D01*
X49988096Y-41547619D01*
X49940477Y-41500000D01*
X49845239Y-41452381D01*
X49654762Y-41452381D01*
X49559524Y-41500000D01*
X49511905Y-41547619D01*
X49464286Y-41642857D01*
X49464286Y-41880952D01*
X49511905Y-41976190D01*
X49559524Y-42023810D01*
X49654762Y-42071429D01*
X49845239Y-42071429D01*
X49940477Y-42023810D01*
X49988096Y-41976190D01*
X50035715Y-41880952D01*
X65607143Y-63142857D02*
X65654762Y-63190476D01*
X65702381Y-63333333D01*
X65702381Y-63428571D01*
X65654762Y-63571429D01*
X65559524Y-63666667D01*
X65464286Y-63714286D01*
X65273810Y-63761905D01*
X65130952Y-63761905D01*
X64940476Y-63714286D01*
X64845238Y-63666667D01*
X64750000Y-63571429D01*
X64702381Y-63428571D01*
X64702381Y-63333333D01*
X64750000Y-63190476D01*
X64797619Y-63142857D01*
X65702381Y-62190476D02*
X65702381Y-62761905D01*
X65702381Y-62476191D02*
X64702381Y-62476191D01*
X64845238Y-62571429D01*
X64940476Y-62666667D01*
X64988095Y-62761905D01*
X64702381Y-61571429D02*
X64702381Y-61476190D01*
X64750000Y-61380952D01*
X64797619Y-61333333D01*
X64892857Y-61285714D01*
X65083333Y-61238095D01*
X65321429Y-61238095D01*
X65511905Y-61285714D01*
X65607143Y-61333333D01*
X65654762Y-61380952D01*
X65702381Y-61476190D01*
X65702381Y-61571429D01*
X65654762Y-61666667D01*
X65607143Y-61714286D01*
X65511905Y-61761905D01*
X65321429Y-61809524D01*
X65083333Y-61809524D01*
X64892857Y-61761905D01*
X64797619Y-61714286D01*
X64750000Y-61666667D01*
X64702381Y-61571429D01*
X48607143Y-52857143D02*
X48559524Y-52904762D01*
X48416667Y-52952381D01*
X48321429Y-52952381D01*
X48178571Y-52904762D01*
X48083333Y-52809524D01*
X48035714Y-52714286D01*
X47988095Y-52523810D01*
X47988095Y-52380952D01*
X48035714Y-52190476D01*
X48083333Y-52095238D01*
X48178571Y-52000000D01*
X48321429Y-51952381D01*
X48416667Y-51952381D01*
X48559524Y-52000000D01*
X48607143Y-52047619D01*
X49559524Y-52952381D02*
X48988095Y-52952381D01*
X49273809Y-52952381D02*
X49273809Y-51952381D01*
X49178571Y-52095238D01*
X49083333Y-52190476D01*
X48988095Y-52238095D01*
X50511905Y-52952381D02*
X49940476Y-52952381D01*
X50226190Y-52952381D02*
X50226190Y-51952381D01*
X50130952Y-52095238D01*
X50035714Y-52190476D01*
X49940476Y-52238095D01*
X48607143Y-59857143D02*
X48559524Y-59904762D01*
X48416667Y-59952381D01*
X48321429Y-59952381D01*
X48178571Y-59904762D01*
X48083333Y-59809524D01*
X48035714Y-59714286D01*
X47988095Y-59523810D01*
X47988095Y-59380952D01*
X48035714Y-59190476D01*
X48083333Y-59095238D01*
X48178571Y-59000000D01*
X48321429Y-58952381D01*
X48416667Y-58952381D01*
X48559524Y-59000000D01*
X48607143Y-59047619D01*
X49559524Y-59952381D02*
X48988095Y-59952381D01*
X49273809Y-59952381D02*
X49273809Y-58952381D01*
X49178571Y-59095238D01*
X49083333Y-59190476D01*
X48988095Y-59238095D01*
X49940476Y-59047619D02*
X49988095Y-59000000D01*
X50083333Y-58952381D01*
X50321429Y-58952381D01*
X50416667Y-59000000D01*
X50464286Y-59047619D01*
X50511905Y-59142857D01*
X50511905Y-59238095D01*
X50464286Y-59380952D01*
X49892857Y-59952381D01*
X50511905Y-59952381D01*
X48607143Y-56357143D02*
X48559524Y-56404762D01*
X48416667Y-56452381D01*
X48321429Y-56452381D01*
X48178571Y-56404762D01*
X48083333Y-56309524D01*
X48035714Y-56214286D01*
X47988095Y-56023810D01*
X47988095Y-55880952D01*
X48035714Y-55690476D01*
X48083333Y-55595238D01*
X48178571Y-55500000D01*
X48321429Y-55452381D01*
X48416667Y-55452381D01*
X48559524Y-55500000D01*
X48607143Y-55547619D01*
X49559524Y-56452381D02*
X48988095Y-56452381D01*
X49273809Y-56452381D02*
X49273809Y-55452381D01*
X49178571Y-55595238D01*
X49083333Y-55690476D01*
X48988095Y-55738095D01*
X49892857Y-55452381D02*
X50511905Y-55452381D01*
X50178571Y-55833333D01*
X50321429Y-55833333D01*
X50416667Y-55880952D01*
X50464286Y-55928571D01*
X50511905Y-56023810D01*
X50511905Y-56261905D01*
X50464286Y-56357143D01*
X50416667Y-56404762D01*
X50321429Y-56452381D01*
X50035714Y-56452381D01*
X49940476Y-56404762D01*
X49892857Y-56357143D01*
D15*
X104513029Y-68940286D02*
X104474324Y-68978990D01*
X104358210Y-69017695D01*
X104280800Y-69017695D01*
X104164686Y-68978990D01*
X104087277Y-68901581D01*
X104048572Y-68824171D01*
X104009867Y-68669352D01*
X104009867Y-68553238D01*
X104048572Y-68398419D01*
X104087277Y-68321010D01*
X104164686Y-68243600D01*
X104280800Y-68204895D01*
X104358210Y-68204895D01*
X104474324Y-68243600D01*
X104513029Y-68282305D01*
X105016191Y-68204895D02*
X105171010Y-68204895D01*
X105248419Y-68243600D01*
X105325829Y-68321010D01*
X105364534Y-68475829D01*
X105364534Y-68746762D01*
X105325829Y-68901581D01*
X105248419Y-68978990D01*
X105171010Y-69017695D01*
X105016191Y-69017695D01*
X104938781Y-68978990D01*
X104861372Y-68901581D01*
X104822667Y-68746762D01*
X104822667Y-68475829D01*
X104861372Y-68321010D01*
X104938781Y-68243600D01*
X105016191Y-68204895D01*
X105712877Y-69017695D02*
X105712877Y-68204895D01*
X106177334Y-69017695D01*
X106177334Y-68204895D01*
X106525677Y-68282305D02*
X106564382Y-68243600D01*
X106641791Y-68204895D01*
X106835315Y-68204895D01*
X106912725Y-68243600D01*
X106951429Y-68282305D01*
X106990134Y-68359714D01*
X106990134Y-68437124D01*
X106951429Y-68553238D01*
X106486972Y-69017695D01*
X106990134Y-69017695D01*
D12*
X61702381Y-69488095D02*
X60702381Y-69488095D01*
X60702381Y-69250000D01*
X60750000Y-69107142D01*
X60845238Y-69011904D01*
X60940476Y-68964285D01*
X61130952Y-68916666D01*
X61273810Y-68916666D01*
X61464286Y-68964285D01*
X61559524Y-69011904D01*
X61654762Y-69107142D01*
X61702381Y-69250000D01*
X61702381Y-69488095D01*
X61702381Y-67964285D02*
X61702381Y-68535714D01*
X61702381Y-68250000D02*
X60702381Y-68250000D01*
X60845238Y-68345238D01*
X60940476Y-68440476D01*
X60988095Y-68535714D01*
D13*
X85492416Y-47958679D02*
X84735496Y-47958679D01*
X84735496Y-47670328D01*
X84771540Y-47598241D01*
X84807584Y-47562197D01*
X84879671Y-47526153D01*
X84987803Y-47526153D01*
X85059890Y-47562197D01*
X85095934Y-47598241D01*
X85131978Y-47670328D01*
X85131978Y-47958679D01*
X85492416Y-46805277D02*
X85492416Y-47237803D01*
X85492416Y-47021540D02*
X84735496Y-47021540D01*
X84843628Y-47093628D01*
X84915715Y-47165715D01*
X84951759Y-47237803D01*
D12*
X80202381Y-62666666D02*
X79726190Y-63000000D01*
X80202381Y-63238095D02*
X79202381Y-63238095D01*
X79202381Y-62857142D01*
X79250000Y-62761904D01*
X79297619Y-62714285D01*
X79392857Y-62666666D01*
X79535714Y-62666666D01*
X79630952Y-62714285D01*
X79678571Y-62761904D01*
X79726190Y-62857142D01*
X79726190Y-63238095D01*
X80202381Y-61714285D02*
X80202381Y-62285714D01*
X80202381Y-62000000D02*
X79202381Y-62000000D01*
X79345238Y-62095238D01*
X79440476Y-62190476D01*
X79488095Y-62285714D01*
X65202381Y-68916666D02*
X64726190Y-69250000D01*
X65202381Y-69488095D02*
X64202381Y-69488095D01*
X64202381Y-69107142D01*
X64250000Y-69011904D01*
X64297619Y-68964285D01*
X64392857Y-68916666D01*
X64535714Y-68916666D01*
X64630952Y-68964285D01*
X64678571Y-69011904D01*
X64726190Y-69107142D01*
X64726190Y-69488095D01*
X64297619Y-68535714D02*
X64250000Y-68488095D01*
X64202381Y-68392857D01*
X64202381Y-68154761D01*
X64250000Y-68059523D01*
X64297619Y-68011904D01*
X64392857Y-67964285D01*
X64488095Y-67964285D01*
X64630952Y-68011904D01*
X65202381Y-68583333D01*
X65202381Y-67964285D01*
X49083334Y-49452381D02*
X48750000Y-48976190D01*
X48511905Y-49452381D02*
X48511905Y-48452381D01*
X48892858Y-48452381D01*
X48988096Y-48500000D01*
X49035715Y-48547619D01*
X49083334Y-48642857D01*
X49083334Y-48785714D01*
X49035715Y-48880952D01*
X48988096Y-48928571D01*
X48892858Y-48976190D01*
X48511905Y-48976190D01*
X49416667Y-48452381D02*
X50035715Y-48452381D01*
X49702381Y-48833333D01*
X49845239Y-48833333D01*
X49940477Y-48880952D01*
X49988096Y-48928571D01*
X50035715Y-49023810D01*
X50035715Y-49261905D01*
X49988096Y-49357143D01*
X49940477Y-49404762D01*
X49845239Y-49452381D01*
X49559524Y-49452381D01*
X49464286Y-49404762D01*
X49416667Y-49357143D01*
X49083334Y-63452381D02*
X48750000Y-62976190D01*
X48511905Y-63452381D02*
X48511905Y-62452381D01*
X48892858Y-62452381D01*
X48988096Y-62500000D01*
X49035715Y-62547619D01*
X49083334Y-62642857D01*
X49083334Y-62785714D01*
X49035715Y-62880952D01*
X48988096Y-62928571D01*
X48892858Y-62976190D01*
X48511905Y-62976190D01*
X49940477Y-62785714D02*
X49940477Y-63452381D01*
X49702381Y-62404762D02*
X49464286Y-63119048D01*
X50083334Y-63119048D01*
X55882762Y-74746381D02*
X55549428Y-74270190D01*
X55311333Y-74746381D02*
X55311333Y-73746381D01*
X55692286Y-73746381D01*
X55787524Y-73794000D01*
X55835143Y-73841619D01*
X55882762Y-73936857D01*
X55882762Y-74079714D01*
X55835143Y-74174952D01*
X55787524Y-74222571D01*
X55692286Y-74270190D01*
X55311333Y-74270190D01*
X56168476Y-73746381D02*
X56501809Y-74746381D01*
X56835143Y-73746381D01*
X57692286Y-74746381D02*
X57120857Y-74746381D01*
X57406571Y-74746381D02*
X57406571Y-73746381D01*
X57311333Y-73889238D01*
X57216095Y-73984476D01*
X57120857Y-74032095D01*
X108066667Y-70254762D02*
X108209524Y-70302381D01*
X108447620Y-70302381D01*
X108542858Y-70254762D01*
X108590477Y-70207143D01*
X108638096Y-70111905D01*
X108638096Y-70016667D01*
X108590477Y-69921429D01*
X108542858Y-69873810D01*
X108447620Y-69826190D01*
X108257143Y-69778571D01*
X108161905Y-69730952D01*
X108114286Y-69683333D01*
X108066667Y-69588095D01*
X108066667Y-69492857D01*
X108114286Y-69397619D01*
X108161905Y-69350000D01*
X108257143Y-69302381D01*
X108495239Y-69302381D01*
X108638096Y-69350000D01*
X108971429Y-69302381D02*
X109209524Y-70302381D01*
X109400001Y-69588095D01*
X109590477Y-70302381D01*
X109828572Y-69302381D01*
X110161905Y-69397619D02*
X110209524Y-69350000D01*
X110304762Y-69302381D01*
X110542858Y-69302381D01*
X110638096Y-69350000D01*
X110685715Y-69397619D01*
X110733334Y-69492857D01*
X110733334Y-69588095D01*
X110685715Y-69730952D01*
X110114286Y-70302381D01*
X110733334Y-70302381D01*
D15*
X110867695Y-59099923D02*
X110054895Y-59099923D01*
X110054895Y-58790285D01*
X110093600Y-58712876D01*
X110132305Y-58674171D01*
X110209714Y-58635466D01*
X110325829Y-58635466D01*
X110403238Y-58674171D01*
X110441943Y-58712876D01*
X110480648Y-58790285D01*
X110480648Y-59099923D01*
X110325829Y-57938780D02*
X110867695Y-57938780D01*
X110016190Y-58132304D02*
X110596762Y-58325828D01*
X110596762Y-57822666D01*
X119767695Y-70448419D02*
X119380648Y-70719352D01*
X119767695Y-70912876D02*
X118954895Y-70912876D01*
X118954895Y-70603238D01*
X118993600Y-70525829D01*
X119032305Y-70487124D01*
X119109714Y-70448419D01*
X119225829Y-70448419D01*
X119303238Y-70487124D01*
X119341943Y-70525829D01*
X119380648Y-70603238D01*
X119380648Y-70912876D01*
X119441943Y-73691943D02*
X119480648Y-73575829D01*
X119519352Y-73537124D01*
X119596762Y-73498419D01*
X119712876Y-73498419D01*
X119790286Y-73537124D01*
X119828990Y-73575829D01*
X119867695Y-73653238D01*
X119867695Y-73962876D01*
X119054895Y-73962876D01*
X119054895Y-73691943D01*
X119093600Y-73614533D01*
X119132305Y-73575829D01*
X119209714Y-73537124D01*
X119287124Y-73537124D01*
X119364533Y-73575829D01*
X119403238Y-73614533D01*
X119441943Y-73691943D01*
X119441943Y-73962876D01*
X118993600Y-65387124D02*
X118954895Y-65464533D01*
X118954895Y-65580648D01*
X118993600Y-65696762D01*
X119071010Y-65774171D01*
X119148419Y-65812876D01*
X119303238Y-65851581D01*
X119419352Y-65851581D01*
X119574171Y-65812876D01*
X119651581Y-65774171D01*
X119728990Y-65696762D01*
X119767695Y-65580648D01*
X119767695Y-65503238D01*
X119728990Y-65387124D01*
X119690286Y-65348419D01*
X119419352Y-65348419D01*
X119419352Y-65503238D01*
X119358057Y-60909638D02*
X119358057Y-60290362D01*
X119667695Y-60600000D02*
X119048419Y-60600000D01*
D12*
X77476190Y-54226191D02*
X77952381Y-54226191D01*
X76952381Y-54559524D02*
X77476190Y-54226191D01*
X76952381Y-53892857D01*
X77952381Y-53035714D02*
X77952381Y-53607143D01*
X77952381Y-53321429D02*
X76952381Y-53321429D01*
X77095238Y-53416667D01*
X77190476Y-53511905D01*
X77238095Y-53607143D01*
X42804762Y-74652381D02*
X42471428Y-74176190D01*
X42233333Y-74652381D02*
X42233333Y-73652381D01*
X42614286Y-73652381D01*
X42709524Y-73700000D01*
X42757143Y-73747619D01*
X42804762Y-73842857D01*
X42804762Y-73985714D01*
X42757143Y-74080952D01*
X42709524Y-74128571D01*
X42614286Y-74176190D01*
X42233333Y-74176190D01*
X43090476Y-73652381D02*
X43423809Y-74652381D01*
X43757143Y-73652381D01*
X44042857Y-73747619D02*
X44090476Y-73700000D01*
X44185714Y-73652381D01*
X44423810Y-73652381D01*
X44519048Y-73700000D01*
X44566667Y-73747619D01*
X44614286Y-73842857D01*
X44614286Y-73938095D01*
X44566667Y-74080952D01*
X43995238Y-74652381D01*
X44614286Y-74652381D01*
D15*
X36578990Y-69583733D02*
X36617695Y-69467619D01*
X36617695Y-69274095D01*
X36578990Y-69196685D01*
X36540286Y-69157981D01*
X36462876Y-69119276D01*
X36385467Y-69119276D01*
X36308057Y-69157981D01*
X36269352Y-69196685D01*
X36230648Y-69274095D01*
X36191943Y-69428914D01*
X36153238Y-69506323D01*
X36114533Y-69545028D01*
X36037124Y-69583733D01*
X35959714Y-69583733D01*
X35882305Y-69545028D01*
X35843600Y-69506323D01*
X35804895Y-69428914D01*
X35804895Y-69235390D01*
X35843600Y-69119276D01*
X35804895Y-68848343D02*
X36617695Y-68654819D01*
X36037124Y-68500000D01*
X36617695Y-68345181D01*
X35804895Y-68151657D01*
X35804895Y-67919429D02*
X35804895Y-67416267D01*
X36114533Y-67687200D01*
X36114533Y-67571086D01*
X36153238Y-67493676D01*
X36191943Y-67454972D01*
X36269352Y-67416267D01*
X36462876Y-67416267D01*
X36540286Y-67454972D01*
X36578990Y-67493676D01*
X36617695Y-67571086D01*
X36617695Y-67803314D01*
X36578990Y-67880724D01*
X36540286Y-67919429D01*
X110867695Y-36599923D02*
X110054895Y-36599923D01*
X110054895Y-36290285D01*
X110093600Y-36212876D01*
X110132305Y-36174171D01*
X110209714Y-36135466D01*
X110325829Y-36135466D01*
X110403238Y-36174171D01*
X110441943Y-36212876D01*
X110480648Y-36290285D01*
X110480648Y-36599923D01*
X110054895Y-35864533D02*
X110054895Y-35361371D01*
X110364533Y-35632304D01*
X110364533Y-35516190D01*
X110403238Y-35438780D01*
X110441943Y-35400076D01*
X110519352Y-35361371D01*
X110712876Y-35361371D01*
X110790286Y-35400076D01*
X110828990Y-35438780D01*
X110867695Y-35516190D01*
X110867695Y-35748418D01*
X110828990Y-35825828D01*
X110790286Y-35864533D01*
X119767695Y-48248419D02*
X119380648Y-48519352D01*
X119767695Y-48712876D02*
X118954895Y-48712876D01*
X118954895Y-48403238D01*
X118993600Y-48325829D01*
X119032305Y-48287124D01*
X119109714Y-48248419D01*
X119225829Y-48248419D01*
X119303238Y-48287124D01*
X119341943Y-48325829D01*
X119380648Y-48403238D01*
X119380648Y-48712876D01*
X119341943Y-53441943D02*
X119380648Y-53325829D01*
X119419352Y-53287124D01*
X119496762Y-53248419D01*
X119612876Y-53248419D01*
X119690286Y-53287124D01*
X119728990Y-53325829D01*
X119767695Y-53403238D01*
X119767695Y-53712876D01*
X118954895Y-53712876D01*
X118954895Y-53441943D01*
X118993600Y-53364533D01*
X119032305Y-53325829D01*
X119109714Y-53287124D01*
X119187124Y-53287124D01*
X119264533Y-53325829D01*
X119303238Y-53364533D01*
X119341943Y-53441943D01*
X119341943Y-53712876D01*
X118993600Y-43087124D02*
X118954895Y-43164533D01*
X118954895Y-43280648D01*
X118993600Y-43396762D01*
X119071010Y-43474171D01*
X119148419Y-43512876D01*
X119303238Y-43551581D01*
X119419352Y-43551581D01*
X119574171Y-43512876D01*
X119651581Y-43474171D01*
X119728990Y-43396762D01*
X119767695Y-43280648D01*
X119767695Y-43203238D01*
X119728990Y-43087124D01*
X119690286Y-43048419D01*
X119419352Y-43048419D01*
X119419352Y-43203238D01*
X117906057Y-37065638D02*
X117906057Y-36446362D01*
X118215695Y-36756000D02*
X117596419Y-36756000D01*
X83650077Y-78367695D02*
X83650077Y-77554895D01*
X83959715Y-77554895D01*
X84037124Y-77593600D01*
X84075829Y-77632305D01*
X84114534Y-77709714D01*
X84114534Y-77825829D01*
X84075829Y-77903238D01*
X84037124Y-77941943D01*
X83959715Y-77980648D01*
X83650077Y-77980648D01*
X84849924Y-77554895D02*
X84462877Y-77554895D01*
X84424172Y-77941943D01*
X84462877Y-77903238D01*
X84540286Y-77864533D01*
X84733810Y-77864533D01*
X84811220Y-77903238D01*
X84849924Y-77941943D01*
X84888629Y-78019352D01*
X84888629Y-78212876D01*
X84849924Y-78290286D01*
X84811220Y-78328990D01*
X84733810Y-78367695D01*
X84540286Y-78367695D01*
X84462877Y-78328990D01*
X84424172Y-78290286D01*
D12*
X55988095Y-51952381D02*
X55988095Y-52761905D01*
X56035714Y-52857143D01*
X56083333Y-52904762D01*
X56178571Y-52952381D01*
X56369048Y-52952381D01*
X56464286Y-52904762D01*
X56511905Y-52857143D01*
X56559524Y-52761905D01*
X56559524Y-51952381D01*
X56940476Y-51952381D02*
X57559524Y-51952381D01*
X57226190Y-52333333D01*
X57369048Y-52333333D01*
X57464286Y-52380952D01*
X57511905Y-52428571D01*
X57559524Y-52523810D01*
X57559524Y-52761905D01*
X57511905Y-52857143D01*
X57464286Y-52904762D01*
X57369048Y-52952381D01*
X57083333Y-52952381D01*
X56988095Y-52904762D01*
X56940476Y-52857143D01*
X55988095Y-37952381D02*
X55988095Y-38761905D01*
X56035714Y-38857143D01*
X56083333Y-38904762D01*
X56178571Y-38952381D01*
X56369048Y-38952381D01*
X56464286Y-38904762D01*
X56511905Y-38857143D01*
X56559524Y-38761905D01*
X56559524Y-37952381D01*
X57559524Y-38952381D02*
X56988095Y-38952381D01*
X57273809Y-38952381D02*
X57273809Y-37952381D01*
X57178571Y-38095238D01*
X57083333Y-38190476D01*
X56988095Y-38238095D01*
X36202381Y-59083333D02*
X36916667Y-59083333D01*
X37059524Y-59130953D01*
X37154762Y-59226191D01*
X37202381Y-59369048D01*
X37202381Y-59464286D01*
X37202381Y-58083333D02*
X37202381Y-58654762D01*
X37202381Y-58369048D02*
X36202381Y-58369048D01*
X36345238Y-58464286D01*
X36440476Y-58559524D01*
X36488095Y-58654762D01*
X36202381Y-46583333D02*
X36916667Y-46583333D01*
X37059524Y-46630953D01*
X37154762Y-46726191D01*
X37202381Y-46869048D01*
X37202381Y-46964286D01*
X36297619Y-46154762D02*
X36250000Y-46107143D01*
X36202381Y-46011905D01*
X36202381Y-45773809D01*
X36250000Y-45678571D01*
X36297619Y-45630952D01*
X36392857Y-45583333D01*
X36488095Y-45583333D01*
X36630952Y-45630952D01*
X37202381Y-46202381D01*
X37202381Y-45583333D01*
X88547619Y-51845238D02*
X88500000Y-51940476D01*
X88404762Y-52035714D01*
X88261905Y-52178571D01*
X88214286Y-52273810D01*
X88214286Y-52369048D01*
X88452381Y-52321429D02*
X88404762Y-52416667D01*
X88309524Y-52511905D01*
X88119048Y-52559524D01*
X87785714Y-52559524D01*
X87595238Y-52511905D01*
X87500000Y-52416667D01*
X87452381Y-52321429D01*
X87452381Y-52130952D01*
X87500000Y-52035714D01*
X87595238Y-51940476D01*
X87785714Y-51892857D01*
X88119048Y-51892857D01*
X88309524Y-51940476D01*
X88404762Y-52035714D01*
X88452381Y-52130952D01*
X88452381Y-52321429D01*
X87452381Y-51559524D02*
X87452381Y-50940476D01*
X87833333Y-51273810D01*
X87833333Y-51130952D01*
X87880952Y-51035714D01*
X87928571Y-50988095D01*
X88023810Y-50940476D01*
X88261905Y-50940476D01*
X88357143Y-50988095D01*
X88404762Y-51035714D01*
X88452381Y-51130952D01*
X88452381Y-51416667D01*
X88404762Y-51511905D01*
X88357143Y-51559524D01*
X104574762Y-49495714D02*
X104622381Y-49352857D01*
X104622381Y-49114761D01*
X104574762Y-49019523D01*
X104527143Y-48971904D01*
X104431905Y-48924285D01*
X104336667Y-48924285D01*
X104241429Y-48971904D01*
X104193810Y-49019523D01*
X104146190Y-49114761D01*
X104098571Y-49305238D01*
X104050952Y-49400476D01*
X104003333Y-49448095D01*
X103908095Y-49495714D01*
X103812857Y-49495714D01*
X103717619Y-49448095D01*
X103670000Y-49400476D01*
X103622381Y-49305238D01*
X103622381Y-49067142D01*
X103670000Y-48924285D01*
X104622381Y-52011905D02*
X103622381Y-52011905D01*
X103622381Y-51773810D01*
X103670000Y-51630952D01*
X103765238Y-51535714D01*
X103860476Y-51488095D01*
X104050952Y-51440476D01*
X104193810Y-51440476D01*
X104384286Y-51488095D01*
X104479524Y-51535714D01*
X104574762Y-51630952D01*
X104622381Y-51773810D01*
X104622381Y-52011905D01*
X103670000Y-54028095D02*
X103622381Y-54123333D01*
X103622381Y-54266190D01*
X103670000Y-54409048D01*
X103765238Y-54504286D01*
X103860476Y-54551905D01*
X104050952Y-54599524D01*
X104193810Y-54599524D01*
X104384286Y-54551905D01*
X104479524Y-54504286D01*
X104574762Y-54409048D01*
X104622381Y-54266190D01*
X104622381Y-54170952D01*
X104574762Y-54028095D01*
X104527143Y-53980476D01*
X104193810Y-53980476D01*
X104193810Y-54170952D01*
X88597619Y-62895238D02*
X88550000Y-62990476D01*
X88454762Y-63085714D01*
X88311905Y-63228571D01*
X88264286Y-63323810D01*
X88264286Y-63419048D01*
X88502381Y-63371429D02*
X88454762Y-63466667D01*
X88359524Y-63561905D01*
X88169048Y-63609524D01*
X87835714Y-63609524D01*
X87645238Y-63561905D01*
X87550000Y-63466667D01*
X87502381Y-63371429D01*
X87502381Y-63180952D01*
X87550000Y-63085714D01*
X87645238Y-62990476D01*
X87835714Y-62942857D01*
X88169048Y-62942857D01*
X88359524Y-62990476D01*
X88454762Y-63085714D01*
X88502381Y-63180952D01*
X88502381Y-63371429D01*
X87835714Y-62085714D02*
X88502381Y-62085714D01*
X87454762Y-62323810D02*
X88169048Y-62561905D01*
X88169048Y-61942857D01*
X104574762Y-60495714D02*
X104622381Y-60352857D01*
X104622381Y-60114761D01*
X104574762Y-60019523D01*
X104527143Y-59971904D01*
X104431905Y-59924285D01*
X104336667Y-59924285D01*
X104241429Y-59971904D01*
X104193810Y-60019523D01*
X104146190Y-60114761D01*
X104098571Y-60305238D01*
X104050952Y-60400476D01*
X104003333Y-60448095D01*
X103908095Y-60495714D01*
X103812857Y-60495714D01*
X103717619Y-60448095D01*
X103670000Y-60400476D01*
X103622381Y-60305238D01*
X103622381Y-60067142D01*
X103670000Y-59924285D01*
X104622381Y-63011905D02*
X103622381Y-63011905D01*
X103622381Y-62773810D01*
X103670000Y-62630952D01*
X103765238Y-62535714D01*
X103860476Y-62488095D01*
X104050952Y-62440476D01*
X104193810Y-62440476D01*
X104384286Y-62488095D01*
X104479524Y-62535714D01*
X104574762Y-62630952D01*
X104622381Y-62773810D01*
X104622381Y-63011905D01*
X103670000Y-65028095D02*
X103622381Y-65123333D01*
X103622381Y-65266190D01*
X103670000Y-65409048D01*
X103765238Y-65504286D01*
X103860476Y-65551905D01*
X104050952Y-65599524D01*
X104193810Y-65599524D01*
X104384286Y-65551905D01*
X104479524Y-65504286D01*
X104574762Y-65409048D01*
X104622381Y-65266190D01*
X104622381Y-65170952D01*
X104574762Y-65028095D01*
X104527143Y-64980476D01*
X104193810Y-64980476D01*
X104193810Y-65170952D01*
X88547619Y-40845238D02*
X88500000Y-40940476D01*
X88404762Y-41035714D01*
X88261905Y-41178571D01*
X88214286Y-41273810D01*
X88214286Y-41369048D01*
X88452381Y-41321429D02*
X88404762Y-41416667D01*
X88309524Y-41511905D01*
X88119048Y-41559524D01*
X87785714Y-41559524D01*
X87595238Y-41511905D01*
X87500000Y-41416667D01*
X87452381Y-41321429D01*
X87452381Y-41130952D01*
X87500000Y-41035714D01*
X87595238Y-40940476D01*
X87785714Y-40892857D01*
X88119048Y-40892857D01*
X88309524Y-40940476D01*
X88404762Y-41035714D01*
X88452381Y-41130952D01*
X88452381Y-41321429D01*
X87547619Y-40511905D02*
X87500000Y-40464286D01*
X87452381Y-40369048D01*
X87452381Y-40130952D01*
X87500000Y-40035714D01*
X87547619Y-39988095D01*
X87642857Y-39940476D01*
X87738095Y-39940476D01*
X87880952Y-39988095D01*
X88452381Y-40559524D01*
X88452381Y-39940476D01*
X104574762Y-38495714D02*
X104622381Y-38352857D01*
X104622381Y-38114761D01*
X104574762Y-38019523D01*
X104527143Y-37971904D01*
X104431905Y-37924285D01*
X104336667Y-37924285D01*
X104241429Y-37971904D01*
X104193810Y-38019523D01*
X104146190Y-38114761D01*
X104098571Y-38305238D01*
X104050952Y-38400476D01*
X104003333Y-38448095D01*
X103908095Y-38495714D01*
X103812857Y-38495714D01*
X103717619Y-38448095D01*
X103670000Y-38400476D01*
X103622381Y-38305238D01*
X103622381Y-38067142D01*
X103670000Y-37924285D01*
X104622381Y-41011905D02*
X103622381Y-41011905D01*
X103622381Y-40773810D01*
X103670000Y-40630952D01*
X103765238Y-40535714D01*
X103860476Y-40488095D01*
X104050952Y-40440476D01*
X104193810Y-40440476D01*
X104384286Y-40488095D01*
X104479524Y-40535714D01*
X104574762Y-40630952D01*
X104622381Y-40773810D01*
X104622381Y-41011905D01*
X103670000Y-43028095D02*
X103622381Y-43123333D01*
X103622381Y-43266190D01*
X103670000Y-43409048D01*
X103765238Y-43504286D01*
X103860476Y-43551905D01*
X104050952Y-43599524D01*
X104193810Y-43599524D01*
X104384286Y-43551905D01*
X104479524Y-43504286D01*
X104574762Y-43409048D01*
X104622381Y-43266190D01*
X104622381Y-43170952D01*
X104574762Y-43028095D01*
X104527143Y-42980476D01*
X104193810Y-42980476D01*
X104193810Y-43170952D01*
M02*
